fira-sans_semibold-italic.sfdir
StartChar: exclam
Encoding: 33 33 2126
Width: 232
Flags: MW
HStem: -16 21G<60.5 109> -16 171<74.5 109> 672 20G<101 250 250 250>
VStem: 7 169<53 86.5>
LayerCount: 2
Back
Fore
SplineSet
55 249 m 1xb0
 101 692 l 1
 250 692 l 1
 170 249 l 1
 55 249 l 1xb0
101 155 m 0x70
 145 155 176 123 176 79 c 0
 176 27 135 -16 83 -16 c 0
 38 -16 7 17 7 61 c 0
 7 112 48 155 101 155 c 0x70
EndSplineSet
EndChar

StartChar: quotedbl
Encoding: 34 34 993
Width: 421
Flags: MW
HStem: 417 275<108 181 87 238 108 283 304 377>
VStem: 87 347<417 692>
LayerCount: 2
Fore
SplineSet
108 692 m 1
 238 692 l 1
 181 417 l 1
 87 417 l 1
 108 692 l 1
304 692 m 1
 434 692 l 1
 377 417 l 1
 283 417 l 1
 304 692 l 1
EndSplineSet
EndChar
StartChar: numbersign
Encoding: 35 35 2128
Width: 538
Flags: MW
HStem: 0 21G<15 131 15 15 243 360 243 243> 148 96<11 55 -2 81 197 283 11 171 425 471> 442 96<89 134 76 160 89 251 277 362 505 549>
VStem: -2 565<148 538>
LayerCount: 2
Back
Fore
SplineSet
549 442 m 1
 479 442 l 1
 425 244 l 1
 485 244 l 1
 471 148 l 1
 399 148 l 1
 360 0 l 1
 243 0 l 1
 283 148 l 1
 171 148 l 1
 131 0 l 1
 15 0 l 1
 55 148 l 1
 -2 148 l 1
 11 244 l 1
 81 244 l 1
 134 442 l 1
 76 442 l 1
 89 538 l 1
 160 538 l 1
 197 674 l 1
 314 674 l 1
 277 538 l 1
 388 538 l 1
 425 674 l 1
 541 674 l 1
 505 538 l 1
 563 538 l 1
 549 442 l 1
309 244 m 1
 362 442 l 1
 251 442 l 1
 197 244 l 1
 309 244 l 1
EndSplineSet
Substitution2: "'onum' Oldstyle Figures lookup 26 subtable" numbersign.osf
Substitution2: "'tnum' Tabular Numbers lookup 25 subtable" numbersign.tf
AlternateSubs2: "'aalt' Access All Alternates lookup 1 subtable" numbersign.tf numbersign.osf
EndChar
StartChar: dollar
Encoding: 36 36 2206
Width: 536
GlyphClass: 2
Flags: MW
HStem: -160 256<194 261 194 262 158 261> -9 21G<180 180> -9 105<180 261> 579 250<301 354>
VStem: 76 146<477.5 526 477.5 532.5> 355 146<169 220.5>
LayerCount: 2
Back
Fore
SplineSet
333 404 m 0x5c
 433 370 501 313 501 213 c 0
 501 125 445 16 284 -6 c 1
 262 -160 l 1
 158 -160 l 1x9c
 180 -9 l 1
 94 0 29 37 -12 85 c 1
 71 163 l 1
 112 119 164 96 224 96 c 0x3c
 298 96 355 130 355 200 c 0
 355 241 328 267 250 296 c 0
 129 337 76 400 76 482 c 0
 76 583 151 663 276 681 c 1
 297 829 l 1
 401 829 l 1
 380 681 l 1
 446 672 498 642 543 599 c 1
 467 524 l 1
 419 564 375 579 333 579 c 0
 269 579 222 554 222 498 c 0
 222 457 247 436 333 404 c 0x5c
EndSplineSet
Substitution2: "'onum' Oldstyle Figures lookup 26 subtable" dollar.osf
Substitution2: "'tnum' Tabular Numbers lookup 25 subtable" dollar.tf
AlternateSubs2: "'aalt' Access All Alternates lookup 1 subtable" dollar.tf dollar.osf
EndChar

StartChar: ampersand
Encoding: 38 38 1221
Width: 775
Flags: MW
HStem: -16 103<267.5 310> 615 93<329 372.5>
VStem: 58 147<149.5 195 149.5 207.5> 141 133<517 558.5 517 574> 419 132<534.5 574>
LayerCount: 2
Fore
SplineSet
358 708 m 0xe8
 477 708 551 642 551 557 c 0
 551 476 493 424 390 362 c 1
 515 226 l 1
 540 267 564 314 583 363 c 1
 697 324 l 1
 664 257 625 198 585 149 c 1
 682 46 l 1
 566 -16 l 1
 495 64 l 1
 427 8 352 -16 268 -16 c 0
 136 -16 58 62 58 165 c 0xe8
 58 250 96 309 214 377 c 1
 165 433 141 475 141 532 c 0xd8
 141 616 201 708 358 708 c 0xe8
354 615 m 0xd8
 304 615 274 583 274 534 c 0
 274 500 289 473 320 438 c 1
 385 477 419 512 419 557 c 0
 419 591 391 615 354 615 c 0xd8
284 298 m 1xe8
 217 254 205 216 205 174 c 0
 205 125 237 87 298 87 c 0
 348 87 389 105 429 136 c 1
 284 298 l 1xe8
EndSplineSet
EndChar

StartChar: quotesingle
Encoding: 39 39 994
Width: 225
Flags: MW
HStem: 417 275<108 181 87 238> 672 20G<108 238 238 238>
VStem: 87 151
LayerCount: 2
Fore
SplineSet
108 692 m 1x60
 238 692 l 1
 181 417 l 1
 87 417 l 1xa0
 108 692 l 1x60
EndSplineSet
EndChar
StartChar: parenleft
Encoding: 40 40 2150
Width: 316
Flags: MW
HStem: -154 1011<152 290>
VStem: 25.47 138.99
LayerCount: 2
Back
Fore
SplineSet
290 857 m 1
 374 793 l 1
 265 660 201 540 174 346 c 0
 148 156 176 33 248 -99 c 1
 152 -154 l 1
 73 -15 0 114 34 354 c 0
 67 590 172 718 290 857 c 1
EndSplineSet
Substitution2: "'case' Case-Sensitive Forms lookup 29 subtable" parenleft.case
Substitution2: "'dnom' Denominators lookup 17 subtable" parenleft.dnom
Substitution2: "'numr' Numerators lookup 16 subtable" parenleft.numr
Substitution2: "'sups' Superscript lookup 15 subtable" uni207D
Substitution2: "'subs' Subscript lookup 14 subtable" uni208D
AlternateSubs2: "'aalt' Access All Alternates lookup 1 subtable" uni208D uni207D parenleft.numr parenleft.dnom parenleft.case
EndChar
StartChar: parenright
Encoding: 41 41 2151
Width: 316
Flags: MW
HStem: -157 1011<48 187>
VStem: 174.95 139.08
LayerCount: 2
Back
Fore
SplineSet
187 854 m 1
 266 715 339 586 306 346 c 0
 272 110 167 -18 48 -157 c 1
 -35 -93 l 1
 74 40 138 160 165 354 c 0
 192 544 163 667 91 799 c 1
 187 854 l 1
EndSplineSet
Substitution2: "'case' Case-Sensitive Forms lookup 29 subtable" parenright.case
Substitution2: "'dnom' Denominators lookup 17 subtable" parenright.dnom
Substitution2: "'numr' Numerators lookup 16 subtable" parenright.numr
Substitution2: "'sups' Superscript lookup 15 subtable" uni207E
Substitution2: "'subs' Subscript lookup 14 subtable" uni208E
AlternateSubs2: "'aalt' Access All Alternates lookup 1 subtable" uni208E uni207E parenright.numr parenright.dnom parenright.case
EndChar

StartChar: asterisk
Encoding: 42 42 980
Width: 438
Flags: MW
HStem: 521 20G<47 47> 721 20G<221 351 351 351>
VStem: 47 420<541 542>
LayerCount: 2
Fore
SplineSet
321 515 m 1
 407 411 l 1
 299 337 l 1
 248 465 l 1
 162 336 l 1
 72 410 l 1
 187 516 l 1
 47 541 l 1
 99 655 l 1
 223 594 l 1
 221 741 l 1
 351 741 l 1
 309 594 l 1
 444 658 l 1
 467 542 l 1
 321 515 l 1
EndSplineSet
EndChar
StartChar: plus
Encoding: 43 43 2273
Width: 513
GlyphClass: 2
Flags: MW
HStem: 276 111<68 199 52 215 333 465 68 317> 522 20G<236 354 354 354>
VStem: 52 428<276 387>
LayerCount: 2
Back
Fore
SplineSet
354 542 m 1
 333 387 l 1
 480 387 l 1
 465 276 l 1
 317 276 l 1
 295 122 l 1
 177 122 l 1
 199 276 l 1
 52 276 l 1
 68 387 l 1
 215 387 l 1
 236 542 l 1
 354 542 l 1
EndSplineSet
Substitution2: "'onum' Oldstyle Figures lookup 26 subtable" plus.osf
Substitution2: "'tnum' Tabular Numbers lookup 25 subtable" plus.tf
Substitution2: "'dnom' Denominators lookup 17 subtable" plus.dnom
Substitution2: "'numr' Numerators lookup 16 subtable" plus.numr
Substitution2: "'sups' Superscript lookup 15 subtable" uni207A
Substitution2: "'subs' Subscript lookup 14 subtable" uni208A
AlternateSubs2: "'aalt' Access All Alternates lookup 1 subtable" uni208A uni207A plus.numr plus.dnom plus.tf plus.osf
EndChar

StartChar: comma
Encoding: 44 44 985
Width: 242
Flags: MW
HStem: 1 21G<37 37>
VStem: 9 169<64 85.5>
LayerCount: 2
Fore
SplineSet
102 155 m 0
 146 155 178 123 178 80 c 0
 178 48 166 23 137 -29 c 1
 52 -174 l 1
 -31 -174 l 1
 37 1 l 1
 19 14 9 35 9 59 c 0
 9 112 50 155 102 155 c 0
EndSplineSet
EndChar

StartChar: hyphen
Encoding: 45 45 1027
Width: 397
Flags: MW
HStem: 257 112<60 350 44 366>
VStem: 44 322<257 369>
LayerCount: 2
Fore
SplineSet
60 369 m 1
 366 369 l 1
 350 257 l 1
 44 257 l 1
 60 369 l 1
EndSplineSet
Substitution2: "'case' Case-Sensitive Forms lookup 25 subtable" hyphen.case
Substitution2: "'aalt' Access All Alternates lookup 0 subtable" hyphen.case
EndChar
StartChar: period
Encoding: 46 46 2129
Width: 240
Flags: MW
HStem: -16 171<74.5 109>
VStem: 7 169<53 86.5>
LayerCount: 2
Back
Fore
SplineSet
101 155 m 0
 145 155 176 123 176 79 c 0
 176 27 135 -16 83 -16 c 0
 38 -16 7 17 7 61 c 0
 7 112 48 155 101 155 c 0
EndSplineSet
EndChar

StartChar: slash
Encoding: 47 47 996
Width: 511
Flags: MW
HStem: -110 925<149 386>
VStem: 30 475
LayerCount: 2
Fore
SplineSet
505 786 m 1
 149 -110 l 1
 30 -80 l 1
 386 815 l 1
 505 786 l 1
EndSplineSet
Substitution2: "'frac' Diagonal Fractions lookup 15 subtable" fraction
Substitution2: "'aalt' Access All Alternates lookup 0 subtable" fraction
EndChar
StartChar: zero
Encoding: 48 48 2017
Width: 570
Flags: MW
HStem: -16 107<233 293 233 365> 581 106<296.5 357>
VStem: 43 140<166 225 166 328.5> 407 139<448 507.5>
LayerCount: 2
Back
Fore
SplineSet
339 687 m 0
 474 687 546 598 546 435 c 0
 546 255 480 -16 250 -16 c 0
 115 -16 43 75 43 238 c 0
 43 419 108 687 339 687 c 0
332 581 m 0
 261 581 219 517 194 332 c 0
 187 282 183 241 183 209 c 0
 183 123 208 91 258 91 c 0
 328 91 369 152 396 340 c 0
 403 392 407 432 407 464 c 0
 407 551 382 581 332 581 c 0
EndSplineSet
Substitution2: "'zero' Slashed Zero lookup 32 subtable" zero.zero
Substitution2: "'onum' Oldstyle Figures lookup 26 subtable" zero.osf
Substitution2: "'tnum' Tabular Numbers lookup 25 subtable" zero.tf
Substitution2: "'frac' Diagonal Fractions lookup 19 subtable" zero.numr
Substitution2: "'dnom' Denominators lookup 17 subtable" zero.dnom
Substitution2: "'numr' Numerators lookup 16 subtable" zero.numr
Substitution2: "'sups' Superscript lookup 15 subtable" uni2070
Substitution2: "'subs' Subscript lookup 14 subtable" uni2080
AlternateSubs2: "'aalt' Access All Alternates lookup 1 subtable" uni2080 uni2070 zero.numr zero.dnom zero.tf zero.osf zero.zero
EndChar

StartChar: one
Encoding: 49 49 880
Width: 447
Flags: MW
HStem: 0 21G<186 324 186 186>
VStem: 55 363<539 674>
LayerCount: 2
Fore
SplineSet
324 0 m 1
 186 0 l 1
 261 525 l 1
 102 434 l 1
 55 539 l 1
 293 674 l 1
 418 674 l 1
 324 0 l 1
EndSplineSet
Substitution2: "'onum' Oldstyle Figures lookup 22 subtable" one.osf
Substitution2: "'tnum' Tabular Numbers lookup 21 subtable" one.tf
Substitution2: "'frac' Diagonal Fractions lookup 16 subtable" one.numr
Substitution2: "'dnom' Denominators lookup 14 subtable" one.dnom
Substitution2: "'numr' Numerators lookup 13 subtable" one.numr
Substitution2: "'sups' Superscript lookup 12 subtable" onesuperior
Substitution2: "'subs' Subscript lookup 11 subtable" oneinferior
AlternateSubs2: "'aalt' Access All Alternates lookup 1 subtable" oneinferior onesuperior one.numr one.dnom one.tf one.osf
EndChar
StartChar: two
Encoding: 50 50 2019
Width: 503
Flags: MW
HStem: 0 109.5 577 110<240 288>
VStem: 343 146<465.5 524.5>
LayerCount: 2
Back
Fore
SplineSet
285 687 m 0
 417 687 489 612 489 514 c 0
 489 417 444 327 168 109 c 1
 447 110 l 1
 416 0 l 1
 -7 0 l 1
 7 104 l 1
 299 364 343 417 343 499 c 0
 343 550 312 577 264 577 c 0
 213 577 175 554 129 505 c 1
 49 580 l 1
 115 649 195 687 285 687 c 0
EndSplineSet
Substitution2: "'onum' Oldstyle Figures lookup 26 subtable" two.osf
Substitution2: "'tnum' Tabular Numbers lookup 25 subtable" two.tf
Substitution2: "'frac' Diagonal Fractions lookup 19 subtable" two.numr
Substitution2: "'dnom' Denominators lookup 17 subtable" two.dnom
Substitution2: "'numr' Numerators lookup 16 subtable" two.numr
Substitution2: "'sups' Superscript lookup 15 subtable" uni00B2
Substitution2: "'subs' Subscript lookup 14 subtable" uni2082
AlternateSubs2: "'aalt' Access All Alternates lookup 1 subtable" uni2082 uni00B2 two.numr two.dnom two.tf two.osf
EndChar
StartChar: three
Encoding: 51 51 2020
Width: 506
Flags: MW
HStem: -16 110<161 224 161 288> 302 100<190 217 161 226> 580 107<245 289>
VStem: 317 142<186 255> 344 139<495.5 534>
LayerCount: 2
Back
Fore
SplineSet
287 687 m 0xe8
 417 687 483 618 483 528 c 0xe8
 483 463 445 386 329 356 c 1
 401 349 459 304 459 217 c 0
 459 126 391 -16 185 -16 c 0
 89 -16 19 22 -25 85 c 1
 62 157 l 1
 97 112 136 94 186 94 c 0
 262 94 317 145 317 227 c 0
 317 283 281 302 217 302 c 2xf0
 161 302 l 1
 190 402 l 1
 226 402 l 2
 313 402 344 469 344 512 c 0
 344 556 314 580 264 580 c 0
 213 580 169 560 123 520 c 1
 60 602 l 1
 130 659 203 687 287 687 c 0xe8
EndSplineSet
Substitution2: "'onum' Oldstyle Figures lookup 26 subtable" three.osf
Substitution2: "'tnum' Tabular Numbers lookup 25 subtable" three.tf
Substitution2: "'frac' Diagonal Fractions lookup 19 subtable" three.numr
Substitution2: "'dnom' Denominators lookup 17 subtable" three.dnom
Substitution2: "'numr' Numerators lookup 16 subtable" three.numr
Substitution2: "'sups' Superscript lookup 15 subtable" uni00B3
Substitution2: "'subs' Subscript lookup 14 subtable" uni2083
AlternateSubs2: "'aalt' Access All Alternates lookup 1 subtable" uni2083 uni00B3 three.numr three.dnom three.tf three.osf
EndChar

StartChar: four
Encoding: 52 52 883
Width: 548
Flags: MW
HStem: 0 21G<275 411 275 275> 150 108<180 295 448 510>
VStem: 13 512<150 258>
LayerCount: 2
Fore
SplineSet
510 150 m 1
 432 150 l 1
 411 0 l 1
 275 0 l 1
 295 150 l 1
 13 150 l 1
 26 246 l 1
 275 689 l 1
 392 644 l 1
 180 258 l 1
 312 258 l 1
 350 423 l 1
 471 423 l 1
 448 258 l 1
 525 258 l 1
 510 150 l 1
EndSplineSet
Substitution2: "'onum' Oldstyle Figures lookup 22 subtable" four.osf
Substitution2: "'tnum' Tabular Numbers lookup 21 subtable" four.tf
Substitution2: "'frac' Diagonal Fractions lookup 16 subtable" four.numr
Substitution2: "'dnom' Denominators lookup 14 subtable" four.dnom
Substitution2: "'numr' Numerators lookup 13 subtable" four.numr
Substitution2: "'sups' Superscript lookup 12 subtable" foursuperior
Substitution2: "'subs' Subscript lookup 11 subtable" fourinferior
AlternateSubs2: "'aalt' Access All Alternates lookup 1 subtable" fourinferior foursuperior four.numr four.dnom four.tf four.osf
EndChar
StartChar: five
Encoding: 53 53 2022
Width: 519
Flags: MW
HStem: -16 109<173 247.5 173 300> 340 99<238 365> 571 103<237 482 237 237>
VStem: 338 142<211.5 283.5>
LayerCount: 2
Back
Fore
SplineSet
513 674 m 1
 482 571 l 1
 237 571 l 1
 214 416 l 1
 249 433 284 439 315 439 c 0
 415 439 480 374 480 254 c 0
 480 144 404 -16 196 -16 c 0
 96 -16 34 26 -10 82 c 1
 76 155 l 1
 108 115 146 93 200 93 c 0
 295 93 338 174 338 249 c 0
 338 318 302 340 253 340 c 0
 223 340 198 333 165 315 c 1
 67 316 l 1
 117 674 l 1
 513 674 l 1
EndSplineSet
Substitution2: "'onum' Oldstyle Figures lookup 26 subtable" five.osf
Substitution2: "'tnum' Tabular Numbers lookup 25 subtable" five.tf
Substitution2: "'frac' Diagonal Fractions lookup 19 subtable" five.numr
Substitution2: "'dnom' Denominators lookup 17 subtable" five.dnom
Substitution2: "'numr' Numerators lookup 16 subtable" five.numr
Substitution2: "'sups' Superscript lookup 15 subtable" uni2075
Substitution2: "'subs' Subscript lookup 14 subtable" uni2085
AlternateSubs2: "'aalt' Access All Alternates lookup 1 subtable" uni2085 uni2075 five.numr five.dnom five.tf five.osf
EndChar

StartChar: six
Encoding: 54 54 885
Width: 546
Flags: MW
HStem: -16 104<231.5 305 231.5 348.5> 351 100<327.5 329.5> 584 103<330 387>
VStem: 39 141<160 211 160 239> 376 140<239.5 301>
LayerCount: 2
Fore
SplineSet
353 451 m 0
 448 451 516 388 516 271 c 0
 516 161 444 -16 253 -16 c 0
 103 -16 39 79 39 225 c 0
 39 253 41 283 46 314 c 0
 78 539 203 687 376 687 c 0
 437 687 485 669 519 642 c 1
 457 558 l 1
 433 575 404 584 370 584 c 0
 290 584 228 511 201 387 c 1
 249 433 302 451 353 451 c 0
259 88 m 0
 351 88 376 208 376 271 c 0
 376 331 351 351 308 351 c 0
 265 351 222 326 187 287 c 1
 183 252 180 223 180 199 c 0
 180 121 204 88 259 88 c 0
EndSplineSet
Substitution2: "'onum' Oldstyle Figures lookup 22 subtable" six.osf
Substitution2: "'tnum' Tabular Numbers lookup 21 subtable" six.tf
Substitution2: "'frac' Diagonal Fractions lookup 16 subtable" six.numr
Substitution2: "'dnom' Denominators lookup 14 subtable" six.dnom
Substitution2: "'numr' Numerators lookup 13 subtable" six.numr
Substitution2: "'sups' Superscript lookup 12 subtable" sixsuperior
Substitution2: "'subs' Subscript lookup 11 subtable" sixinferior
AlternateSubs2: "'aalt' Access All Alternates lookup 1 subtable" sixinferior sixsuperior six.numr six.dnom six.tf six.osf
EndChar

StartChar: seven
Encoding: 55 55 886
Width: 453
Flags: MW
HStem: -15 21G<153 153> 566 108<72 330 56 491>
VStem: 28 463
LayerCount: 2
Fore
SplineSet
478 576 m 1
 153 -15 l 1
 28 28 l 1
 330 566 l 1
 56 566 l 1
 72 674 l 1
 491 674 l 1
 478 576 l 1
EndSplineSet
Substitution2: "'onum' Oldstyle Figures lookup 22 subtable" seven.osf
Substitution2: "'tnum' Tabular Numbers lookup 21 subtable" seven.tf
Substitution2: "'frac' Diagonal Fractions lookup 16 subtable" seven.numr
Substitution2: "'dnom' Denominators lookup 14 subtable" seven.dnom
Substitution2: "'numr' Numerators lookup 13 subtable" seven.numr
Substitution2: "'sups' Superscript lookup 12 subtable" sevensuperior
Substitution2: "'subs' Subscript lookup 11 subtable" seveninferior
AlternateSubs2: "'aalt' Access All Alternates lookup 1 subtable" seveninferior sevensuperior seven.numr seven.dnom seven.tf seven.osf
EndChar
StartChar: eight
Encoding: 56 56 2025
Width: 565
Flags: MW
HStem: -16 104<226 295.5 226 328.5> 590 97<291 356.5>
VStem: 19 142<145.5 192 145.5 200> 92 134<470.5 512.5 470.5 544> 382 141<173 228> 407 136<506 543>
LayerCount: 2
Back
Fore
SplineSet
412 360 m 1xe8
 485 322 523 269 523 202 c 0
 523 83 413 -16 244 -16 c 0
 101 -16 19 62 19 165 c 0xe8
 19 235 56 305 171 351 c 1
 116 386 92 434 92 489 c 0
 92 599 187 687 336 687 c 0
 453 687 543 629 543 528 c 0xd4
 543 463 506 405 412 360 c 1xe8
332 590 m 0xd4
 250 590 226 532 226 493 c 0
 226 448 253 425 304 404 c 2
 322 398 l 1
 396 442 407 489 407 523 c 0
 407 563 381 590 332 590 c 0xd4
256 88 m 0xe8
 335 88 382 140 382 206 c 0
 382 250 354 273 285 300 c 2
 256 310 l 1
 179 272 161 213 161 171 c 0
 161 120 196 88 256 88 c 0xe8
EndSplineSet
Substitution2: "'onum' Oldstyle Figures lookup 26 subtable" eight.osf
Substitution2: "'tnum' Tabular Numbers lookup 25 subtable" eight.tf
Substitution2: "'frac' Diagonal Fractions lookup 19 subtable" eight.numr
Substitution2: "'dnom' Denominators lookup 17 subtable" eight.dnom
Substitution2: "'numr' Numerators lookup 16 subtable" eight.numr
Substitution2: "'sups' Superscript lookup 15 subtable" uni2078
Substitution2: "'subs' Subscript lookup 14 subtable" uni2088
AlternateSubs2: "'aalt' Access All Alternates lookup 1 subtable" uni2088 uni2078 eight.numr eight.dnom eight.tf eight.osf
EndChar

StartChar: nine
Encoding: 57 57 888
Width: 543
Flags: MW
HStem: 236 102<245 249.5> 584 103<267 340.5>
VStem: 55 140<393.5 456 393.5 480> 393 142<472.5 519.5>
LayerCount: 2
Fore
SplineSet
318 687 m 0
 460 687 535 600 535 471 c 0
 535 281 459 48 71 -27 c 1
 52 75 l 1
 222 116 321 177 362 300 c 1
 326 261 280 236 219 236 c 0
 126 236 55 306 55 420 c 0
 55 540 130 687 318 687 c 0
266 338 m 0
 309 338 351 363 385 406 c 1
 390 437 393 461 393 484 c 0
 393 555 366 584 315 584 c 0
 219 584 195 488 195 424 c 0
 195 363 224 338 266 338 c 0
EndSplineSet
Substitution2: "'onum' Oldstyle Figures lookup 22 subtable" nine.osf
Substitution2: "'tnum' Tabular Numbers lookup 21 subtable" nine.tf
Substitution2: "'frac' Diagonal Fractions lookup 16 subtable" nine.numr
Substitution2: "'dnom' Denominators lookup 14 subtable" nine.dnom
Substitution2: "'numr' Numerators lookup 13 subtable" nine.numr
Substitution2: "'sups' Superscript lookup 12 subtable" ninesuperior
Substitution2: "'subs' Subscript lookup 11 subtable" nineinferior
AlternateSubs2: "'aalt' Access All Alternates lookup 1 subtable" nineinferior ninesuperior nine.numr nine.dnom nine.tf nine.osf
EndChar
StartChar: colon
Encoding: 58 58 2122
Width: 240
Flags: MW
HStem: -16 21G<60.5 109> -16 171<74.5 109> 335 171<124 158>
VStem: 7 169<53 86.5> 57 168<404 437.5>
LayerCount: 2
Back
Fore
SplineSet
150 506 m 0xa8
 194 506 225 474 225 430 c 0
 225 378 184 335 132 335 c 0
 87 335 57 368 57 412 c 0
 57 463 98 506 150 506 c 0xa8
101 155 m 0x70
 145 155 176 123 176 79 c 0
 176 27 135 -16 83 -16 c 0
 38 -16 7 17 7 61 c 0
 7 112 48 155 101 155 c 0x70
EndSplineSet
EndChar

StartChar: semicolon
Encoding: 59 59 995
Width: 245
Flags: MW
HStem: 1 21G<39 39> 335 171<129 161>
VStem: 11 168<64 85.5> 61 168<404.5 437>
LayerCount: 2
Fore
SplineSet
154 506 m 0xd0
 198 506 229 472 229 430 c 0
 229 379 186 335 136 335 c 0
 91 335 61 369 61 412 c 0
 61 462 104 506 154 506 c 0xd0
104 155 m 0xe0
 148 155 179 123 179 80 c 0
 179 48 168 23 139 -29 c 1
 54 -174 l 1
 -29 -174 l 1
 39 1 l 1
 21 14 11 35 11 59 c 0
 11 112 52 155 104 155 c 0xe0
EndSplineSet
EndChar

StartChar: less
Encoding: 60 60 1103
Width: 507
Flags: MW
HStem: 550 20G<466 466>
VStem: 38 465<269 461>
LayerCount: 2
Fore
SplineSet
503 461 m 1
 165 332 l 1
 461 201 l 1
 401 96 l 1
 38 269 l 1
 56 397 l 1
 466 570 l 1
 503 461 l 1
EndSplineSet
Substitution2: "'onum' Oldstyle Figures lookup 22 subtable" less.osf
Substitution2: "'tnum' Tabular Numbers lookup 21 subtable" less.tf
AlternateSubs2: "'aalt' Access All Alternates lookup 1 subtable" less.tf less.osf
EndChar
StartChar: equal
Encoding: 61 61 2253
Width: 506
GlyphClass: 2
Flags: MW
HStem: 173 111<37 458 53 442> 379 111<66 487 82 471>
VStem: 37 450<173 490>
LayerCount: 2
Back
Fore
SplineSet
66 379 m 1
 82 490 l 1
 487 490 l 1
 471 379 l 1
 66 379 l 1
37 173 m 1
 53 284 l 1
 458 284 l 1
 442 173 l 1
 37 173 l 1
EndSplineSet
Substitution2: "'onum' Oldstyle Figures lookup 26 subtable" equal.osf
Substitution2: "'tnum' Tabular Numbers lookup 25 subtable" equal.tf
Substitution2: "'dnom' Denominators lookup 17 subtable" equal.dnom
Substitution2: "'numr' Numerators lookup 16 subtable" equal.numr
Substitution2: "'sups' Superscript lookup 15 subtable" uni207C
AlternateSubs2: "'aalt' Access All Alternates lookup 1 subtable" uni207C equal.numr equal.dnom equal.tf equal.osf
EndChar
StartChar: greater
Encoding: 62 62 2256
Width: 505
GlyphClass: 2
Flags: MW
HStem: 550 20G<124 124>
VStem: 25 461<207 397>
LayerCount: 2
Back
Fore
SplineSet
124 570 m 1
 486 397 l 1
 468 269 l 1
 59 96 l 1
 25 207 l 1
 361 336 l 1
 66 467 l 1
 124 570 l 1
EndSplineSet
Substitution2: "'onum' Oldstyle Figures lookup 26 subtable" greater.osf
Substitution2: "'tnum' Tabular Numbers lookup 25 subtable" greater.tf
AlternateSubs2: "'aalt' Access All Alternates lookup 1 subtable" greater.tf greater.osf
EndChar

StartChar: question
Encoding: 63 63 991
Width: 467
Flags: MW
HStem: -16 21G<162 209.5> -16 171<177.5 209.5> 595 113<255 298>
VStem: 109 169<53.5 86> 127 130<271.5 335.5 269 365> 342 148<488.5 562>
LayerCount: 2
Fore
SplineSet
300 708 m 0xac
 428 708 490 641 490 562 c 0
 490 364 257 399 257 272 c 0
 257 266 257 257 259 249 c 1
 135 229 l 1
 130 245 127 265 127 278 c 0
 127 452 342 431 342 546 c 0
 342 578 319 595 277 595 c 0
 233 595 188 573 145 530 c 1
 64 604 l 1
 129 671 205 708 300 708 c 0xac
203 155 m 0x74
 247 155 278 121 278 79 c 0
 278 28 235 -16 184 -16 c 0
 140 -16 109 18 109 61 c 0
 109 111 152 155 203 155 c 0x74
EndSplineSet
EndChar

StartChar: at
Encoding: 64 64 1220
Width: 1011
Flags: MW
HStem: -220 107<381 508.5> 5 92<697 762 697 811> 9 91<450 480.5> 409 91<491 551.5> 602 106<412 653.5>
VStem: 46 130<99.5 271 99.5 292.5> 288 126<146.5 219 146.5 248> 594 83 839 127<312 439.5>
LayerCount: 2
Fore
SplineSet
571 708 m 0xdf80
 825 708 966 551 966 355 c 0
 966 218 901 5 721 5 c 0xdf80
 643 5 598 58 594 105 c 1
 564 51 516 9 445 9 c 0xbf80
 340 9 288 80 288 183 c 0
 288 313 352 500 552 500 c 0
 607 500 665 485 714 455 c 1
 677 164 l 2
 672 125 678 97 716 97 c 0
 808 97 839 262 839 362 c 0
 839 517 745 602 562 602 c 0
 262 602 176 357 176 185 c 0
 176 14 282 -113 480 -113 c 0
 545 -113 617 -97 670 -78 c 1
 693 -179 l 1
 627 -203 548 -220 469 -220 c 0
 211 -220 46 -53 46 184 c 0
 46 401 189 708 571 708 c 0xdf80
467 100 m 0xbf80
 516 100 543 142 555 164 c 1
 589 399 l 1
 575 406 561 409 542 409 c 0
 440 409 414 267 414 171 c 0
 414 122 433 100 467 100 c 0xbf80
EndSplineSet
EndChar

StartChar: C
Encoding: 67 67 14
Width: 563
GlyphClass: 2
Flags: MW
HStem: -16 116<285 353 285 353> 597 111<321 421.5>
VStem: 44 151<208 332 208 363.5>
AnchorPoint: "Anchor-11" 301 0 basechar 0
AnchorPoint: "Anchor-10" 0 0 basechar 0
AnchorPoint: "Anchor-9" 407 692 basechar 0
AnchorPoint: "Anchor-8" 0 0 basechar 0
LayerCount: 2
Fore
SplineSet
394 708 m 0
 482 708 547 679 595 628 c 1
 514 549 l 1
 480 581 444 597 399 597 c 0
 243 597 195 397 195 267 c 0
 195 149 246 100 324 100 c 0
 382 100 426 129 469 159 c 1
 526 69 l 1
 475 25 399 -16 307 -16 c 0
 146 -16 44 84 44 269 c 0
 44 458 139 708 394 708 c 0
EndSplineSet
Substitution2: "'c2sc' Capitals to Small Capitals lookup 23 subtable" c.sc
Substitution2: "'aalt' Access All Alternates lookup 0 subtable" c.sc
Position2: "'cpsp' Capital Spacing lookup 0 subtable" dx=5 dy=0 dh=10 dv=0
EndChar

StartChar: F
Encoding: 70 70 34
Width: 480
GlyphClass: 2
Flags: MW
HStem: 0 21G<36 181 36 36> 282 107<235 426 220 440> 585 107<262 498 262 262>
VStem: 36 493
LayerCount: 2
Fore
SplineSet
498 585 m 1
 262 585 l 1
 235 389 l 1
 440 389 l 1
 426 282 l 1
 220 282 l 1
 181 0 l 1
 36 0 l 1
 133 692 l 1
 529 692 l 1
 498 585 l 1
EndSplineSet
Substitution2: "'c2sc' Capitals to Small Capitals lookup 23 subtable" f.sc
Substitution2: "'aalt' Access All Alternates lookup 0 subtable" f.sc
Position2: "'cpsp' Capital Spacing lookup 0 subtable" dx=5 dy=0 dh=10 dv=0
EndChar
StartChar: J
Encoding: 74 74 134
Width: 308
GlyphClass: 2
Flags: MW
HStem: 672 20G<154 299 299 299>
VStem: -56 355
AnchorPoint: "Anchor-14" 0 0 basechar 0
AnchorPoint: "Anchor-13" 0 0 basechar 0
AnchorPoint: "Anchor-12" 226 692 basechar 0
AnchorPoint: "Anchor-11" 0 0 basechar 0
AnchorPoint: "Anchor-10" 0 0 basechar 0
LayerCount: 2
Back
Fore
SplineSet
299 692 m 1
 216 101 l 2
 192 -67 90 -125 -29 -162 c 1
 -56 -56 l 1
 38 -21 60 26 72 111 c 2
 154 692 l 1
 299 692 l 1
EndSplineSet
Substitution2: "'c2sc' Capitals to Small Capitals lookup 27 subtable" j.sc
Substitution2: "'aalt' Access All Alternates lookup 0 subtable" j.sc
Position2: "'cpsp' Capital Spacing lookup 0 subtable" dx=5 dy=0 dh=10 dv=0
EndChar
StartChar: P
Encoding: 80 80 211
Width: 587
GlyphClass: 2
Flags: MW
HStem: 0 21G<36 181 36 36> 236 108<229 293 229 293 214 293> 586 106<263 329 263 263>
VStem: 445 151<461.5 528>
AnchorPoint: "Anchor-14" 0 0 basechar 0
AnchorPoint: "Anchor-13" 0 0 basechar 0
AnchorPoint: "Anchor-12" 354 692 basechar 0
AnchorPoint: "Anchor-11" 0 0 basechar 0
AnchorPoint: "Anchor-10" 257 0 basechar 0
LayerCount: 2
Back
Fore
SplineSet
343 692 m 2
 501 692 596 629 596 501 c 0
 596 375 517 236 293 236 c 2
 214 236 l 1
 181 0 l 1
 36 0 l 1
 133 692 l 1
 343 692 l 2
293 344 m 2
 415 344 445 427 445 496 c 0
 445 560 403 586 329 586 c 2
 263 586 l 1
 229 344 l 1
 293 344 l 2
EndSplineSet
Substitution2: "'c2sc' Capitals to Small Capitals lookup 27 subtable" p.sc
Substitution2: "'aalt' Access All Alternates lookup 0 subtable" p.sc
Position2: "'cpsp' Capital Spacing lookup 0 subtable" dx=5 dy=0 dh=10 dv=0
EndChar

StartChar: Q
Encoding: 81 81 85
Width: 681
GlyphClass: 2
Flags: MW
HStem: -16 57 -16 110<276 368> 598 110<311.5 430>
VStem: 44 150<195 314 195 357.5> 511 150<380 498.5>
LayerCount: 2
Fore
SplineSet
661 425 m 0x78
 661 286 612 112 464 41 c 1
 553 38 605 14 650 -23 c 1xb8
 548 -137 l 1
 491 -66 431 -16 305 -16 c 0
 141 -16 44 87 44 266 c 0
 44 449 130 708 401 708 c 0
 565 708 661 606 661 425 c 0x78
194 251 m 0
 194 139 238 94 314 94 c 0
 475 94 511 315 511 445 c 0
 511 552 469 598 391 598 c 0
 232 598 194 377 194 251 c 0
EndSplineSet
Substitution2: "'c2sc' Capitals to Small Capitals lookup 23 subtable" q.sc
Substitution2: "'aalt' Access All Alternates lookup 0 subtable" q.sc
Position2: "'cpsp' Capital Spacing lookup 0 subtable" dx=5 dy=0 dh=10 dv=0
EndChar

StartChar: T
Encoding: 84 84 96
Width: 526
GlyphClass: 2
Flags: MW
HStem: 0 21G<153 299 153 153> 577 115<69 234 53 584 379 552 379 379>
VStem: 53 531<577 692>
AnchorPoint: "Anchor-11" 226 0 basechar 0
AnchorPoint: "Anchor-10" 0 0 basechar 0
AnchorPoint: "Anchor-9" 323 692 basechar 0
AnchorPoint: "Anchor-8" 0 0 basechar 0
LayerCount: 2
Fore
SplineSet
552 577 m 1
 379 577 l 1
 299 0 l 1
 153 0 l 1
 234 577 l 1
 53 577 l 1
 69 692 l 1
 584 692 l 1
 552 577 l 1
EndSplineSet
Substitution2: "'c2sc' Capitals to Small Capitals lookup 23 subtable" t.sc
Substitution2: "'aalt' Access All Alternates lookup 0 subtable" t.sc
Position2: "'cpsp' Capital Spacing lookup 0 subtable" dx=5 dy=0 dh=10 dv=0
EndChar
StartChar: V
Encoding: 86 86 282
Width: 558
GlyphClass: 2
Flags: MW
HStem: 0 21G<157 333 157 157> 0 122<262 262 262 333 157 262> 672 20G<51 203 203 203 477 627 627 627>
VStem: 51 576<692 692>
LayerCount: 2
Back
Fore
SplineSet
627 692 m 1xb0
 333 0 l 1
 157 0 l 1
 51 692 l 1
 203 692 l 1
 262 122 l 1x70
 477 692 l 1
 627 692 l 1xb0
EndSplineSet
Substitution2: "'c2sc' Capitals to Small Capitals lookup 27 subtable" v.sc
Substitution2: "'aalt' Access All Alternates lookup 0 subtable" v.sc
Position2: "'cpsp' Capital Spacing lookup 0 subtable" dx=5 dy=0 dh=10 dv=0
EndChar
StartChar: X
Encoding: 88 88 292
Width: 562
GlyphClass: 2
Flags: MW
HStem: 0 21G<-40 118 -40 -40 371 527 371 371> 672 20G<74 229 229 229 450 606 606 606>
VStem: -40 646
LayerCount: 2
Back
Fore
SplineSet
381 373 m 1
 380 372 l 1
 527 0 l 1
 371 0 l 1
 283 279 l 1
 118 0 l 1
 -40 0 l 1
 206 368 l 1
 207 369 l 1
 74 692 l 1
 229 692 l 1
 303 456 l 1
 450 692 l 1
 606 692 l 1
 381 373 l 1
EndSplineSet
Substitution2: "'c2sc' Capitals to Small Capitals lookup 27 subtable" x.sc
Substitution2: "'aalt' Access All Alternates lookup 0 subtable" x.sc
Position2: "'cpsp' Capital Spacing lookup 0 subtable" dx=5 dy=0 dh=10 dv=0
EndChar

StartChar: bracketleft
Encoding: 91 91 1007
Width: 315
Flags: MW
HStem: -121 107<132 232> 713 108<234 349 234 234>
VStem: -15 379
LayerCount: 2
Fore
SplineSet
349 713 m 1
 234 713 l 1
 132 -14 l 1
 247 -14 l 1
 232 -121 l 1
 -15 -121 l 1
 117 821 l 1
 364 821 l 1
 349 713 l 1
EndSplineSet
Substitution2: "'case' Case-Sensitive Forms lookup 25 subtable" bracketleft.case
Substitution2: "'aalt' Access All Alternates lookup 0 subtable" bracketleft.case
EndChar

StartChar: backslash
Encoding: 92 92 981
Width: 511
Flags: MW
HStem: -110 923<258 276>
VStem: 153 230
LayerCount: 2
Fore
SplineSet
383 -82 m 1
 258 -110 l 1
 153 786 l 1
 276 813 l 1
 383 -82 l 1
EndSplineSet
EndChar

StartChar: bracketright
Encoding: 93 93 1008
Width: 315
Flags: MW
HStem: -121 107<-11 104 -11 222 -26 104> 714 107<107 207 92 354>
VStem: -26 380
LayerCount: 2
Fore
SplineSet
222 -121 m 1
 -26 -121 l 1
 -11 -14 l 1
 104 -14 l 1
 207 714 l 1
 92 714 l 1
 107 821 l 1
 354 821 l 1
 222 -121 l 1
EndSplineSet
Substitution2: "'case' Case-Sensitive Forms lookup 25 subtable" bracketright.case
Substitution2: "'aalt' Access All Alternates lookup 0 subtable" bracketright.case
EndChar
StartChar: asciicircum
Encoding: 94 94 2389
Width: 545
GlyphClass: 2
Flags: MW
HStem: 527 316<58 417 58 417 290 559 290 421>
VStem: 58 501<527 527>
LayerCount: 2
Back
Fore
SplineSet
417 843 m 1
 559 527 l 1
 421 527 l 1
 339 734 l 1
 200 527 l 1
 58 527 l 1
 290 843 l 1
 417 843 l 1
EndSplineSet
EndChar
StartChar: underscore
Encoding: 95 95 2137
Width: 511
Flags: MW
HStem: -164 113<-50 456 -34 441>
VStem: -50 506<-164 -51>
LayerCount: 2
Back
Fore
SplineSet
-50 -164 m 1
 -34 -51 l 1
 456 -51 l 1
 441 -164 l 1
 -50 -164 l 1
EndSplineSet
EndChar

StartChar: grave
Encoding: 96 96 1259
Width: 321
Flags: MW
HStem: 678 20G<354 354>
VStem: 92 262<698 718>
LayerCount: 2
Fore
SplineSet
354 698 m 1
 306 626 l 1
 92 718 l 1
 162 827 l 1
 354 698 l 1
EndSplineSet
Substitution2: "'case' Case-Sensitive Forms lookup 25 subtable" grave.case
Substitution2: "'smcp' Lowercase to Small Capitals lookup 24 subtable" grave.sc
Substitution2: "'c2sc' Capitals to Small Capitals lookup 23 subtable" grave.sc
AlternateSubs2: "'aalt' Access All Alternates lookup 1 subtable" grave.sc grave.case
EndChar

StartChar: a
Encoding: 97 97 134
Width: 571
GlyphClass: 2
Flags: MW
HStem: -16 106<225 237> 443 103<271.5 340.5>
VStem: 31 146<154.5 246.5 154.5 268>
AnchorPoint: "Anchor-11" 0 0 basechar 0
AnchorPoint: "Anchor-10" 0 0 basechar 0
AnchorPoint: "Anchor-9" 339 530 basechar 0
AnchorPoint: "Anchor-8" 484 -14 basechar 0
LayerCount: 2
Fore
SplineSet
330 546 m 0
 399 546 469 531 541 493 c 1
 489 145 l 2
 488 136 487 129 487 122 c 0
 487 97 497 86 516 79 c 1
 476 -14 l 1
 419 -8 374 17 360 74 c 1
 323 21 271 -16 203 -16 c 0
 90 -16 31 67 31 193 c 0
 31 343 110 546 330 546 c 0
327 443 m 0
 216 443 177 300 177 193 c 0
 177 116 204 90 246 90 c 0
 288 90 322 121 355 169 c 1
 394 432 l 1
 371 440 354 443 327 443 c 0
EndSplineSet
Substitution2: "Single Substitution lookup 30 subtable" ordfeminine
Substitution2: "'smcp' Lowercase to Small Capitals lookup 24 subtable" a.sc
AlternateSubs2: "'aalt' Access All Alternates lookup 1 subtable" ordfeminine a.sc
EndChar

StartChar: b
Encoding: 98 98 146
Width: 581
GlyphClass: 2
Flags: MW
HStem: -16 105<245 313 245 364.5> 441 105<312.5 439> 737 20G<277 277>
VStem: 405 144<286.5 378>
LayerCount: 2
Fore
SplineSet
239 483 m 1
 280 523 334 546 386 546 c 0
 492 546 549 471 549 339 c 0
 549 187 483 -16 246 -16 c 0
 172 -16 109 -2 35 26 c 1
 136 741 l 1
 277 757 l 1
 239 483 l 1
333 441 m 0
 292 441 256 414 224 376 c 1
 186 102 l 1
 210 94 230 89 260 89 c 0
 366 89 405 234 405 339 c 0
 405 417 374 441 333 441 c 0
EndSplineSet
Substitution2: "'smcp' Lowercase to Small Capitals lookup 24 subtable" b.sc
Substitution2: "'aalt' Access All Alternates lookup 0 subtable" b.sc
EndChar
StartChar: d
Encoding: 100 100 390
Width: 591
GlyphClass: 2
Flags: MW
HStem: -16 106<229 239.5> 0 21G<361 485 361 361> 441 105<266 319 198.5 337.5> 721 20G<589 589> 736 20G<451 451>
VStem: 37 146<155 240.5 155 268.5>
AnchorPoint: "Anchor-14" 298 265 basechar 0
AnchorPoint: "Anchor-13" 601 741 basechar 0
AnchorPoint: "Anchor-12" 344 741 basechar 0
AnchorPoint: "Anchor-11" 0 0 basechar 0
AnchorPoint: "Anchor-10" 257 0 basechar 0
LayerCount: 2
Back
Fore
SplineSet
451 756 m 1x6c
 589 741 l 1
 485 0 l 1
 361 0 l 1x74
 362 79 l 1
 328 26 275 -16 204 -16 c 0xac
 92 -16 37 66 37 197 c 0
 37 340 104 546 293 546 c 0
 345 546 386 523 414 491 c 1
 451 756 l 1x6c
319 441 m 0
 213 441 183 287 183 194 c 0
 183 116 209 90 249 90 c 0xac
 298 90 336 136 372 193 c 1
 401 396 l 1
 380 426 356 441 319 441 c 0
EndSplineSet
Substitution2: "'smcp' Lowercase to Small Capitals lookup 28 subtable" d.sc
Substitution2: "'aalt' Access All Alternates lookup 0 subtable" d.sc
EndChar
StartChar: f
Encoding: 102 102 447
Width: 342
GlyphClass: 2
Flags: MW
HStem: -220 21G<-40 -40> 430 100<40 108 26 123 262 357> 651 106<324.5 361>
VStem: -76 557
AnchorPoint: "Anchor-14" 0 0 basechar 0
AnchorPoint: "Anchor-13" 0 0 basechar 0
AnchorPoint: "Anchor-12" 321 741 basechar 0
AnchorPoint: "Anchor-11" 0 0 basechar 0
AnchorPoint: "Anchor-10" 89 -208 basechar 0
LayerCount: 2
Back
Fore
SplineSet
349 651 m 0
 300 651 276 627 269 577 c 2
 262 530 l 1
 387 530 l 1
 357 430 l 1
 248 430 l 1
 195 51 l 2
 172 -116 85 -173 -40 -220 c 1
 -76 -117 l 1
 -1 -87 41 -54 55 46 c 2
 108 430 l 1
 26 430 l 1
 40 530 l 1
 123 530 l 1
 130 585 l 2
 144 684 216 757 339 757 c 0
 399 757 444 738 481 714 c 1
 431 628 l 1
 403 646 373 651 349 651 c 0
EndSplineSet
Substitution2: "'smcp' Lowercase to Small Capitals lookup 28 subtable" f.sc
Substitution2: "'locl' Localized Forms in Latin lookup 11 subtable" f.loclEWE
AlternateSubs2: "'aalt' Access All Alternates lookup 1 subtable" f.loclEWE f.sc
EndChar

StartChar: h
Encoding: 104 104 173
Width: 571
GlyphClass: 2
Flags: MW
HStem: 0 21G<32 172 32 32 330 470 330 330> 429 117<319 446> 736 20G<277 277>
VStem: 384.04 142.34
AnchorPoint: "Anchor-11" 248 0 basechar 0
AnchorPoint: "Anchor-10" 0 0 basechar 0
AnchorPoint: "Anchor-9" 352 741 basechar 0
AnchorPoint: "Anchor-8" 0 0 basechar 0
LayerCount: 2
Fore
SplineSet
402 546 m 0
 490 546 538 484 524 383 c 2
 470 0 l 1
 330 0 l 1
 382 355 l 2
 391 417 371 429 340 429 c 0
 298 429 252 373 213 298 c 1
 172 0 l 1
 32 0 l 1
 136 741 l 1
 277 756 l 1
 232 437 l 1
 272 502 338 546 402 546 c 0
EndSplineSet
Substitution2: "'smcp' Lowercase to Small Capitals lookup 24 subtable" h.sc
Substitution2: "'aalt' Access All Alternates lookup 0 subtable" h.sc
EndChar

StartChar: i
Encoding: 105 105 176
Width: 278
GlyphClass: 2
Flags: MW
HStem: 0 21G<32 172 32 32> 510 20G<106 246 246 246> 637 166<187.5 218.5>
VStem: 118 169
AnchorPoint: "Anchor-11" 0 0 basechar 0
AnchorPoint: "Anchor-10" 0 0 basechar 0
AnchorPoint: "Anchor-9" 176 530 basechar 0
AnchorPoint: "Anchor-8" 163 0 basechar 0
LayerCount: 2
Fore
SplineSet
212 803 m 0
 264 803 294 765 287 716 c 0
 281 671 243 637 194 637 c 0
 142 637 112 675 118 724 c 0
 124 769 163 803 212 803 c 0
172 0 m 1
 32 0 l 1
 106 530 l 1
 246 530 l 1
 172 0 l 1
EndSplineSet
Substitution2: "'smcp' Lowercase to Small Capitals lookup 24 subtable" i.sc
Substitution2: "'locl' Localized Forms in Latin lookup 10 subtable" i.loclTRK
Substitution2: "'locl' Localized Forms in Latin lookup 8 subtable" i.loclTRK
Substitution2: "'locl' Localized Forms in Latin lookup 6 subtable" i.loclTRK
Substitution2: "'locl' Localized Forms in Latin lookup 3 subtable" i.loclTRK
Substitution2: "'locl' Localized Forms in Latin lookup 2 subtable" i.loclTRK
AlternateSubs2: "'aalt' Access All Alternates lookup 1 subtable" i.loclTRK i.sc
EndChar

StartChar: j
Encoding: 106 106 188
Width: 273
GlyphClass: 2
Flags: MW
HStem: -220 21G<-61 -61> 510 20G<102 242 242 242> 637 166<183.5 214.5>
VStem: 114 169
AnchorPoint: "Anchor-11" 0 0 basechar 0
AnchorPoint: "Anchor-10" 0 0 basechar 0
AnchorPoint: "Anchor-9" 172 530 basechar 0
AnchorPoint: "Anchor-8" 0 0 basechar 0
LayerCount: 2
Fore
SplineSet
208 803 m 0
 260 803 290 765 283 716 c 0
 277 671 239 637 190 637 c 0
 138 637 108 675 114 724 c 0
 120 769 159 803 208 803 c 0
174 51 m 2
 151 -116 65 -173 -61 -220 c 1
 -97 -117 l 1
 -22 -87 20 -54 34 46 c 2
 102 530 l 1
 242 530 l 1
 174 51 l 2
EndSplineSet
Substitution2: "'smcp' Lowercase to Small Capitals lookup 24 subtable" j.sc
Substitution2: "'aalt' Access All Alternates lookup 0 subtable" j.sc
EndChar

StartChar: k
Encoding: 107 107 191
Width: 562
GlyphClass: 2
Flags: MW
HStem: 0 21G<32 172 32 32 352 506 352 352> 445 101<337 454> 737 20G<278 278>
VStem: 408 143<380.5 413.5>
AnchorPoint: "Anchor-11" 258 0 basechar 0
AnchorPoint: "Anchor-10" 0 0 basechar 0
AnchorPoint: "Anchor-9" 0 0 basechar 0
AnchorPoint: "Anchor-8" 0 0 basechar 0
LayerCount: 2
Fore
SplineSet
235 455 m 1
 288 519 348 546 412 546 c 0
 496 546 551 495 551 423 c 0
 551 338 503 274 403 235 c 1
 506 0 l 1
 352 0 l 1
 249 257 l 1
 367 293 408 338 408 398 c 0
 408 429 390 445 359 445 c 0
 315 445 261 409 217 326 c 1
 172 0 l 1
 32 0 l 1
 136 741 l 1
 278 757 l 1
 235 455 l 1
EndSplineSet
Substitution2: "'smcp' Lowercase to Small Capitals lookup 24 subtable" k.sc
Substitution2: "'aalt' Access All Alternates lookup 0 subtable" k.sc
EndChar

StartChar: l
Encoding: 108 108 194
Width: 288
GlyphClass: 2
Flags: MW
HStem: -16 113<118 210.5> 737 20G<272 272>
VStem: 42.47 142.53
AnchorPoint: "Anchor-11" 131 0 basechar 0
AnchorPoint: "Anchor-10" 0 0 basechar 0
AnchorPoint: "Anchor-9" 201 741 basechar 0
AnchorPoint: "Anchor-8" 0 0 basechar 0
LayerCount: 2
Fore
SplineSet
185 135 m 2
 181 107 189 97 206 97 c 0
 215 97 225 100 235 104 c 1
 253 3 l 1
 225 -9 192 -16 160 -16 c 0
 76 -16 31 36 45 134 c 2
 131 741 l 1
 272 757 l 1
 185 135 l 2
EndSplineSet
Substitution2: "'smcp' Lowercase to Small Capitals lookup 24 subtable" l.sc
Substitution2: "'aalt' Access All Alternates lookup 0 subtable" l.sc
EndChar
StartChar: m
Encoding: 109 109 529
Width: 835
GlyphClass: 2
Flags: MW
HStem: 0 21G<32 172 32 32 313 452 313 313 595 734 595 595> 429 117<306.5 420.5> 510 20G<106 227 227 227>
VStem: 647.1 143.33
AnchorPoint: "Anchor-14" 0 0 basechar 0
AnchorPoint: "Anchor-13" 0 0 basechar 0
AnchorPoint: "Anchor-12" 463 530 basechar 0
AnchorPoint: "Anchor-11" 0 0 basechar 0
AnchorPoint: "Anchor-10" 382 0 basechar 0
LayerCount: 2
Back
Fore
SplineSet
673 546 m 0xd0
 755 546 802 484 788 383 c 2
 734 0 l 1
 595 0 l 1
 645 355 l 2
 654 417 635 429 609 429 c 0
 569 429 530 375 495 303 c 1
 452 0 l 1
 313 0 l 1
 363 355 l 2
 372 417 352 429 326 429 c 0xd0
 287 429 246 374 213 299 c 1
 172 0 l 1
 32 0 l 1
 106 530 l 1
 227 530 l 1xb0
 223 440 l 1
 267 505 324 546 390 546 c 0
 451 546 497 511 507 445 c 1
 551 508 610 546 673 546 c 0xd0
EndSplineSet
Substitution2: "'smcp' Lowercase to Small Capitals lookup 28 subtable" m.sc
Substitution2: "'aalt' Access All Alternates lookup 0 subtable" m.sc
EndChar

StartChar: q
Encoding: 113 113 222
Width: 574
GlyphClass: 2
Flags: MW
HStem: -221 21G<300 300> -16 106<226 233> 443 103<272.5 341.5>
VStem: 31 145<154.5 246.5 154.5 270.5>
LayerCount: 2
Fore
SplineSet
331 546 m 0
 400 546 470 531 542 493 c 1
 444 -206 l 1
 300 -221 l 1
 341 51 l 1
 317 20 265 -16 201 -16 c 0
 90 -16 31 67 31 193 c 0
 31 348 111 546 331 546 c 0
328 443 m 0
 217 443 176 300 176 193 c 0
 176 116 205 90 247 90 c 0
 289 90 323 121 356 169 c 1
 395 432 l 1
 372 440 355 443 328 443 c 0
EndSplineSet
Substitution2: "'smcp' Lowercase to Small Capitals lookup 24 subtable" q.sc
Substitution2: "'aalt' Access All Alternates lookup 0 subtable" q.sc
EndChar

StartChar: r
Encoding: 114 114 223
Width: 389
GlyphClass: 2
Flags: MW
HStem: 0 21G<32 172 32 32> 406 139<347 351.5> 510 20G<106 227 227 227> 517 20G<428 428>
VStem: 32 396
AnchorPoint: "Anchor-11" 102 0 basechar 0
AnchorPoint: "Anchor-10" 0 0 basechar 0
AnchorPoint: "Anchor-9" 268 530 basechar 0
AnchorPoint: "Anchor-8" 0 0 basechar 0
LayerCount: 2
Fore
SplineSet
375 545 m 0xc8
 395 545 411 542 428 537 c 1x98
 388 400 l 1
 372 404 360 406 343 406 c 0xc8
 277 406 239 343 207 254 c 1
 172 0 l 1
 32 0 l 1
 106 530 l 1
 227 530 l 1xa8
 224 429 l 1
 261 504 319 545 375 545 c 0xc8
EndSplineSet
Substitution2: "'smcp' Lowercase to Small Capitals lookup 24 subtable" r.sc
Substitution2: "'aalt' Access All Alternates lookup 0 subtable" r.sc
EndChar
StartChar: s
Encoding: 115 115 619
Width: 470
GlyphClass: 2
Flags: MW
HStem: -16 104<173 235 173 276> 443 103<243.5 290.5>
VStem: 50 140<377 408 377 423> 293 141<134 168.5>
AnchorPoint: "Anchor-14" 0 0 basechar 0
AnchorPoint: "Anchor-13" 0 0 basechar 0
AnchorPoint: "Anchor-12" 278 530 basechar 0
AnchorPoint: "Anchor-11" 0 0 basechar 0
AnchorPoint: "Anchor-10" 199 0 basechar 0
LayerCount: 2
Back
Fore
SplineSet
269 546 m 0
 346 546 410 519 458 479 c 1
 395 401 l 1
 357 428 312 443 269 443 c 0
 218 443 190 423 190 393 c 0
 190 361 215 351 293 325 c 0
 385 296 434 248 434 165 c 0
 434 62 351 -16 201 -16 c 0
 107 -16 31 21 -14 69 c 1
 59 144 l 1
 95 112 143 88 203 88 c 0
 267 88 293 119 293 149 c 0
 293 188 271 200 187 228 c 0
 93 259 50 303 50 380 c 0
 50 466 124 546 269 546 c 0
EndSplineSet
Substitution2: "'smcp' Lowercase to Small Capitals lookup 28 subtable" s.sc
Substitution2: "'sups' Superscript lookup 15 subtable" uni02E2
AlternateSubs2: "'aalt' Access All Alternates lookup 1 subtable" uni02E2 s.sc
EndChar

StartChar: v
Encoding: 118 118 250
Width: 499
GlyphClass: 2
Flags: MW
HStem: 0 21G<131 299 131 131> 0 111<230 230 230 299 131 230> 510 20G<35 185 185 185 391 539 539 539>
VStem: 35 504<530 530>
LayerCount: 2
Fore
SplineSet
299 0 m 1xb0
 131 0 l 1
 35 530 l 1
 185 530 l 1
 230 111 l 1x70
 391 530 l 1
 539 530 l 1
 299 0 l 1xb0
EndSplineSet
Substitution2: "'smcp' Lowercase to Small Capitals lookup 24 subtable" v.sc
Substitution2: "'aalt' Access All Alternates lookup 0 subtable" v.sc
EndChar

StartChar: x
Encoding: 120 120 256
Width: 496
GlyphClass: 2
Flags: MW
HStem: 0 21G<-44 109 -44 -44 311 466 311 311> 510 20G<47 202 202 202 365 517 517 517>
VStem: -44 561<0 530>
LayerCount: 2
Fore
SplineSet
335 278 m 1
 466 0 l 1
 311 0 l 1
 238 201 l 1
 109 0 l 1
 -44 0 l 1
 166 283 l 1
 47 530 l 1
 202 530 l 1
 260 354 l 1
 365 530 l 1
 517 530 l 1
 335 278 l 1
EndSplineSet
Substitution2: "'smcp' Lowercase to Small Capitals lookup 24 subtable" x.sc
Substitution2: "'aalt' Access All Alternates lookup 0 subtable" x.sc
EndChar
StartChar: z
Encoding: 122 122 712
Width: 445
GlyphClass: 2
Flags: MW
HStem: 0 110<166 375> 421 109<73 270 57 458>
VStem: -23 481
AnchorPoint: "Anchor-14" 0 0 basechar 0
AnchorPoint: "Anchor-13" 0 0 basechar 0
AnchorPoint: "Anchor-12" 265 530 basechar 0
AnchorPoint: "Anchor-11" 0 0 basechar 0
AnchorPoint: "Anchor-10" 176 0 basechar 0
LayerCount: 2
Back
Fore
SplineSet
458 530 m 1
 444 429 l 1
 166 110 l 1
 404 110 l 1
 375 0 l 1
 -23 0 l 1
 -10 102 l 1
 270 421 l 1
 57 421 l 1
 73 530 l 1
 458 530 l 1
EndSplineSet
Substitution2: "'smcp' Lowercase to Small Capitals lookup 28 subtable" z.sc
Substitution2: "'aalt' Access All Alternates lookup 0 subtable" z.sc
EndChar

StartChar: braceleft
Encoding: 123 123 1005
Width: 315
Flags: MW
HStem: -139 101<212 231> 291 117<29 40> 738 101<323 353>
VStem: 39.69 133.31 71.33 132.34
LayerCount: 2
Fore
SplineSet
353 738 m 1xe8
 293 738 271 719 265 675 c 2
 237 476 l 2
 225 390 187 365 124 347 c 1
 179 334 214 309 201 220 c 2xe8
 173 21 l 2
 167 -24 182 -38 242 -38 c 1
 231 -139 l 1xf0
 82 -139 27 -83 42 24 c 2
 69 213 l 2
 77 271 68 291 12 291 c 1
 29 408 l 1
 81 408 100 433 108 491 c 2
 135 680 l 2
 150 788 198 839 365 839 c 1
 353 738 l 1xe8
EndSplineSet
Substitution2: "'case' Case-Sensitive Forms lookup 25 subtable" braceleft.case
Substitution2: "'aalt' Access All Alternates lookup 0 subtable" braceleft.case
EndChar
StartChar: bar
Encoding: 124 124 2376
Width: 374
GlyphClass: 2
Flags: MW
HStem: -104 913<198 200 71 328>
VStem: 71 257
LayerCount: 2
Back
Fore
SplineSet
328 809 m 1
 200 -104 l 1
 71 -104 l 1
 198 809 l 1
 328 809 l 1
EndSplineSet
EndChar

StartChar: braceright
Encoding: 125 125 1006
Width: 314
Flags: MW
HStem: -139 101<-15 15 -15 56.5> 292 117<298.5 309> 738 101<107 126.5>
VStem: 134.31 132.48 165 133.29
LayerCount: 2
Fore
SplineSet
-15 -38 m 1xf0
 45 -38 67 -19 74 25 c 1
 101 224 l 2
 113 310 151 335 215 353 c 1
 159 366 124 391 137 480 c 2xf0
 165 679 l 2
 171 724 157 738 96 738 c 1
 107 839 l 1xe8
 256 839 311 783 296 676 c 2
 269 487 l 2
 261 429 271 409 326 409 c 1
 309 292 l 1
 257 292 238 267 230 209 c 2
 204 20 l 1
 188 -88 140 -139 -27 -139 c 1
 -15 -38 l 1xf0
EndSplineSet
Substitution2: "'case' Case-Sensitive Forms lookup 25 subtable" braceright.case
Substitution2: "'aalt' Access All Alternates lookup 0 subtable" braceright.case
EndChar
StartChar: exclamdown
Encoding: 161 161 2127
Width: 230
Flags: MW
HStem: -204 21G<-23 127 -23 -23> 335 171<122.5 156.5>
VStem: 55 169<404 437.5>
LayerCount: 2
Back
Fore
SplineSet
149 506 m 0
 193 506 224 474 224 430 c 0
 224 378 183 335 130 335 c 0
 86 335 55 368 55 412 c 0
 55 463 96 506 149 506 c 0
172 238 m 1
 127 -204 l 1
 -23 -204 l 1
 57 238 l 1
 172 238 l 1
EndSplineSet
Substitution2: "'case' Case-Sensitive Forms lookup 29 subtable" exclamdown.case
Substitution2: "'aalt' Access All Alternates lookup 0 subtable" exclamdown.case
EndChar

StartChar: cent
Encoding: 162 162 1062
Width: 470
Flags: MW
HStem: -14 21G<284 284> -7 21G<181 181> 436 254<279 341> 523 20G<362 362>
VStem: 33 146<164.5 251 164.5 271.5>
LayerCount: 2
Fore
SplineSet
430 43 m 1xa8
 386 12 338 -8 284 -14 c 1x98
 263 -159 l 1
 159 -159 l 1
 181 -7 l 1
 86 18 33 97 33 210 c 0
 33 333 96 503 258 539 c 1
 279 690 l 1
 382 690 l 1x68
 362 543 l 1
 411 536 453 515 488 481 c 1x58
 418 398 l 1
 388 425 359 436 323 436 c 0
 209 436 179 298 179 204 c 0
 179 125 214 98 268 98 c 0
 308 98 338 111 377 136 c 1
 430 43 l 1xa8
EndSplineSet
Substitution2: "'onum' Oldstyle Figures lookup 22 subtable" cent.osf
Substitution2: "'tnum' Tabular Numbers lookup 21 subtable" cent.tf
AlternateSubs2: "'aalt' Access All Alternates lookup 1 subtable" cent.tf cent.osf
EndChar

StartChar: sterling
Encoding: 163 163 1067
Width: 536
Flags: MW
HStem: 0 109.5 314 76<63 118 52 129 267 443> 579 108<349.5 396.5>
VStem: -7 562
LayerCount: 2
Fore
SplineSet
370 687 m 0
 456 687 515 654 555 590 c 1
 464 530 l 1
 441 567 416 579 377 579 c 0
 322 579 288 548 280 487 c 2
 267 390 l 1
 454 390 l 1
 443 314 l 1
 256 314 l 1
 244 230 l 2
 236 172 220 137 166 109 c 1
 471 110 l 1
 439 0 l 1
 -7 0 l 1
 6 105 l 1
 83 128 97 160 106 228 c 2
 118 314 l 1
 52 314 l 1
 63 390 l 1
 129 390 l 1
 143 492 l 2
 159 608 237 687 370 687 c 0
EndSplineSet
Substitution2: "'onum' Oldstyle Figures lookup 22 subtable" sterling.osf
Substitution2: "'tnum' Tabular Numbers lookup 21 subtable" sterling.tf
AlternateSubs2: "'aalt' Access All Alternates lookup 1 subtable" sterling.tf sterling.osf
EndChar
StartChar: yen
Encoding: 165 165 2214
Width: 552
GlyphClass: 2
Flags: MW
HStem: 0 197<169 197 65 309 169 169> 120 77<65 186 54 197 337 458> 273 78<86 186 86 208 76 186 391 480>
VStem: 53 561<674 674>
LayerCount: 2
Back
Fore
SplineSet
614 674 m 1xb0
 391 351 l 1
 491 351 l 1
 480 273 l 1
 348 273 l 1
 337 197 l 1
 469 197 l 1xb0
 458 120 l 1
 326 120 l 1x70
 309 0 l 1
 169 0 l 1xb0
 186 120 l 1
 54 120 l 1x70
 65 197 l 1
 197 197 l 1
 208 273 l 1
 76 273 l 1
 86 351 l 1
 186 351 l 1
 53 674 l 1
 200 674 l 1
 294 390 l 1
 467 674 l 1
 614 674 l 1xb0
EndSplineSet
Substitution2: "'onum' Oldstyle Figures lookup 26 subtable" yen.osf
Substitution2: "'tnum' Tabular Numbers lookup 25 subtable" yen.tf
AlternateSubs2: "'aalt' Access All Alternates lookup 1 subtable" yen.tf yen.osf
EndChar

StartChar: brokenbar
Encoding: 166 166 1219
Width: 374
Flags: MW
HStem: -104 913<198 200 71 328>
VStem: 71 257
LayerCount: 2
Fore
SplineSet
277 443 m 1
 147 443 l 1
 198 809 l 1
 328 809 l 1
 277 443 l 1
200 -104 m 1
 71 -104 l 1
 122 262 l 1
 252 262 l 1
 200 -104 l 1
EndSplineSet
EndChar
StartChar: section
Encoding: 167 167 2383
Width: 537
GlyphClass: 2
Flags: MW
HStem: -80 100<184 241.5 184 288.5> 586 100<305.5 360.5>
VStem: 59 128<298.5 323.5> 116 135<513.5 544 513.5 575.5> 298 135<60.5 92.5> 362 126<281.5 305>
LayerCount: 2
Back
Fore
SplineSet
353 455 m 0xd4
 438 427 488 385 488 313 c 0xd4
 488 250 449 209 388 175 c 1
 419 149 433 119 433 79 c 0
 433 0 371 -80 206 -80 c 0
 131 -80 68 -56 24 -24 c 1
 80 60 l 1
 120 33 162 20 206 20 c 0
 277 20 298 45 298 76 c 0
 298 109 278 122 193 152 c 0
 109 178 59 219 59 293 c 0xe8
 59 354 101 397 159 430 c 1
 130 456 116 487 116 524 c 0
 116 627 208 686 337 686 c 0
 409 686 475 660 521 626 c 1
 463 547 l 1
 423 574 382 586 339 586 c 0
 272 586 251 559 251 529 c 0
 251 498 270 483 353 455 c 0xd4
253 243 m 0xe4
 277 234 298 226 317 217 c 1
 348 244 362 268 362 291 c 0
 362 319 342 342 281 365 c 0
 260 372 242 379 226 387 c 1
 196 359 187 335 187 313 c 0
 187 284 203 263 253 243 c 0xe4
EndSplineSet
Substitution2: "'onum' Oldstyle Figures lookup 26 subtable" section.osf
Substitution2: "'tnum' Tabular Numbers lookup 25 subtable" section.tf
AlternateSubs2: "'aalt' Access All Alternates lookup 1 subtable" section.tf section.osf
EndChar
StartChar: dieresis
Encoding: 168 168 2522
Width: 430
Flags: MW
HStem: 644 148<154 181 377.5 404>
VStem: 94 147 317 147
LayerCount: 2
Back
Fore
SplineSet
175 792 m 0
 218 792 247 757 241 714 c 0
 235 675 202 644 160 644 c 0
 117 644 88 679 94 722 c 0
 99 761 133 792 175 792 c 0
398 792 m 0
 442 792 470 757 464 714 c 0
 458 675 425 644 383 644 c 0
 341 644 311 679 317 722 c 0
 322 761 357 792 398 792 c 0
EndSplineSet
Substitution2: "'case' Case-Sensitive Forms lookup 29 subtable" dieresis.case
Substitution2: "'smcp' Lowercase to Small Capitals lookup 28 subtable" dieresis.sc
Substitution2: "'c2sc' Capitals to Small Capitals lookup 27 subtable" dieresis.sc
AlternateSubs2: "'aalt' Access All Alternates lookup 1 subtable" dieresis.sc dieresis.case
EndChar

StartChar: copyright
Encoding: 169 169 1223
Width: 810
Flags: MW
HStem: 104 74<334.5 477 334.5 498> 238 82<393 432.5 393 436> 548 81<396 431> 561 20G<535 535> 689 73<334.5 477>
VStem: 73 85<361.5 504 361.5 524.5> 235 104<393.5 475.5 393.5 495.5> 653 84<361.5 504>
LayerCount: 2
Fore
SplineSet
406 762 m 0xdf
 590 762 737 616 737 433 c 0
 737 250 590 104 406 104 c 0
 222 104 73 250 73 433 c 0
 73 616 222 762 406 762 c 0xdf
406 689 m 0
 263 689 158 575 158 433 c 0
 158 290 263 178 406 178 c 0
 548 178 653 290 653 433 c 0
 653 575 548 689 406 689 c 0
408 629 m 0xef
 459 629 501 611 535 581 c 1xdf
 489 522 l 1
 465 542 444 548 418 548 c 0
 374 548 339 517 339 434 c 0
 339 353 370 320 416 320 c 0
 449 320 473 330 498 350 c 1
 539 289 l 1
 506 259 463 238 409 238 c 0
 304 238 235 307 235 434 c 0
 235 557 310 629 408 629 c 0xef
EndSplineSet
EndChar
StartChar: ordfeminine
Encoding: 170 170 1056
Width: 491
GlyphClass: 2
Flags: MW
HStem: 0 111<11 422 27 407> 266 92<150.5 250> 457 70<282 287 287 315> 599 93<272 289>
VStem: 67 131<383.5 412 383.5 418.5> 328 126<571 576>
LayerCount: 2
Back
Fore
SplineSet
295 692 m 0
 405 692 454 652 454 576 c 0
 454 566 453 554 452 543 c 2
 432 398 l 2
 428 376 428 360 453 352 c 1
 417 268 l 1
 370 272 339 288 322 325 c 1
 286 282 238 266 190 266 c 0
 111 266 67 318 67 383 c 0
 67 454 114 527 282 527 c 2
 325 527 l 1
 326 540 l 2
 328 550 328 556 328 561 c 0
 328 591 310 599 268 599 c 0
 240 599 198 591 154 578 c 1
 134 662 l 1
 190 682 249 692 295 692 c 0
315 457 m 1
 287 457 l 2
 220 457 198 429 198 395 c 0
 198 372 210 358 235 358 c 0
 265 358 289 372 307 395 c 1
 315 457 l 1
11 0 m 1
 27 111 l 1
 422 111 l 1
 407 0 l 1
 11 0 l 1
EndSplineSet
EndChar

StartChar: guillemotleft
Encoding: 171 171 1036
Width: 606
Flags: MW
HStem: 19 532<189 259 259 450>
VStem: 36 564<239 493>
LayerCount: 2
Fore
SplineSet
339 493 m 1
 182 285 l 1
 281 77 l 1
 189 19 l 1
 36 239 l 1
 47 330 l 1
 259 551 l 1
 339 493 l 1
600 493 m 1
 442 285 l 1
 541 77 l 1
 450 19 l 1
 296 239 l 1
 308 330 l 1
 519 551 l 1
 600 493 l 1
EndSplineSet
Substitution2: "'case' Case-Sensitive Forms lookup 25 subtable" guillemotleft.case
Substitution2: "'aalt' Access All Alternates lookup 0 subtable" guillemotleft.case
EndChar

StartChar: logicalnot
Encoding: 172 172 1105
Width: 514
Flags: MW
HStem: 271 112<67 348 51 480>
VStem: 51 429<271 383>
LayerCount: 2
Fore
SplineSet
443 120 m 1
 326 120 l 1
 348 271 l 1
 51 271 l 1
 67 383 l 1
 480 383 l 1
 443 120 l 1
EndSplineSet
Substitution2: "'onum' Oldstyle Figures lookup 22 subtable" logicalnot.osf
Substitution2: "'tnum' Tabular Numbers lookup 21 subtable" logicalnot.tf
AlternateSubs2: "'aalt' Access All Alternates lookup 1 subtable" logicalnot.tf logicalnot.osf
EndChar

StartChar: softhyphen
Encoding: 173 173 1028
Width: 397
Flags: MW
HStem: 257 112<60 350 44 366>
VStem: 44 322<257 369>
LayerCount: 2
Fore
SplineSet
60 369 m 1
 366 369 l 1
 350 257 l 1
 44 257 l 1
 60 369 l 1
EndSplineSet
Substitution2: "'case' Case-Sensitive Forms lookup 25 subtable" softhyphen.case
Substitution2: "'aalt' Access All Alternates lookup 0 subtable" softhyphen.case
EndChar
StartChar: uni00AD
Encoding: 173 173 2169
Width: 397
Flags: MW
HStem: 257 112<44 366 60 350>
VStem: 44 322<257 369>
LayerCount: 2
Back
Fore
SplineSet
44 257 m 1
 60 369 l 1
 366 369 l 1
 350 257 l 1
 44 257 l 1
EndSplineSet
Substitution2: "'case' Case-Sensitive Forms lookup 29 subtable" uni00AD.case
Substitution2: "'aalt' Access All Alternates lookup 0 subtable" uni00AD.case
EndChar
StartChar: macron
Encoding: 175 175 2526
Width: 352
Flags: MW
HStem: 658 100<98 378 85 392>
VStem: 85 307<658 758>
LayerCount: 2
Back
Fore
SplineSet
378 658 m 1
 85 658 l 1
 98 758 l 1
 392 758 l 1
 378 658 l 1
EndSplineSet
Substitution2: "'case' Case-Sensitive Forms lookup 29 subtable" macron.case
Substitution2: "'smcp' Lowercase to Small Capitals lookup 28 subtable" macron.sc
Substitution2: "'c2sc' Capitals to Small Capitals lookup 27 subtable" macron.sc
AlternateSubs2: "'aalt' Access All Alternates lookup 1 subtable" macron.sc macron.case
EndChar

StartChar: degree
Encoding: 176 176 1227
Width: 512
Flags: MW
HStem: 372 85<217 259 217 274> 624 84<245.5 288>
VStem: 79.25 346.47
LayerCount: 2
Fore
SplineSet
232 372 m 0
 145 372 66 437 81 545 c 0
 95 649 189 708 273 708 c 0
 360 708 439 645 424 536 c 0
 409 432 316 372 232 372 c 0
237 457 m 0
 281 457 318 490 326 545 c 0
 333 595 309 624 267 624 c 0
 224 624 187 592 179 537 c 0
 172 486 197 457 237 457 c 0
EndSplineSet
Substitution2: "'onum' Oldstyle Figures lookup 22 subtable" degree.osf
Substitution2: "'tnum' Tabular Numbers lookup 21 subtable" degree.tf
AlternateSubs2: "'aalt' Access All Alternates lookup 1 subtable" degree.tf degree.osf
EndChar
StartChar: plusminus
Encoding: 177 177 2275
Width: 514
GlyphClass: 2
Flags: MW
HStem: 0 111<18 439 34 423> 337 111<76 208 61 223 341 473 76 326>
VStem: 18 471<0 448>
LayerCount: 2
Back
Fore
SplineSet
363 602 m 1
 341 448 l 1
 489 448 l 1
 473 337 l 1
 326 337 l 1
 304 183 l 1
 186 183 l 1
 208 337 l 1
 61 337 l 1
 76 448 l 1
 223 448 l 1
 244 602 l 1
 363 602 l 1
18 0 m 1
 34 111 l 1
 439 111 l 1
 423 0 l 1
 18 0 l 1
EndSplineSet
Substitution2: "'onum' Oldstyle Figures lookup 26 subtable" plusminus.osf
Substitution2: "'tnum' Tabular Numbers lookup 25 subtable" plusminus.tf
AlternateSubs2: "'aalt' Access All Alternates lookup 1 subtable" plusminus.tf plusminus.osf
EndChar

StartChar: twosuperior
Encoding: 178 178 972
Width: 391
Flags: MW
HStem: 321 82 668 82<187 217>
VStem: 245 110<619 619>
LayerCount: 2
Fore
SplineSet
219 750 m 0
 320 750 365 689 355 620 c 0
 347 560 311 515 160 402 c 1
 334 404 l 1
 312 321 l 1
 25 321 l 1
 35 399 l 1
 197 534 238 570 245 619 c 0
 249 650 232 668 202 668 c 0
 169 668 146 654 118 624 c 1
 58 677 l 1
 99 722 155 750 219 750 c 0
EndSplineSet
EndChar
StartChar: uni00B3
Encoding: 179 179 2111
Width: 391
Flags: MW
HStem: 310 81<144.5 179 144.5 215> 503 74<159 175 136 182> 522 20G 670 80<192.5 220>
VStem: 235 108 251 106
LayerCount: 2
Back
Fore
SplineSet
221 750 m 0xd4
 319 750 365 700 357 638 c 0xd4
 350 590 316 557 253 542 c 1xb8
 310 538 352 505 343 435 c 0
 333 368 269 310 161 310 c 0
 92 310 43 336 14 377 c 1
 80 430 l 1
 103 401 130 391 159 391 c 0
 199 391 229 413 235 451 c 0
 240 489 219 503 175 503 c 2
 136 503 l 1
 159 577 l 1xd8
 182 577 l 2
 220 577 245 596 251 629 c 0
 255 655 236 670 204 670 c 0
 171 670 142 656 114 633 c 1
 67 694 l 1
 112 732 164 750 221 750 c 0xd4
EndSplineSet
EndChar

StartChar: acute
Encoding: 180 180 1252
Width: 321
Flags: MW
HStem: 626 201<118 316>
VStem: 89 268<699 718>
LayerCount: 2
Fore
SplineSet
357 718 m 1
 118 626 l 1
 89 699 l 1
 316 827 l 1
 357 718 l 1
EndSplineSet
Substitution2: "'case' Case-Sensitive Forms lookup 25 subtable" acute.case
Substitution2: "'smcp' Lowercase to Small Capitals lookup 24 subtable" acute.sc
Substitution2: "'c2sc' Capitals to Small Capitals lookup 23 subtable" acute.sc
Substitution2: "'locl' Localized Forms in Latin lookup 7 subtable" acute.loclPLK
AlternateSubs2: "'aalt' Access All Alternates lookup 1 subtable" acute.loclPLK acute.sc acute.case
EndChar

StartChar: uni00B5
Encoding: 181 181 1106
Width: 574
Flags: MW
HStem: -219 21G<1 1> -14 21G<357 357> -9 103<224 246> -2 21G<486 486> 510 20G<106 246 246 246 396 536 536 536>
VStem: 346 133.75
LayerCount: 2
Fore
SplineSet
487 180 m 2x9c
 476 99 479 41 486 -2 c 1x9c
 357 -14 l 1xcc
 347 17 346 39 346 72 c 1
 315 25 273 -9 219 -9 c 0
 188 -9 164 0 150 16 c 1
 157 -11 159 -43 149 -111 c 2
 136 -204 l 1
 1 -219 l 1
 106 530 l 1
 246 530 l 1
 194 159 l 2
 186 108 209 94 239 94 c 0
 274 94 312 113 346 166 c 1xac
 396 530 l 1
 536 530 l 1
 487 180 l 2x9c
EndSplineSet
EndChar
StartChar: paragraph
Encoding: 182 182 2380
Width: 766
GlyphClass: 2
Flags: MW
HStem: -221 21G<235 235 454 454> 590 102<471 567 471 471>
VStem: 98.47 606.53
LayerCount: 2
Back
Fore
SplineSet
390 692 m 1
 705 692 l 1
 579 -204 l 1
 454 -221 l 1
 567 590 l 1
 471 590 l 1
 360 -204 l 1
 235 -221 l 1
 303 268 l 1
 149 273 84 362 101 483 c 0
 120 615 225 695 389 692 c 1
 389 690 l 1
 390 692 l 1
EndSplineSet
EndChar
StartChar: cedilla
Encoding: 184 184 2520
Width: 304
Flags: MW
HStem: -257 80<48.5 77 48.5 120> -109 125<61 61.5>
VStem: 115 103
LayerCount: 2
Back
Fore
SplineSet
140 16 m 1
 129 -50 l 1
 190 -56 218 -90 218 -137 c 0
 218 -190 176 -257 64 -257 c 0
 19 -257 -17 -243 -39 -226 c 1
 2 -161 l 1
 19 -171 36 -177 61 -177 c 0
 93 -177 114 -166 115 -142 c 0
 116 -117 93 -109 30 -109 c 1
 61 16 l 1
 140 16 l 1
EndSplineSet
Substitution2: "'case' Case-Sensitive Forms lookup 29 subtable" cedilla.case
Substitution2: "'smcp' Lowercase to Small Capitals lookup 28 subtable" cedilla.sc
Substitution2: "'c2sc' Capitals to Small Capitals lookup 27 subtable" cedilla.sc
AlternateSubs2: "'aalt' Access All Alternates lookup 1 subtable" cedilla.sc cedilla.case
EndChar

StartChar: onesuperior
Encoding: 185 185 971
Width: 391
Flags: MW
HStem: 721 20G<221 317 317 317>
VStem: 61 256<654 741>
LayerCount: 2
Fore
SplineSet
258 321 m 1
 153 321 l 1
 197 638 l 1
 99 582 l 1
 61 654 l 1
 221 741 l 1
 317 741 l 1
 258 321 l 1
EndSplineSet
EndChar
StartChar: ordmasculine
Encoding: 186 186 1057
Width: 491
GlyphClass: 2
Flags: MW
HStem: 0 111<6 427 22 411> 266 94<237 296.5 237 342> 598 94<255.5 315>
VStem: 67 131<407.5 465.5 407.5 492> 354 130<496 552>
LayerCount: 2
Back
Fore
SplineSet
299 692 m 0
 414 692 484 629 484 518 c 0
 484 414 431 266 253 266 c 0
 138 266 67 329 67 439 c 0
 67 545 121 692 299 692 c 0
296 598 m 0
 215 598 198 498 198 433 c 0
 198 382 218 360 256 360 c 0
 337 360 354 465 354 527 c 0
 354 577 334 598 296 598 c 0
6 0 m 1
 22 111 l 1
 427 111 l 1
 411 0 l 1
 6 0 l 1
EndSplineSet
EndChar

StartChar: guillemotright
Encoding: 187 187 1037
Width: 603
Flags: MW
HStem: 19 532<92 162 162 348>
VStem: 12 560<77 330>
LayerCount: 2
Fore
SplineSet
316 330 m 1
 305 239 l 1
 92 19 l 1
 12 77 l 1
 170 285 l 1
 70 493 l 1
 162 551 l 1
 316 330 l 1
572 330 m 1
 561 239 l 1
 348 19 l 1
 268 77 l 1
 426 285 l 1
 327 493 l 1
 418 551 l 1
 572 330 l 1
EndSplineSet
Substitution2: "'case' Case-Sensitive Forms lookup 25 subtable" guillemotright.case
Substitution2: "'aalt' Access All Alternates lookup 0 subtable" guillemotright.case
EndChar
StartChar: onequarter
Encoding: 188 188 2066
Width: 933
Flags: MW
HStem: 0 167<720 744 665 821 720 720> 87 80<665 732 844 879> 672 20G<214 310 310 310> 737 20G<695 695>
VStem: 54 837<167 605>
LayerCount: 2
Back
Fore
SplineSet
695 757 m 1xb8
 773 715 l 1
 258 -84 l 1
 179 -42 l 1
 695 757 l 1xb8
251 272 m 1
 146 272 l 1
 190 589 l 1
 92 533 l 1
 54 605 l 1
 214 692 l 1
 310 692 l 1
 251 272 l 1
891 167 m 1
 879 87 l 1
 833 87 l 1x78
 821 0 l 1
 720 0 l 1xb8
 732 87 l 1
 544 87 l 1
 554 159 l 1x78
 712 429 l 1
 798 396 l 1
 665 167 l 1
 744 167 l 1
 774 264 l 1
 858 264 l 1
 844 167 l 1
 891 167 l 1
EndSplineSet
EndChar

StartChar: onehalf
Encoding: 189 189 925
Width: 933
Flags: MW
HStem: 0 82 347 82<721 751> 672 20G<214 310 310 310> 737 20G<695 695>
VStem: 779 110<298 298>
LayerCount: 2
Fore
SplineSet
773 715 m 1
 258 -84 l 1
 179 -42 l 1
 695 757 l 1
 773 715 l 1
251 272 m 1
 146 272 l 1
 190 589 l 1
 92 533 l 1
 54 605 l 1
 214 692 l 1
 310 692 l 1
 251 272 l 1
753 429 m 0
 854 429 899 368 889 299 c 0
 881 239 845 194 694 81 c 1
 868 83 l 1
 846 0 l 1
 559 0 l 1
 569 78 l 1
 731 213 772 249 779 298 c 0
 783 329 766 347 736 347 c 0
 703 347 680 333 652 303 c 1
 592 356 l 1
 633 401 689 429 753 429 c 0
EndSplineSet
EndChar
StartChar: threequarters
Encoding: 190 190 2067
Width: 933
Flags: MW
HStem: 0 167<720 744 665 821 720 720> 87 80<665 732 844 879> 261 81<137.5 172 137.5 208> 454 74<152 168 129 175> 621 80<185.5 213> 737 20G<695 695>
VStem: 228 108 244 106
LayerCount: 2
Back
Fore
SplineSet
695 757 m 1xbe
 773 715 l 1
 258 -84 l 1
 179 -42 l 1
 695 757 l 1xbe
336 386 m 0
 326 319 262 261 154 261 c 0
 85 261 36 287 7 328 c 1
 73 381 l 1
 96 352 123 342 152 342 c 0
 192 342 222 364 228 402 c 0
 233 440 212 454 168 454 c 2
 129 454 l 1
 152 528 l 1xbe
 175 528 l 2
 213 528 238 547 244 580 c 0
 248 606 229 621 197 621 c 0
 164 621 135 607 107 584 c 1
 60 645 l 1
 105 683 157 701 214 701 c 0
 312 701 358 651 350 589 c 0xbd
 343 541 309 508 246 493 c 1
 303 489 345 456 336 386 c 0
891 167 m 1
 879 87 l 1
 833 87 l 1x7e
 821 0 l 1
 720 0 l 1xbe
 732 87 l 1
 544 87 l 1
 554 159 l 1x7e
 712 429 l 1
 798 396 l 1
 665 167 l 1
 744 167 l 1
 774 264 l 1
 858 264 l 1
 844 167 l 1
 891 167 l 1
EndSplineSet
EndChar

StartChar: questiondown
Encoding: 191 191 992
Width: 467
Flags: MW
HStem: -221 113<163.5 206 163.5 208.5> 337 171<251.5 284>
VStem: -29 148<-75 -1.5 -75 23.5> 183 169<406 439.5> 204 130<151.5 215 121.5 218>
LayerCount: 2
Fore
SplineSet
259 337 m 0xf0
 214 337 183 371 183 414 c 0
 183 465 226 508 277 508 c 0
 321 508 352 474 352 431 c 0
 352 381 309 337 259 337 c 0xf0
161 -221 m 0
 33 -221 -29 -154 -29 -75 c 0
 -29 122 204 88 204 215 c 0
 204 221 204 230 202 238 c 1
 326 258 l 1
 331 242 334 222 334 208 c 0xe8
 334 35 119 56 119 -59 c 0
 119 -91 143 -108 184 -108 c 0
 228 -108 273 -86 316 -43 c 1
 397 -118 l 1
 332 -184 256 -221 161 -221 c 0
EndSplineSet
Substitution2: "'case' Case-Sensitive Forms lookup 25 subtable" questiondown.case
Substitution2: "'aalt' Access All Alternates lookup 0 subtable" questiondown.case
EndChar
StartChar: Agrave
Encoding: 192 192 23
Width: 577
GlyphClass: 2
Flags: MW
HStem: 0 21G<-46 105 -46 -46 397 549 397 397> 155 109<206 368 206 380 164 368> 590 102<332 332> 672 20G<260 437 437 437>
VStem: -46 595<0 0>
AnchorPoint: "Anchor-14" 0 0 basechar 0
AnchorPoint: "Anchor-13" 0 0 basechar 0
AnchorPoint: "Anchor-12" 374 946 basechar 0
AnchorPoint: "Anchor-11" 492 0 basechar 0
AnchorPoint: "Anchor-10" 251 0 basechar 0
LayerCount: 2
Back
Fore
SplineSet
505 822 m 1xd8
 464 749 l 1
 238 838 l 1
 299 946 l 1
 505 822 l 1xd8
397 0 m 1
 380 155 l 1
 164 155 l 1
 105 0 l 1
 -46 0 l 1
 260 692 l 1
 437 692 l 1
 549 0 l 1
 397 0 l 1
206 264 m 1
 368 264 l 1
 332 590 l 1xe8
 206 264 l 1
EndSplineSet
Substitution2: "'c2sc' Capitals to Small Capitals lookup 27 subtable" agrave.sc
Substitution2: "'aalt' Access All Alternates lookup 0 subtable" agrave.sc
Position2: "'cpsp' Capital Spacing lookup 0 subtable" dx=5 dy=0 dh=10 dv=0
EndChar
StartChar: Aacute
Encoding: 193 193 3
Width: 577
GlyphClass: 2
Flags: MW
HStem: 0 21G<-46 105 -46 -46 397 549 397 397> 155 109<206 368 206 380 164 368> 590 102<332 332> 672 20G<260 437 437 437>
VStem: -46 595<0 0>
AnchorPoint: "Anchor-14" 0 0 basechar 0
AnchorPoint: "Anchor-13" 0 0 basechar 0
AnchorPoint: "Anchor-12" 373 946 basechar 0
AnchorPoint: "Anchor-11" 492 0 basechar 0
AnchorPoint: "Anchor-10" 251 0 basechar 0
LayerCount: 2
Back
Fore
SplineSet
506 837 m 1xd8
 270 749 l 1
 236 821 l 1
 456 946 l 1
 506 837 l 1xd8
397 0 m 1
 380 155 l 1
 164 155 l 1
 105 0 l 1
 -46 0 l 1
 260 692 l 1
 437 692 l 1
 549 0 l 1
 397 0 l 1
206 264 m 1
 368 264 l 1
 332 590 l 1xe8
 206 264 l 1
EndSplineSet
Substitution2: "'c2sc' Capitals to Small Capitals lookup 27 subtable" aacute.sc
Substitution2: "'aalt' Access All Alternates lookup 0 subtable" aacute.sc
Position2: "'cpsp' Capital Spacing lookup 0 subtable" dx=5 dy=0 dh=10 dv=0
EndChar
StartChar: Acircumflex
Encoding: 194 194 11
Width: 577
GlyphClass: 2
Flags: MW
HStem: 0 21G<-46 105 -46 -46 397 549 397 397> 155 109<206 368 206 380 164 368> 590 102<332 332> 672 20G<260 437 437 437>
VStem: -46 595<0 0>
AnchorPoint: "Anchor-14" 0 0 basechar 0
AnchorPoint: "Anchor-13" 472 819 basechar 0
AnchorPoint: "Anchor-12" 378 940 basechar 0
AnchorPoint: "Anchor-11" 492 0 basechar 0
AnchorPoint: "Anchor-10" 251 0 basechar 0
LayerCount: 2
Back
Fore
SplineSet
368 840 m 1xd8
 227 756 l 1
 180 816 l 1
 335 940 l 1
 421 940 l 1
 542 816 l 1
 486 756 l 1
 368 840 l 1xd8
397 0 m 1
 380 155 l 1
 164 155 l 1
 105 0 l 1
 -46 0 l 1
 260 692 l 1
 437 692 l 1
 549 0 l 1
 397 0 l 1
206 264 m 1
 368 264 l 1
 332 590 l 1xe8
 206 264 l 1
EndSplineSet
Substitution2: "'c2sc' Capitals to Small Capitals lookup 27 subtable" acircumflex.sc
Substitution2: "'aalt' Access All Alternates lookup 0 subtable" acircumflex.sc
Position2: "'cpsp' Capital Spacing lookup 0 subtable" dx=5 dy=0 dh=10 dv=0
EndChar
StartChar: Atilde
Encoding: 195 195 32
Width: 577
GlyphClass: 2
Flags: MW
HStem: 0 21G<-46 105 -46 -46 397 549 397 397> 155 109<206 368 206 380 164 368> 590 102<332 332> 672 20G<260 437 437 437> 766 102<411.5 438 411.5 447.5> 812 102<300.5 328>
VStem: -46 601
AnchorPoint: "Anchor-14" 0 0 basechar 0
AnchorPoint: "Anchor-13" 0 0 basechar 0
AnchorPoint: "Anchor-12" 373 914 basechar 0
AnchorPoint: "Anchor-11" 492 0 basechar 0
AnchorPoint: "Anchor-10" 251 0 basechar 0
LayerCount: 2
Back
Fore
SplineSet
313 812 m 0xd6
 288 812 272 795 252 765 c 1
 184 805 l 1
 216 865 263 914 319 914 c 0xd6
 376 914 396 868 427 868 c 0
 449 868 466 884 487 913 c 1
 555 874 l 1
 521 809 473 766 422 766 c 0xda
 369 766 343 812 313 812 c 0xd6
260 692 m 1
 437 692 l 1
 549 0 l 1
 397 0 l 1
 380 155 l 1
 164 155 l 1
 105 0 l 1
 -46 0 l 1
 260 692 l 1
206 264 m 1
 368 264 l 1
 332 590 l 1xe6
 206 264 l 1
EndSplineSet
Substitution2: "'c2sc' Capitals to Small Capitals lookup 27 subtable" atilde.sc
Substitution2: "'aalt' Access All Alternates lookup 0 subtable" atilde.sc
Position2: "'cpsp' Capital Spacing lookup 0 subtable" dx=5 dy=0 dh=10 dv=0
EndChar
StartChar: Adieresis
Encoding: 196 196 18
Width: 577
GlyphClass: 2
Flags: MW
HStem: 0 21G<-46 105 -46 -46 397 549 397 397> 155 109<206 368 206 380 164 368> 590 102<332 332> 672 20G<260 437 437 437> 770 148<242 269 465.5 492>
VStem: 182 147 405 147
AnchorPoint: "Anchor-14" 0 0 basechar 0
AnchorPoint: "Anchor-13" 0 0 basechar 0
AnchorPoint: "Anchor-12" 374 918 basechar 0
AnchorPoint: "Anchor-11" 492 0 basechar 0
AnchorPoint: "Anchor-10" 251 0 basechar 0
LayerCount: 2
Back
Fore
SplineSet
248 770 m 0xde
 205 770 176 805 182 848 c 0
 187 887 221 918 263 918 c 0
 306 918 335 883 329 840 c 0
 323 801 290 770 248 770 c 0xde
486 918 m 0
 530 918 558 883 552 840 c 0
 546 801 513 770 471 770 c 0
 429 770 399 805 405 848 c 0
 410 887 445 918 486 918 c 0
260 692 m 1
 437 692 l 1
 549 0 l 1
 397 0 l 1
 380 155 l 1
 164 155 l 1
 105 0 l 1
 -46 0 l 1
 260 692 l 1
206 264 m 1
 368 264 l 1
 332 590 l 1xe4
 206 264 l 1
EndSplineSet
Substitution2: "'c2sc' Capitals to Small Capitals lookup 27 subtable" adieresis.sc
Substitution2: "'aalt' Access All Alternates lookup 0 subtable" adieresis.sc
Position2: "'cpsp' Capital Spacing lookup 0 subtable" dx=5 dy=0 dh=10 dv=0
EndChar

StartChar: Aring
Encoding: 197 197 9
Width: 577
GlyphClass: 2
Flags: MW
HStem: 0 21G<-46 105 -46 -46 397 397 397 549> 155 109<207 368 207 380 165 368> 590 102<332 332> 672 20G<260 437 437 437> 735 74<350.5 378.5 350.5 397> 913 73<366 394.5>
VStem: 242 83 420 83
AnchorPoint: "Anchor-11" 0 0 basechar 0
AnchorPoint: "Anchor-10" 107 530 basechar 0
AnchorPoint: "Anchor-9" 349 692 basechar 0
AnchorPoint: "Anchor-8" 492 0 basechar 0
LayerCount: 2
Fore
SplineSet
358 735 m 0xdf
 276 735 232 795 242 865 c 0
 251 931 309 986 387 986 c 0
 468 986 512 927 503 857 c 0
 494 791 436 735 358 735 c 0xdf
325 857 m 0
 320 826 337 809 364 809 c 0
 393 809 414 829 420 865 c 0
 424 895 408 913 381 913 c 0
 351 913 330 894 325 857 c 0
380 155 m 1
 165 155 l 1
 105 0 l 1
 -46 0 l 1
 260 692 l 1
 437 692 l 1
 549 0 l 1
 397 0 l 1
 380 155 l 1
368 264 m 1
 332 590 l 1xef
 207 264 l 1
 368 264 l 1
EndSplineSet
Substitution2: "'c2sc' Capitals to Small Capitals lookup 23 subtable" aring.sc
Substitution2: "'aalt' Access All Alternates lookup 0 subtable" aring.sc
Position2: "'cpsp' Capital Spacing lookup 0 subtable" dx=5 dy=0 dh=10 dv=0
EndChar

StartChar: AE
Encoding: 198 198 11
Width: 826
GlyphClass: 2
Flags: MW
HStem: 0 108<541 752> 155 109<227 398 227 403 174 398> 297 106<527 748 527 527> 585 107<505 505 505 782>
VStem: 389 123 407.5 126.5
AnchorPoint: "Anchor-11" 0 0 basechar 0
AnchorPoint: "Anchor-10" 0 0 basechar 0
AnchorPoint: "Anchor-9" 535 692 basechar 0
AnchorPoint: "Anchor-8" 0 0 basechar 0
LayerCount: 2
Fore
SplineSet
505 585 m 1xf8
 519 403 l 1xf8
 762 403 l 1
 748 297 l 1
 527 297 l 1
 541 108 l 1
 768 108 l 1
 752 0 l 1
 412 0 l 1
 403 155 l 1xf4
 174 155 l 1
 100 0 l 1
 -56 0 l 1
 303 692 l 1
 812 692 l 1
 782 585 l 1
 505 585 l 1xf8
398 264 m 1
 380 583 l 1
 227 264 l 1
 398 264 l 1
EndSplineSet
Substitution2: "'c2sc' Capitals to Small Capitals lookup 23 subtable" ae.sc
Substitution2: "'aalt' Access All Alternates lookup 0 subtable" ae.sc
Position2: "'cpsp' Capital Spacing lookup 0 subtable" dx=5 dy=0 dh=10 dv=0
EndChar
StartChar: Ccedilla
Encoding: 199 199 45
Width: 563
GlyphClass: 2
Flags: MW
HStem: -257 80<254.5 283 254.5 326> -14 21G<341 341> -14 114<341 341> -13 21G<260 260> 597 111<320.5 421>
VStem: 44 151<208 332 208 363.5> 321 103
AnchorPoint: "Anchor-14" 0 0 basechar 0
AnchorPoint: "Anchor-13" 0 0 basechar 0
AnchorPoint: "Anchor-12" 407 692 basechar 0
AnchorPoint: "Anchor-11" 0 0 basechar 0
AnchorPoint: "Anchor-10" 296 -257 basechar 0
LayerCount: 2
Back
Fore
SplineSet
526 69 m 1xae
 482 31 418 -5 341 -14 c 1
 335 -50 l 1xce
 396 -56 424 -90 424 -137 c 0
 424 -190 382 -257 270 -257 c 0
 225 -257 189 -243 167 -226 c 1
 208 -161 l 1
 225 -171 242 -177 267 -177 c 0
 299 -177 320 -166 321 -142 c 0
 322 -117 299 -109 236 -109 c 1
 260 -13 l 1x9e
 127 5 44 102 44 269 c 0
 44 458 139 708 394 708 c 0
 482 708 547 679 595 628 c 1
 514 549 l 1
 480 581 444 597 398 597 c 0
 243 597 195 397 195 267 c 0
 195 149 246 100 324 100 c 0
 382 100 426 129 469 159 c 1
 526 69 l 1xae
EndSplineSet
Substitution2: "'c2sc' Capitals to Small Capitals lookup 27 subtable" ccedilla.sc
Substitution2: "'aalt' Access All Alternates lookup 0 subtable" ccedilla.sc
Position2: "'cpsp' Capital Spacing lookup 0 subtable" dx=5 dy=0 dh=10 dv=0
EndChar

StartChar: Egrave
Encoding: 200 200 31
Width: 520
GlyphClass: 2
Flags: MW
HStem: 0 108<196 444> 299 106<237 438 223 451> 585 107<262 509 262 262>
VStem: 36 503
AnchorPoint: "Anchor-11" 240 0 basechar 0
AnchorPoint: "Anchor-10" 3 534 basechar 0
AnchorPoint: "Anchor-9" 338 692 basechar 0
AnchorPoint: "Anchor-8" 414 0 basechar 0
LayerCount: 2
Fore
SplineSet
495 822 m 1
 454 749 l 1
 228 838 l 1
 289 946 l 1
 495 822 l 1
509 585 m 1
 262 585 l 1
 237 405 l 1
 451 405 l 1
 438 299 l 1
 223 299 l 1
 196 108 l 1
 459 108 l 1
 444 0 l 1
 36 0 l 1
 133 692 l 1
 539 692 l 1
 509 585 l 1
EndSplineSet
Substitution2: "'c2sc' Capitals to Small Capitals lookup 23 subtable" egrave.sc
Substitution2: "'aalt' Access All Alternates lookup 0 subtable" egrave.sc
Position2: "'cpsp' Capital Spacing lookup 0 subtable" dx=5 dy=0 dh=10 dv=0
EndChar
StartChar: Eacute
Encoding: 201 201 66
Width: 521
GlyphClass: 2
Flags: MW
HStem: 0 108<196 445> 299 106<237 438 223 452> 585 107<263 509 263 263>
VStem: 36 504
AnchorPoint: "Anchor-14" 0 0 basechar 0
AnchorPoint: "Anchor-13" 0 0 basechar 0
AnchorPoint: "Anchor-12" 362 946 basechar 0
AnchorPoint: "Anchor-11" 415 0 basechar 0
AnchorPoint: "Anchor-10" 241 0 basechar 0
LayerCount: 2
Back
Fore
SplineSet
445 946 m 1
 495 837 l 1
 259 749 l 1
 225 821 l 1
 445 946 l 1
540 692 m 1
 509 585 l 1
 263 585 l 1
 237 405 l 1
 452 405 l 1
 438 299 l 1
 223 299 l 1
 196 108 l 1
 460 108 l 1
 445 0 l 1
 36 0 l 1
 133 692 l 1
 540 692 l 1
EndSplineSet
Substitution2: "'c2sc' Capitals to Small Capitals lookup 27 subtable" eacute.sc
Substitution2: "'aalt' Access All Alternates lookup 0 subtable" eacute.sc
Position2: "'cpsp' Capital Spacing lookup 0 subtable" dx=5 dy=0 dh=10 dv=0
EndChar
StartChar: Ecircumflex
Encoding: 202 202 70
Width: 521
GlyphClass: 2
Flags: MW
HStem: 0 108<196 445> 299 106<237 438 223 452> 585 107<263 509 263 263>
VStem: 36 504
AnchorPoint: "Anchor-14" 0 0 basechar 0
AnchorPoint: "Anchor-13" 461 819 basechar 0
AnchorPoint: "Anchor-12" 367 940 basechar 0
AnchorPoint: "Anchor-11" 415 0 basechar 0
AnchorPoint: "Anchor-10" 241 0 basechar 0
LayerCount: 2
Back
Fore
SplineSet
475 756 m 1
 357 840 l 1
 216 756 l 1
 169 816 l 1
 324 940 l 1
 410 940 l 1
 531 816 l 1
 475 756 l 1
540 692 m 1
 509 585 l 1
 263 585 l 1
 237 405 l 1
 452 405 l 1
 438 299 l 1
 223 299 l 1
 196 108 l 1
 460 108 l 1
 445 0 l 1
 36 0 l 1
 133 692 l 1
 540 692 l 1
EndSplineSet
Substitution2: "'c2sc' Capitals to Small Capitals lookup 27 subtable" ecircumflex.sc
Substitution2: "'aalt' Access All Alternates lookup 0 subtable" ecircumflex.sc
Position2: "'cpsp' Capital Spacing lookup 0 subtable" dx=5 dy=0 dh=10 dv=0
EndChar

StartChar: Edieresis
Encoding: 203 203 29
Width: 520
GlyphClass: 2
Flags: MW
HStem: 0 108<196 444> 299 106<237 438 223 451> 585 107<262 509 262 262> 770 148<234 260 457.5 483.5>
VStem: 173 147 397 146
AnchorPoint: "Anchor-11" 240 0 basechar 0
AnchorPoint: "Anchor-10" 3 534 basechar 0
AnchorPoint: "Anchor-9" 358 846 basechar 0
AnchorPoint: "Anchor-8" 414 0 basechar 0
LayerCount: 2
Fore
SplineSet
254 918 m 0
 298 918 327 883 320 840 c 1
 315 801 280 770 240 770 c 0
 197 770 168 805 173 848 c 1
 179 887 214 918 254 918 c 0
477 918 m 0
 521 918 550 883 543 840 c 1
 538 801 504 770 463 770 c 0
 420 770 391 805 397 848 c 0
 402 887 438 918 477 918 c 0
509 585 m 1
 262 585 l 1
 237 405 l 1
 451 405 l 1
 438 299 l 1
 223 299 l 1
 196 108 l 1
 459 108 l 1
 444 0 l 1
 36 0 l 1
 133 692 l 1
 539 692 l 1
 509 585 l 1
EndSplineSet
Substitution2: "'c2sc' Capitals to Small Capitals lookup 23 subtable" edieresis.sc
Substitution2: "'aalt' Access All Alternates lookup 0 subtable" edieresis.sc
Position2: "'cpsp' Capital Spacing lookup 0 subtable" dx=5 dy=0 dh=10 dv=0
EndChar

StartChar: Igrave
Encoding: 204 204 50
Width: 291
GlyphClass: 2
Flags: MW
HStem: 0 21G<36 182 36 36> 672 20G<133 279 279 279>
VStem: 36 326
AnchorPoint: "Anchor-11" 0 0 basechar 0
AnchorPoint: "Anchor-10" 3 534 basechar 0
AnchorPoint: "Anchor-9" 206 692 basechar 0
AnchorPoint: "Anchor-8" 170 0 basechar 0
LayerCount: 2
Fore
SplineSet
362 822 m 1
 321 749 l 1
 95 838 l 1
 156 946 l 1
 362 822 l 1
182 0 m 1
 36 0 l 1
 133 692 l 1
 279 692 l 1
 182 0 l 1
EndSplineSet
Substitution2: "'c2sc' Capitals to Small Capitals lookup 23 subtable" igrave.sc
Substitution2: "'aalt' Access All Alternates lookup 0 subtable" igrave.sc
Position2: "'cpsp' Capital Spacing lookup 0 subtable" dx=5 dy=0 dh=10 dv=0
EndChar
StartChar: Iacute
Encoding: 205 205 117
Width: 290
GlyphClass: 2
Flags: MW
HStem: 0 21G<36 181 36 36> 672 20G<133 278 278 278>
VStem: 36 326
AnchorPoint: "Anchor-14" 0 0 basechar 0
AnchorPoint: "Anchor-13" 0 0 basechar 0
AnchorPoint: "Anchor-12" 229 946 basechar 0
AnchorPoint: "Anchor-11" 158 0 basechar 0
AnchorPoint: "Anchor-10" 108 0 basechar 0
LayerCount: 2
Back
Fore
SplineSet
312 946 m 1
 362 837 l 1
 126 749 l 1
 92 821 l 1
 312 946 l 1
278 692 m 1
 181 0 l 1
 36 0 l 1
 133 692 l 1
 278 692 l 1
EndSplineSet
Substitution2: "'c2sc' Capitals to Small Capitals lookup 27 subtable" iacute.sc
Substitution2: "'aalt' Access All Alternates lookup 0 subtable" iacute.sc
Position2: "'cpsp' Capital Spacing lookup 0 subtable" dx=5 dy=0 dh=10 dv=0
EndChar

StartChar: Icircumflex
Encoding: 206 206 47
Width: 291
GlyphClass: 2
Flags: MW
HStem: 0 21G<36 182 36 36> 672 20G<133 279 279 279>
VStem: 36 373
AnchorPoint: "Anchor-11" 0 0 basechar 0
AnchorPoint: "Anchor-10" 3 534 basechar 0
AnchorPoint: "Anchor-9" 206 692 basechar 0
AnchorPoint: "Anchor-8" 170 0 basechar 0
LayerCount: 2
Fore
SplineSet
235 840 m 1
 94 756 l 1
 47 816 l 1
 202 940 l 1
 288 940 l 1
 409 816 l 1
 353 756 l 1
 235 840 l 1
182 0 m 1
 36 0 l 1
 133 692 l 1
 279 692 l 1
 182 0 l 1
EndSplineSet
Substitution2: "'c2sc' Capitals to Small Capitals lookup 23 subtable" icircumflex.sc
Substitution2: "'aalt' Access All Alternates lookup 0 subtable" icircumflex.sc
Position2: "'cpsp' Capital Spacing lookup 0 subtable" dx=5 dy=0 dh=10 dv=0
EndChar

StartChar: Eth
Encoding: 208 208 21
Width: 651
GlyphClass: 2
Flags: MW
HStem: 0 108<205 242> 307 92<34 88 22 101 246 375> 584 108<272 319 319 330 272 272>
VStem: 481 149<359 494.5>
AnchorPoint: "Anchor-11" 0 0 basechar 0
AnchorPoint: "Anchor-10" 0 0 basechar 0
AnchorPoint: "Anchor-9" 363 692 basechar 0
AnchorPoint: "Anchor-8" 0 0 basechar 0
LayerCount: 2
Fore
SplineSet
319 692 m 2
 481 692 630 644 630 430 c 0
 630 205 532 0 242 0 c 2
 45 0 l 1
 88 307 l 1
 22 307 l 1
 34 399 l 1
 101 399 l 1
 142 692 l 1
 319 692 l 2
263 108 m 2
 435 108 481 288 481 430 c 0
 481 559 413 584 330 584 c 2
 272 584 l 1
 246 399 l 1
 387 399 l 1
 375 307 l 1
 233 307 l 1
 205 108 l 1
 263 108 l 2
EndSplineSet
Substitution2: "'c2sc' Capitals to Small Capitals lookup 23 subtable" eth.sc
Substitution2: "'aalt' Access All Alternates lookup 0 subtable" eth.sc
Position2: "'cpsp' Capital Spacing lookup 0 subtable" dx=5 dy=0 dh=10 dv=0
EndChar

StartChar: Ntilde
Encoding: 209 209 70
Width: 659
GlyphClass: 2
Flags: MW
HStem: 0 21G<36 166 36 36 365 549 365 365> 0 123<463 463 463 549 365 463> 569 123<221 221> 672 20G<133 316 316 316 516 646 646 646> 766 102<458.5 485 458.5 494.5> 812 102<347.5 375>
VStem: 36 610
AnchorPoint: "Anchor-11" 294 0 basechar 0
AnchorPoint: "Anchor-10" 0 0 basechar 0
AnchorPoint: "Anchor-9" 396 692 basechar 0
AnchorPoint: "Anchor-8" 0 0 basechar 0
LayerCount: 2
Fore
SplineSet
469 766 m 0x9a
 416 766 390 812 360 812 c 0
 335 812 319 795 299 765 c 1
 231 805 l 1
 263 865 310 914 366 914 c 0x96
 423 914 443 868 474 868 c 0
 496 868 513 884 534 913 c 1
 602 874 l 1
 568 809 520 766 469 766 c 0x9a
549 0 m 1x96
 365 0 l 1
 221 569 l 1xa6
 222 484 221 395 203 262 c 2
 166 0 l 1
 36 0 l 1
 133 692 l 1
 316 692 l 1
 463 123 l 1x56
 459 217 460 287 474 395 c 1
 516 692 l 1
 646 692 l 1
 549 0 l 1x96
EndSplineSet
Substitution2: "'c2sc' Capitals to Small Capitals lookup 23 subtable" ntilde.sc
Substitution2: "'aalt' Access All Alternates lookup 0 subtable" ntilde.sc
Position2: "'cpsp' Capital Spacing lookup 0 subtable" dx=5 dy=0 dh=10 dv=0
EndChar
StartChar: Oacute
Encoding: 211 211 172
Width: 682
GlyphClass: 2
Flags: MW
HStem: -16 110<276 394.5 276 440.5> 598 110<311.5 430>
VStem: 44 150<198 317 198 357.5> 511 150<376 494.5>
AnchorPoint: "Anchor-14" 0 0 basechar 0
AnchorPoint: "Anchor-13" 622 692 basechar 0
AnchorPoint: "Anchor-12" 427 946 basechar 0
AnchorPoint: "Anchor-11" 0 0 basechar 0
AnchorPoint: "Anchor-10" 303 0 basechar 0
LayerCount: 2
Back
Fore
SplineSet
510 946 m 1
 560 837 l 1
 324 749 l 1
 290 821 l 1
 510 946 l 1
401 708 m 0
 565 708 661 606 661 425 c 0
 661 240 576 -16 305 -16 c 0
 141 -16 44 87 44 266 c 0
 44 449 130 708 401 708 c 0
391 598 m 0
 232 598 194 377 194 257 c 0
 194 139 238 94 314 94 c 0
 475 94 511 315 511 437 c 0
 511 552 469 598 391 598 c 0
EndSplineSet
Substitution2: "'c2sc' Capitals to Small Capitals lookup 27 subtable" oacute.sc
Substitution2: "'locl' Localized Forms in Latin lookup 7 subtable" Oacute.loclPLK
AlternateSubs2: "'aalt' Access All Alternates lookup 1 subtable" Oacute.loclPLK oacute.sc
Position2: "'cpsp' Capital Spacing lookup 0 subtable" dx=5 dy=0 dh=10 dv=0
EndChar
StartChar: Ocircumflex
Encoding: 212 212 176
Width: 682
GlyphClass: 2
Flags: MW
HStem: -16 110<276 394.5 276 440.5> 598 110<311.5 430>
VStem: 44 150<198 317 198 357.5> 511 150<376 494.5>
AnchorPoint: "Anchor-14" 0 0 basechar 0
AnchorPoint: "Anchor-13" 526 819 basechar 0
AnchorPoint: "Anchor-12" 432 940 basechar 0
AnchorPoint: "Anchor-11" 0 0 basechar 0
AnchorPoint: "Anchor-10" 303 0 basechar 0
LayerCount: 2
Back
Fore
SplineSet
540 756 m 1
 422 840 l 1
 281 756 l 1
 234 816 l 1
 389 940 l 1
 475 940 l 1
 596 816 l 1
 540 756 l 1
401 708 m 0
 565 708 661 606 661 425 c 0
 661 240 576 -16 305 -16 c 0
 141 -16 44 87 44 266 c 0
 44 449 130 708 401 708 c 0
391 598 m 0
 232 598 194 377 194 257 c 0
 194 139 238 94 314 94 c 0
 475 94 511 315 511 437 c 0
 511 552 469 598 391 598 c 0
EndSplineSet
Substitution2: "'c2sc' Capitals to Small Capitals lookup 27 subtable" ocircumflex.sc
Substitution2: "'aalt' Access All Alternates lookup 0 subtable" ocircumflex.sc
Position2: "'cpsp' Capital Spacing lookup 0 subtable" dx=5 dy=0 dh=10 dv=0
EndChar
StartChar: multiply
Encoding: 215 215 2268
Width: 505
GlyphClass: 2
Flags: MW
HStem: 109 395<116 169 169 348>
VStem: 47 422<189 424>
LayerCount: 2
Back
Fore
SplineSet
401 504 m 1
 469 424 l 1
 335 307 l 1
 436 189 l 1
 348 109 l 1
 248 228 l 1
 116 109 l 1
 47 189 l 1
 181 307 l 1
 80 424 l 1
 169 504 l 1
 268 385 l 1
 401 504 l 1
EndSplineSet
Substitution2: "'onum' Oldstyle Figures lookup 26 subtable" multiply.osf
Substitution2: "'tnum' Tabular Numbers lookup 25 subtable" multiply.tf
AlternateSubs2: "'aalt' Access All Alternates lookup 1 subtable" multiply.tf multiply.osf
EndChar
StartChar: Udieresis
Encoding: 220 220 260
Width: 645
GlyphClass: 2
Flags: MW
HStem: -16 112<256.5 335.5 256.5 370.5> 672 20G<123 268 268 268 497 642 642 642> 770 148<276 303 499.5 526>
VStem: 54.87 145.18 216 147 439 147
AnchorPoint: "Anchor-14" 0 0 basechar 0
AnchorPoint: "Anchor-13" 652 692 basechar 0
AnchorPoint: "Anchor-12" 408 918 basechar 0
AnchorPoint: "Anchor-11" 400 0 basechar 0
AnchorPoint: "Anchor-10" 285 0 basechar 0
LayerCount: 2
Back
Fore
SplineSet
297 918 m 0
 340 918 369 883 363 840 c 0
 357 801 324 770 282 770 c 0
 239 770 210 805 216 848 c 0
 221 887 255 918 297 918 c 0
520 918 m 0
 564 918 592 883 586 840 c 0
 580 801 547 770 505 770 c 0
 463 770 433 805 439 848 c 0
 444 887 479 918 520 918 c 0
642 692 m 1
 577 226 l 2
 557 87 456 -16 285 -16 c 0
 111 -16 38 86 58 230 c 2
 123 692 l 1
 268 692 l 1
 203 233 l 2
 190 140 218 96 295 96 c 0xf0
 376 96 419 144 432 237 c 2
 497 692 l 1
 642 692 l 1
EndSplineSet
Substitution2: "'c2sc' Capitals to Small Capitals lookup 27 subtable" udieresis.sc
Substitution2: "'aalt' Access All Alternates lookup 0 subtable" udieresis.sc
Position2: "'cpsp' Capital Spacing lookup 0 subtable" dx=5 dy=0 dh=10 dv=0
EndChar
StartChar: Yacute
Encoding: 221 221 294
Width: 574
GlyphClass: 2
Flags: MW
HStem: 0 21G<177 323 177 177> 672 20G<56 210 210 210 483 639 639 639>
VStem: 56 583<692 692>
AnchorPoint: "Anchor-14" 0 0 basechar 0
AnchorPoint: "Anchor-13" 0 0 basechar 0
AnchorPoint: "Anchor-12" 372 946 basechar 0
AnchorPoint: "Anchor-11" 0 0 basechar 0
AnchorPoint: "Anchor-10" 250 0 basechar 0
LayerCount: 2
Back
Fore
SplineSet
455 946 m 1
 505 837 l 1
 269 749 l 1
 235 821 l 1
 455 946 l 1
639 692 m 1
 360 261 l 1
 323 0 l 1
 177 0 l 1
 214 260 l 1
 56 692 l 1
 210 692 l 1
 302 378 l 1
 483 692 l 1
 639 692 l 1
EndSplineSet
Substitution2: "'c2sc' Capitals to Small Capitals lookup 27 subtable" yacute.sc
Substitution2: "'aalt' Access All Alternates lookup 0 subtable" yacute.sc
Position2: "'cpsp' Capital Spacing lookup 0 subtable" dx=5 dy=0 dh=10 dv=0
EndChar
StartChar: germandbls
Encoding: 223 223 629
Width: 589
GlyphClass: 2
Flags: MW
HStem: -220 21G<-61 -61> -16 110<315 358.5 315 412.5> 655 102<316 361>
VStem: 280 127<387.5 453> 401 133<561 623> 410 144<160 226>
LayerCount: 2
Back
Fore
SplineSet
407 423 m 0xf0
 407 352 554 337 554 183 c 0
 554 93 489 -16 336 -16 c 0
 287 -16 243 -2 213 15 c 1
 265 108 l 1
 282 99 305 94 325 94 c 0
 392 94 410 144 410 176 c 0xe4
 410 276 280 288 280 393 c 0xf0
 280 513 401 515 401 607 c 0
 401 639 378 655 344 655 c 0
 288 655 253 614 242 536 c 2
 174 51 l 2
 151 -116 65 -173 -61 -220 c 1
 -97 -117 l 1
 -25 -88 19 -58 32 36 c 2
 103 537 l 2
 122 675 211 757 354 757 c 0
 472 757 534 695 534 617 c 0xe8
 534 502 407 491 407 423 c 0xf0
EndSplineSet
Substitution2: "'smcp' Lowercase to Small Capitals lookup 28 subtable" germandbls.sc
Substitution2: "'aalt' Access All Alternates lookup 0 subtable" germandbls.sc
EndChar

StartChar: atilde
Encoding: 227 227 143
Width: 571
GlyphClass: 2
Flags: MW
HStem: -16 106<225 237> 443 103<271.5 340.5> 640 102<407.5 434 407.5 443.5> 686 102<296.5 324> 728 20G<551 551>
VStem: 31 146<154.5 246.5 154.5 268>
AnchorPoint: "Anchor-11" 0 0 basechar 0
AnchorPoint: "Anchor-10" 0 0 basechar 0
AnchorPoint: "Anchor-9" 339 530 basechar 0
AnchorPoint: "Anchor-8" 484 -14 basechar 0
LayerCount: 2
Fore
SplineSet
418 640 m 0xe4
 365 640 339 686 309 686 c 0
 284 686 268 669 248 639 c 1
 180 679 l 1xd4
 212 739 259 788 315 788 c 0
 372 788 392 742 423 742 c 0
 445 742 462 758 483 787 c 1xe4
 551 748 l 1xcc
 517 683 469 640 418 640 c 0xe4
330 546 m 0xcc
 399 546 469 531 541 493 c 1
 489 145 l 2
 488 136 487 129 487 122 c 0
 487 97 497 86 516 79 c 1
 476 -14 l 1
 419 -8 374 17 360 74 c 1
 323 21 271 -16 203 -16 c 0
 90 -16 31 67 31 193 c 0
 31 343 110 546 330 546 c 0xcc
327 443 m 0
 216 443 177 300 177 193 c 0
 177 116 204 90 246 90 c 0
 288 90 322 121 355 169 c 1
 394 432 l 1
 371 440 354 443 327 443 c 0
EndSplineSet
Substitution2: "'smcp' Lowercase to Small Capitals lookup 24 subtable" atilde.sc
Substitution2: "'aalt' Access All Alternates lookup 0 subtable" atilde.sc
EndChar

StartChar: adieresis
Encoding: 228 228 138
Width: 571
GlyphClass: 2
Flags: MW
HStem: -16 106<225 237> 443 103<271.5 340.5> 644 148<236 262 459.5 485.5>
VStem: 31 146<154.5 246.5 154.5 268> 175 147 399 146
AnchorPoint: "Anchor-11" 0 0 basechar 0
AnchorPoint: "Anchor-10" 0 0 basechar 0
AnchorPoint: "Anchor-9" 360 720 basechar 0
AnchorPoint: "Anchor-8" 484 -14 basechar 0
LayerCount: 2
Fore
SplineSet
256 792 m 0xec
 300 792 329 757 322 714 c 1
 317 675 282 644 242 644 c 0
 199 644 170 679 175 722 c 1
 181 761 216 792 256 792 c 0xec
479 792 m 0
 523 792 552 757 545 714 c 1
 540 675 506 644 465 644 c 0
 422 644 393 679 399 722 c 0
 404 761 440 792 479 792 c 0
330 546 m 0
 399 546 469 531 541 493 c 1
 489 145 l 2
 488 136 487 129 487 122 c 0
 487 97 497 86 516 79 c 1
 476 -14 l 1
 419 -8 374 17 360 74 c 1
 323 21 271 -16 203 -16 c 0
 90 -16 31 67 31 193 c 0xf0
 31 343 110 546 330 546 c 0
327 443 m 0xf0
 216 443 177 300 177 193 c 0
 177 116 204 90 246 90 c 0
 288 90 322 121 355 169 c 1
 394 432 l 1
 371 440 354 443 327 443 c 0xf0
EndSplineSet
Substitution2: "'smcp' Lowercase to Small Capitals lookup 24 subtable" adieresis.sc
Substitution2: "'aalt' Access All Alternates lookup 0 subtable" adieresis.sc
EndChar
StartChar: aring
Encoding: 229 229 363
Width: 571
GlyphClass: 2
Flags: MW
HStem: -16 106<225.5 238> 443 103<272.5 341.5> 609 74<349 380 349 399> 787 73<360.5 391.5>
VStem: 32 145<154.5 246.5 154.5 268> 238 84<711.5 740 711.5 758> 419 83<729 758>
AnchorPoint: "Anchor-14" 0 0 basechar 0
AnchorPoint: "Anchor-13" 0 0 basechar 0
AnchorPoint: "Anchor-12" 383 860 basechar 0
AnchorPoint: "Anchor-11" 484 -14 basechar 0
AnchorPoint: "Anchor-10" 276 0 basechar 0
LayerCount: 2
Back
Fore
SplineSet
385 860 m 0
 458 860 502 811 502 747 c 0
 502 674 442 609 356 609 c 0
 282 609 238 658 238 722 c 0
 238 794 299 860 385 860 c 0
379 787 m 0
 342 787 322 755 322 725 c 0
 322 698 337 683 361 683 c 0
 399 683 419 714 419 744 c 0
 419 772 404 787 379 787 c 0
331 546 m 0
 399 546 469 531 541 493 c 1
 489 145 l 2
 488 136 487 129 487 122 c 0
 487 97 498 86 517 79 c 1
 476 -14 l 1
 419 -8 374 17 361 74 c 1
 323 21 272 -16 204 -16 c 0
 90 -16 32 67 32 193 c 0
 32 343 111 546 331 546 c 0
328 443 m 0
 217 443 177 300 177 193 c 0
 177 116 205 90 246 90 c 0
 288 90 322 121 355 169 c 1
 395 432 l 1
 372 440 355 443 328 443 c 0
EndSplineSet
Substitution2: "'smcp' Lowercase to Small Capitals lookup 28 subtable" aring.sc
Substitution2: "'aalt' Access All Alternates lookup 0 subtable" aring.sc
EndChar
StartChar: ccedilla
Encoding: 231 231 383
Width: 471
GlyphClass: 2
Flags: MW
HStem: -257 80<188 216 188 259> -15 21G<275 275> -15 113<275 275> -10 21G<194 194> 436 110<267 342>
VStem: 33 147<164.5 251 164.5 279> 254 104
AnchorPoint: "Anchor-14" 0 0 basechar 0
AnchorPoint: "Anchor-13" 0 0 basechar 0
AnchorPoint: "Anchor-12" 323 530 basechar 0
AnchorPoint: "Anchor-11" 0 0 basechar 0
AnchorPoint: "Anchor-10" 224 -257 basechar 0
LayerCount: 2
Back
Fore
SplineSet
431 43 m 1xae
 384 10 333 -11 275 -15 c 1
 269 -50 l 1xce
 330 -56 358 -90 358 -137 c 0
 358 -190 315 -257 203 -257 c 0
 158 -257 123 -243 100 -226 c 1
 142 -161 l 1
 158 -171 176 -177 200 -177 c 0
 232 -177 253 -166 254 -142 c 0
 255 -117 233 -109 169 -109 c 1
 194 -10 l 1x9e
 91 11 33 92 33 210 c 0
 33 348 112 546 323 546 c 0
 388 546 445 524 489 481 c 1
 419 398 l 1
 389 425 360 436 324 436 c 0
 210 436 180 298 180 204 c 0
 180 125 214 98 269 98 c 0
 309 98 338 111 378 136 c 1
 431 43 l 1xae
EndSplineSet
Substitution2: "'smcp' Lowercase to Small Capitals lookup 28 subtable" ccedilla.sc
Substitution2: "'aalt' Access All Alternates lookup 0 subtable" ccedilla.sc
EndChar

StartChar: ecircumflex
Encoding: 234 234 161
Width: 532
GlyphClass: 2
Flags: MW
HStem: -16 107<246 296.5> 449 97<274 338>
VStem: 33 142 374 142<368 408>
AnchorPoint: "Anchor-11" 253 0 basechar 0
AnchorPoint: "Anchor-10" 0 0 basechar 0
AnchorPoint: "Anchor-9" 315 530 basechar 0
AnchorPoint: "Anchor-8" 385 8 basechar 0
LayerCount: 2
Fore
SplineSet
202 624 m 1
 155 684 l 1
 311 815 l 1
 397 815 l 1
 517 684 l 1
 458 624 l 1
 342 713 l 1
 202 624 l 1
327 546 m 0
 452 546 516 481 516 403 c 0
 516 254 345 211 175 194 c 1
 179 117 218 91 274 91 c 0
 320 91 362 107 411 140 c 1
 463 54 l 1
 405 12 336 -16 257 -16 c 0
 108 -16 33 72 33 206 c 0
 33 351 109 546 327 546 c 0
182 283 m 1
 319 295 374 340 374 396 c 0
 374 420 361 449 315 449 c 0
 233 449 195 364 182 283 c 1
EndSplineSet
Substitution2: "'smcp' Lowercase to Small Capitals lookup 24 subtable" ecircumflex.sc
Substitution2: "'aalt' Access All Alternates lookup 0 subtable" ecircumflex.sc
EndChar
StartChar: igrave
Encoding: 236 236 488
Width: 278
GlyphClass: 2
Flags: MW
HStem: 0 21G<32 172 32 32> 510 20G<106 246 246 246> 680 20G<344 344>
VStem: 32 312
AnchorPoint: "Anchor-14" 0 0 basechar 0
AnchorPoint: "Anchor-13" 0 0 basechar 0
AnchorPoint: "Anchor-12" 215 827 basechar 0
AnchorPoint: "Anchor-11" 147 0 basechar 0
AnchorPoint: "Anchor-10" 102 0 basechar 0
LayerCount: 2
Back
Fore
SplineSet
149 830 m 1
 344 700 l 1
 299 628 l 1
 82 718 l 1
 149 830 l 1
246 530 m 1
 172 0 l 1
 32 0 l 1
 106 530 l 1
 246 530 l 1
EndSplineSet
Substitution2: "'smcp' Lowercase to Small Capitals lookup 28 subtable" igrave.sc
Substitution2: "'aalt' Access All Alternates lookup 0 subtable" igrave.sc
EndChar
StartChar: iacute
Encoding: 237 237 479
Width: 278
GlyphClass: 2
Flags: MW
HStem: 0 21G<32 172 32 32> 510 20G<106 246 246 246>
VStem: 32 305
AnchorPoint: "Anchor-14" 0 0 basechar 0
AnchorPoint: "Anchor-13" 0 0 basechar 0
AnchorPoint: "Anchor-12" 206 827 basechar 0
AnchorPoint: "Anchor-11" 147 0 basechar 0
AnchorPoint: "Anchor-10" 102 0 basechar 0
LayerCount: 2
Back
Fore
SplineSet
296 827 m 1
 337 718 l 1
 98 626 l 1
 69 699 l 1
 296 827 l 1
246 530 m 1
 172 0 l 1
 32 0 l 1
 106 530 l 1
 246 530 l 1
EndSplineSet
Substitution2: "'smcp' Lowercase to Small Capitals lookup 28 subtable" iacute.sc
Substitution2: "'aalt' Access All Alternates lookup 0 subtable" iacute.sc
EndChar
StartChar: icircumflex
Encoding: 238 238 482
Width: 278
GlyphClass: 2
Flags: MW
HStem: 0 21G<32 172 32 32> 510 20G<106 246 246 246>
VStem: 14 362<684 684>
AnchorPoint: "Anchor-14" 0 0 basechar 0
AnchorPoint: "Anchor-13" 0 0 basechar 0
AnchorPoint: "Anchor-12" 212 815 basechar 0
AnchorPoint: "Anchor-11" 147 0 basechar 0
AnchorPoint: "Anchor-10" 102 0 basechar 0
LayerCount: 2
Back
Fore
SplineSet
61 624 m 1
 14 684 l 1
 170 815 l 1
 256 815 l 1
 376 684 l 1
 317 624 l 1
 201 713 l 1
 61 624 l 1
246 530 m 1
 172 0 l 1
 32 0 l 1
 106 530 l 1
 246 530 l 1
EndSplineSet
Substitution2: "'smcp' Lowercase to Small Capitals lookup 28 subtable" icircumflex.sc
Substitution2: "'aalt' Access All Alternates lookup 0 subtable" icircumflex.sc
EndChar

StartChar: idieresis
Encoding: 239 239 181
Width: 278
GlyphClass: 2
Flags: MW
HStem: 0 21G<32 172 32 32> 510 20G<106 246 246 246> 644 148<73 99 296.5 322.5>
VStem: 12 147 236 146
AnchorPoint: "Anchor-11" 0 0 basechar 0
AnchorPoint: "Anchor-10" 0 0 basechar 0
AnchorPoint: "Anchor-9" 197 720 basechar 0
AnchorPoint: "Anchor-8" 163 0 basechar 0
LayerCount: 2
Fore
SplineSet
93 792 m 0
 137 792 166 757 159 714 c 1
 154 675 119 644 79 644 c 0
 36 644 7 679 12 722 c 1
 18 761 53 792 93 792 c 0
316 792 m 0
 360 792 389 757 382 714 c 1
 377 675 343 644 302 644 c 0
 259 644 230 679 236 722 c 0
 241 761 277 792 316 792 c 0
172 0 m 1
 32 0 l 1
 106 530 l 1
 246 530 l 1
 172 0 l 1
EndSplineSet
Substitution2: "'smcp' Lowercase to Small Capitals lookup 24 subtable" idieresis.sc
Substitution2: "'aalt' Access All Alternates lookup 0 subtable" idieresis.sc
EndChar
StartChar: eth
Encoding: 240 240 391
Width: 569
GlyphClass: 2
Flags: MW
HStem: -16 105<227.5 286.5 227.5 322> 377 101<244.5 297.5 184 317> 553 20G<166 166> 736 20G<183 183>
VStem: 30 143<154.5 227 154.5 256> 392 143
AnchorPoint: "Anchor-14" 0 0 basechar 0
AnchorPoint: "Anchor-13" 0 0 basechar 0
AnchorPoint: "Anchor-12" 320 741 basechar 0
AnchorPoint: "Anchor-11" 0 0 basechar 0
AnchorPoint: "Anchor-10" 245 0 basechar 0
LayerCount: 2
Back
Fore
SplineSet
403 666 m 1
 497 590 535 496 535 375 c 0
 535 342 533 307 527 270 c 0
 504 107 401 -16 243 -16 c 0
 121 -16 30 60 30 193 c 0
 30 319 100 478 268 478 c 0
 327 478 367 460 399 428 c 1
 390 494 368 544 318 590 c 1
 250 531 l 1
 166 573 l 1
 235 636 l 1
 202 648 174 655 145 661 c 1
 183 756 l 1
 231 747 273 736 321 714 c 1
 404 793 l 1
 470 728 l 1
 403 666 l 1
252 89 m 0
 321 89 368 151 384 263 c 0
 388 284 390 306 392 327 c 1
 370 360 339 377 295 377 c 0
 194 377 173 265 173 189 c 0
 173 120 203 89 252 89 c 0
EndSplineSet
Substitution2: "'smcp' Lowercase to Small Capitals lookup 28 subtable" eth.sc
Substitution2: "'aalt' Access All Alternates lookup 0 subtable" eth.sc
EndChar
StartChar: ntilde
Encoding: 241 241 550
Width: 571
GlyphClass: 2
Flags: MW
HStem: 0 21G<32 172 32 32 330 470 330 330> 429 117<319.5 447> 510 20G<106 227 227 227> 640 102<392.5 419 392.5 428.5> 686 102<281.5 309> 728 20G<536 536>
VStem: 32 504 380 145.71
AnchorPoint: "Anchor-14" 0 0 basechar 0
AnchorPoint: "Anchor-13" 0 0 basechar 0
AnchorPoint: "Anchor-12" 353 788 basechar 0
AnchorPoint: "Anchor-11" 0 0 basechar 0
AnchorPoint: "Anchor-10" 251 0 basechar 0
LayerCount: 2
Back
Fore
SplineSet
403 640 m 0xb2
 350 640 324 686 294 686 c 0
 269 686 253 669 233 639 c 1
 165 679 l 1xaa
 197 739 244 788 300 788 c 0
 357 788 377 742 408 742 c 0
 430 742 447 758 468 787 c 1xb2
 536 748 l 1xa6
 502 683 454 640 403 640 c 0xb2
404 546 m 0xc5
 490 546 538 484 523 381 c 2
 470 0 l 1
 330 0 l 1
 380 355 l 2
 388 414 370 429 343 429 c 0xc5
 296 429 252 373 213 298 c 1
 172 0 l 1
 32 0 l 1
 106 530 l 1
 227 530 l 1xa6
 223 434 l 1
 269 501 332 546 404 546 c 0xc5
EndSplineSet
Substitution2: "'smcp' Lowercase to Small Capitals lookup 28 subtable" ntilde.sc
Substitution2: "'aalt' Access All Alternates lookup 0 subtable" ntilde.sc
EndChar

StartChar: ocircumflex
Encoding: 244 244 211
Width: 575
GlyphClass: 2
Flags: MW
HStem: -16 106<232.5 316 232.5 360.5> 440 106<258.5 342>
VStem: 34 144<160.5 241 160.5 280> 397 144<289 322 251 369.5>
AnchorPoint: "Anchor-11" 0 0 basechar 0
AnchorPoint: "Anchor-10" 0 0 basechar 0
AnchorPoint: "Anchor-9" 320 530 basechar 0
AnchorPoint: "Anchor-8" 0 0 basechar 0
LayerCount: 2
Fore
SplineSet
161 684 m 1
 317 815 l 1
 403 815 l 1
 523 684 l 1
 464 624 l 1
 348 713 l 1
 208 624 l 1
 161 684 l 1
324 546 m 0
 463 546 542 460 541 322 c 1
 541 180 470 -16 251 -16 c 0
 112 -16 34 69 34 208 c 0
 34 352 105 546 324 546 c 0
315 440 m 0
 202 440 178 284 178 198 c 0
 178 123 205 90 260 90 c 0
 372 90 397 246 397 332 c 0
 397 407 369 440 315 440 c 0
EndSplineSet
Substitution2: "'smcp' Lowercase to Small Capitals lookup 24 subtable" ocircumflex.sc
Substitution2: "'aalt' Access All Alternates lookup 0 subtable" ocircumflex.sc
EndChar

StartChar: otilde
Encoding: 245 245 218
Width: 575
GlyphClass: 2
Flags: MW
HStem: -16 106<232.5 316 232.5 360.5> 440 106<258.5 342> 640 102<388.5 415 388.5 424.5> 686 102<277.5 305> 728 20G<532 532>
VStem: 34 144<160.5 241 160.5 280> 397 144<289 322 251 369.5>
AnchorPoint: "Anchor-11" 0 0 basechar 0
AnchorPoint: "Anchor-10" 0 0 basechar 0
AnchorPoint: "Anchor-9" 320 530 basechar 0
AnchorPoint: "Anchor-8" 0 0 basechar 0
LayerCount: 2
Fore
SplineSet
399 640 m 0xe6
 346 640 320 686 290 686 c 0
 265 686 249 669 229 639 c 1
 161 679 l 1xd6
 193 739 240 788 296 788 c 0
 353 788 373 742 404 742 c 0
 426 742 443 758 464 787 c 1xe6
 532 748 l 1xce
 498 683 450 640 399 640 c 0xe6
324 546 m 0xce
 463 546 542 460 541 322 c 1
 541 180 470 -16 251 -16 c 0
 112 -16 34 69 34 208 c 0
 34 352 105 546 324 546 c 0xce
315 440 m 0
 202 440 178 284 178 198 c 0
 178 123 205 90 260 90 c 0
 372 90 397 246 397 332 c 0
 397 407 369 440 315 440 c 0
EndSplineSet
Substitution2: "'smcp' Lowercase to Small Capitals lookup 24 subtable" otilde.sc
Substitution2: "'aalt' Access All Alternates lookup 0 subtable" otilde.sc
EndChar

StartChar: odieresis
Encoding: 246 246 212
Width: 575
GlyphClass: 2
Flags: MW
HStem: -16 106<232.5 316 232.5 360.5> 440 106<258.5 342> 644 148<217 243 440.5 466.5>
VStem: 34 144<160.5 241 160.5 280> 156 147 380 146 397 144<289 322 251 369.5>
AnchorPoint: "Anchor-11" 0 0 basechar 0
AnchorPoint: "Anchor-10" 0 0 basechar 0
AnchorPoint: "Anchor-9" 341 720 basechar 0
AnchorPoint: "Anchor-8" 0 0 basechar 0
LayerCount: 2
Fore
SplineSet
237 792 m 0xec
 281 792 310 757 303 714 c 1
 298 675 263 644 223 644 c 0
 180 644 151 679 156 722 c 1
 162 761 197 792 237 792 c 0xec
460 792 m 0
 504 792 533 757 526 714 c 1
 521 675 487 644 446 644 c 0
 403 644 374 679 380 722 c 0
 385 761 421 792 460 792 c 0
324 546 m 0xd2
 463 546 542 460 541 322 c 1
 541 180 470 -16 251 -16 c 0
 112 -16 34 69 34 208 c 0
 34 352 105 546 324 546 c 0xd2
315 440 m 0
 202 440 178 284 178 198 c 0
 178 123 205 90 260 90 c 0
 372 90 397 246 397 332 c 0
 397 407 369 440 315 440 c 0
EndSplineSet
Substitution2: "'smcp' Lowercase to Small Capitals lookup 24 subtable" odieresis.sc
Substitution2: "'aalt' Access All Alternates lookup 0 subtable" odieresis.sc
EndChar
StartChar: oslash
Encoding: 248 248 586
Width: 575
GlyphClass: 2
Flags: MW
HStem: -16 106<258 319 258 360.5> -13 21G<211 211> 440 106<256.5 318> 523 20G<364 364>
VStem: 34 133<182.5 242.5 182.5 280> 407 134<287.5 322 251 345>
AnchorPoint: "Anchor-14" 0 0 basechar 0
AnchorPoint: "Anchor-13" 0 0 basechar 0
AnchorPoint: "Anchor-12" 325 530 basechar 0
AnchorPoint: "Anchor-11" 0 0 basechar 0
AnchorPoint: "Anchor-10" 256 0 basechar 0
LayerCount: 2
Back
Fore
SplineSet
158 -134 m 1xac
 57 -103 l 1
 116 24 l 1
 63 62 34 127 34 208 c 0
 34 352 105 546 324 546 c 0xac
 338 546 351 545 364 543 c 1
 418 664 l 1
 520 633 l 1
 459 506 l 1
 513 467 542 402 541 322 c 0
 541 180 470 -16 251 -16 c 0x9c
 237 -16 224 -15 211 -13 c 1x6c
 158 -134 l 1xac
185 123 m 1
 332 439 l 1
 327 440 321 440 315 440 c 0
 198 440 167 284 167 201 c 0
 167 164 174 140 185 123 c 1
261 90 m 0
 377 90 407 247 407 328 c 0
 407 362 401 387 390 403 c 1
 244 92 l 1
 249 91 255 90 261 90 c 0
EndSplineSet
Substitution2: "'smcp' Lowercase to Small Capitals lookup 28 subtable" oslash.sc
Substitution2: "'aalt' Access All Alternates lookup 0 subtable" oslash.sc
EndChar

StartChar: ugrave
Encoding: 249 249 244
Width: 566
GlyphClass: 2
Flags: MW
HStem: -16 113<124.5 252.5> 0 21G<339 460 339 339> 510 20G<101 241 241 241 394 534 534 534> 678 20G<485 485>
VStem: 45.32 145.68
AnchorPoint: "Anchor-11" 0 0 basechar 0
AnchorPoint: "Anchor-10" 0 0 basechar 0
AnchorPoint: "Anchor-9" 319 530 basechar 0
AnchorPoint: "Anchor-8" 468 0 basechar 0
LayerCount: 2
Fore
SplineSet
485 698 m 1x78
 437 626 l 1
 223 718 l 1
 293 827 l 1
 485 698 l 1x78
460 0 m 1
 339 0 l 1x78
 343 83 l 1
 297 23 243 -16 174 -16 c 0
 75 -16 34 49 48 152 c 2
 101 530 l 1
 241 530 l 1
 191 172 l 2
 183 114 198 97 230 97 c 0
 275 97 314 142 347 192 c 1xb8
 394 530 l 1
 534 530 l 1
 460 0 l 1
EndSplineSet
Substitution2: "'smcp' Lowercase to Small Capitals lookup 24 subtable" ugrave.sc
Substitution2: "'aalt' Access All Alternates lookup 0 subtable" ugrave.sc
EndChar

StartChar: ucircumflex
Encoding: 251 251 242
Width: 566
GlyphClass: 2
Flags: MW
HStem: -16 113<124.5 252.5> 0 21G<339 460 339 339> 510 20G<101 241 241 241 394 534 534 534>
VStem: 45.32 145.68
AnchorPoint: "Anchor-11" 0 0 basechar 0
AnchorPoint: "Anchor-10" 0 0 basechar 0
AnchorPoint: "Anchor-9" 319 530 basechar 0
AnchorPoint: "Anchor-8" 468 0 basechar 0
LayerCount: 2
Fore
SplineSet
159 684 m 1x70
 315 815 l 1
 401 815 l 1
 521 684 l 1
 462 624 l 1
 346 713 l 1
 206 624 l 1
 159 684 l 1x70
460 0 m 1
 339 0 l 1x70
 343 83 l 1
 297 23 243 -16 174 -16 c 0
 75 -16 34 49 48 152 c 2
 101 530 l 1
 241 530 l 1
 191 172 l 2
 183 114 198 97 230 97 c 0
 275 97 314 142 347 192 c 1xb0
 394 530 l 1
 534 530 l 1
 460 0 l 1
EndSplineSet
Substitution2: "'smcp' Lowercase to Small Capitals lookup 24 subtable" ucircumflex.sc
Substitution2: "'aalt' Access All Alternates lookup 0 subtable" ucircumflex.sc
EndChar

StartChar: udieresis
Encoding: 252 252 243
Width: 566
GlyphClass: 2
Flags: MW
HStem: -16 113<124.5 252.5> 0 21G<339 460 339 339> 510 20G<101 241 241 241 394 534 534 534> 644 148<215 241 438.5 464.5>
VStem: 45.32 145.68 154 147 378 146
AnchorPoint: "Anchor-11" 0 0 basechar 0
AnchorPoint: "Anchor-10" 0 0 basechar 0
AnchorPoint: "Anchor-9" 339 720 basechar 0
AnchorPoint: "Anchor-8" 468 0 basechar 0
LayerCount: 2
Fore
SplineSet
235 792 m 0x76
 279 792 308 757 301 714 c 1
 296 675 261 644 221 644 c 0
 178 644 149 679 154 722 c 1
 160 761 195 792 235 792 c 0x76
458 792 m 0
 502 792 531 757 524 714 c 1
 519 675 485 644 444 644 c 0
 401 644 372 679 378 722 c 0
 383 761 419 792 458 792 c 0
460 0 m 1
 339 0 l 1x7a
 343 83 l 1
 297 23 243 -16 174 -16 c 0
 75 -16 34 49 48 152 c 2
 101 530 l 1
 241 530 l 1
 191 172 l 2
 183 114 198 97 230 97 c 0
 275 97 314 142 347 192 c 1xba
 394 530 l 1
 534 530 l 1
 460 0 l 1
EndSplineSet
Substitution2: "'smcp' Lowercase to Small Capitals lookup 24 subtable" udieresis.sc
Substitution2: "'aalt' Access All Alternates lookup 0 subtable" udieresis.sc
EndChar
StartChar: yacute
Encoding: 253 253 700
Width: 502
GlyphClass: 2
Flags: MW
HStem: -220 21G<-11 -11> 0 21G<123 123> 510 20G<35 181 181 181 396 542 542 542>
VStem: -15 557
AnchorPoint: "Anchor-14" 0 0 basechar 0
AnchorPoint: "Anchor-13" 0 0 basechar 0
AnchorPoint: "Anchor-12" 318 827 basechar 0
AnchorPoint: "Anchor-11" 0 0 basechar 0
AnchorPoint: "Anchor-10" 198 -208 basechar 0
LayerCount: 2
Back
Fore
SplineSet
408 827 m 1
 449 718 l 1
 210 626 l 1
 181 699 l 1
 408 827 l 1
542 530 m 1
 305 -3 l 2
 248 -132 149 -209 -11 -220 c 1
 -15 -118 l 1
 91 -104 133 -71 175 2 c 1
 123 0 l 1
 35 530 l 1
 181 530 l 1
 225 95 l 1
 396 530 l 1
 542 530 l 1
EndSplineSet
Substitution2: "'smcp' Lowercase to Small Capitals lookup 28 subtable" yacute.sc
Substitution2: "'aalt' Access All Alternates lookup 0 subtable" yacute.sc
EndChar
StartChar: thorn
Encoding: 254 254 598
Width: 586
GlyphClass: 2
Flags: MW
HStem: -16 105<246.5 312.5 244.5 372> 0 21G<171 171> 441 105<312 438.5> 737 20G<277 277>
VStem: 404 144<286.5 378>
LayerCount: 2
Back
Fore
SplineSet
385 546 m 0xb8
 492 546 548 471 548 339 c 0
 548 187 480 -16 264 -16 c 0xb8
 229 -16 195 -9 171 0 c 1x78
 142 -205 l 1
 0 -222 l 1
 136 741 l 1
 277 757 l 1
 238 484 l 1
 281 523 334 546 385 546 c 0xb8
259 89 m 0
 366 89 404 234 404 339 c 0
 404 417 374 441 333 441 c 0
 291 441 256 414 224 375 c 1
 186 103 l 1
 210 94 230 89 259 89 c 0
EndSplineSet
Substitution2: "'smcp' Lowercase to Small Capitals lookup 28 subtable" thorn.sc
Substitution2: "'aalt' Access All Alternates lookup 0 subtable" thorn.sc
EndChar

StartChar: ydieresis
Encoding: 255 255 260
Width: 502
GlyphClass: 2
Flags: MW
HStem: -220 21G<-11 -11> 0 21G<123 123> 510 20G<35 181 181 181 396 542 542 542> 644 148<185 211 408.5 434.5>
VStem: 124 147 348 146
AnchorPoint: "Anchor-11" 0 0 basechar 0
AnchorPoint: "Anchor-10" 0 0 basechar 0
AnchorPoint: "Anchor-9" 309 720 basechar 0
AnchorPoint: "Anchor-8" 0 0 basechar 0
LayerCount: 2
Fore
SplineSet
205 792 m 0
 249 792 278 757 271 714 c 1
 266 675 231 644 191 644 c 0
 148 644 119 679 124 722 c 1
 130 761 165 792 205 792 c 0
428 792 m 0
 472 792 501 757 494 714 c 1
 489 675 455 644 414 644 c 0
 371 644 342 679 348 722 c 0
 353 761 389 792 428 792 c 0
305 -3 m 2
 248 -132 149 -209 -11 -220 c 1
 -15 -118 l 1
 91 -104 132 -70 170 2 c 1
 123 0 l 1
 35 530 l 1
 181 530 l 1
 225 95 l 1
 396 530 l 1
 542 530 l 1
 305 -3 l 2
EndSplineSet
Substitution2: "'smcp' Lowercase to Small Capitals lookup 24 subtable" ydieresis.sc
Substitution2: "'aalt' Access All Alternates lookup 0 subtable" ydieresis.sc
EndChar
StartChar: Amacron
Encoding: 256 256 27
Width: 577
GlyphClass: 2
Flags: MW
HStem: 0 21G<-46 105 -46 -46 397 549 397 397> 155 109<206 368 206 380 164 368> 590 102<332 332> 672 20G<260 437 437 437> 784 100<229 509 216 523>
VStem: -46 595<0 0>
AnchorPoint: "Anchor-14" 0 0 basechar 0
AnchorPoint: "Anchor-13" 0 0 basechar 0
AnchorPoint: "Anchor-12" 371 884 basechar 0
AnchorPoint: "Anchor-11" 492 0 basechar 0
AnchorPoint: "Anchor-10" 251 0 basechar 0
LayerCount: 2
Back
Fore
SplineSet
523 884 m 1xdc
 509 784 l 1
 216 784 l 1
 229 884 l 1
 523 884 l 1xdc
397 0 m 1
 380 155 l 1
 164 155 l 1
 105 0 l 1
 -46 0 l 1
 260 692 l 1
 437 692 l 1
 549 0 l 1
 397 0 l 1
206 264 m 1
 368 264 l 1
 332 590 l 1xec
 206 264 l 1
EndSplineSet
Substitution2: "'c2sc' Capitals to Small Capitals lookup 27 subtable" amacron.sc
Substitution2: "'aalt' Access All Alternates lookup 0 subtable" amacron.sc
Position2: "'cpsp' Capital Spacing lookup 0 subtable" dx=5 dy=0 dh=10 dv=0
EndChar
StartChar: Abreve
Encoding: 258 258 4
Width: 577
GlyphClass: 2
Flags: MW
HStem: 0 21G<-46 105 -46 -46 397 549 397 397> 155 109<206 368 206 380 164 368> 590 102<332 332> 672 20G<260 437 437 437> 752 101<344 389.5 344 408>
VStem: -46 595<0 0>
AnchorPoint: "Anchor-14" 0 0 basechar 0
AnchorPoint: "Anchor-13" 0 0 basechar 0
AnchorPoint: "Anchor-12" 381 921 basechar 0
AnchorPoint: "Anchor-11" 492 0 basechar 0
AnchorPoint: "Anchor-10" 251 0 basechar 0
LayerCount: 2
Back
Fore
SplineSet
360 752 m 0xdc
 261 752 211 825 215 907 c 1
 293 918 l 1
 300 880 322 853 366 853 c 0
 413 853 446 883 463 921 c 1
 543 903 l 1
 525 821 456 752 360 752 c 0xdc
397 0 m 1
 380 155 l 1
 164 155 l 1
 105 0 l 1
 -46 0 l 1
 260 692 l 1
 437 692 l 1
 549 0 l 1
 397 0 l 1
206 264 m 1
 368 264 l 1
 332 590 l 1xec
 206 264 l 1
EndSplineSet
Substitution2: "'c2sc' Capitals to Small Capitals lookup 27 subtable" abreve.sc
Substitution2: "'aalt' Access All Alternates lookup 0 subtable" abreve.sc
Position2: "'cpsp' Capital Spacing lookup 0 subtable" dx=5 dy=0 dh=10 dv=0
EndChar
StartChar: abreve
Encoding: 259 259 337
Width: 571
GlyphClass: 2
Flags: MW
HStem: -16 106<225.5 238> 443 103<272.5 341.5> 635 100<338 383 338 400.5>
VStem: 32 145<154.5 246.5 154.5 268> 208 81<800 811>
AnchorPoint: "Anchor-14" 0 0 basechar 0
AnchorPoint: "Anchor-13" 0 0 basechar 0
AnchorPoint: "Anchor-12" 375 814 basechar 0
AnchorPoint: "Anchor-11" 484 -14 basechar 0
AnchorPoint: "Anchor-10" 276 0 basechar 0
LayerCount: 2
Back
Fore
SplineSet
352 635 m 0
 253 635 203 707 208 800 c 1
 289 811 l 1
 294 762 316 735 360 735 c 0
 406 735 441 766 459 814 c 1
 537 796 l 1
 517 703 449 635 352 635 c 0
331 546 m 0
 399 546 469 531 541 493 c 1
 489 145 l 2
 488 136 487 129 487 122 c 0
 487 97 498 86 517 79 c 1
 476 -14 l 1
 419 -8 374 17 361 74 c 1
 323 21 272 -16 204 -16 c 0
 90 -16 32 67 32 193 c 0
 32 343 111 546 331 546 c 0
328 443 m 0
 217 443 177 300 177 193 c 0
 177 116 205 90 246 90 c 0
 288 90 322 121 355 169 c 1
 395 432 l 1
 372 440 355 443 328 443 c 0
EndSplineSet
Substitution2: "'smcp' Lowercase to Small Capitals lookup 28 subtable" abreve.sc
Substitution2: "'aalt' Access All Alternates lookup 0 subtable" abreve.sc
EndChar
StartChar: Aogonek
Encoding: 260 260 28
Width: 577
GlyphClass: 2
Flags: MW
HStem: -242 91<379.5 382.5> 0 21G<-46 105 -46 -46 485 549 485 485> 155 109<206 368 206 380 164 368> 590 102<332 332> 672 20G<260 437 437 437>
VStem: 242 107<-128 -109>
AnchorPoint: "Anchor-14" 0 0 basechar 0
AnchorPoint: "Anchor-13" 0 0 basechar 0
AnchorPoint: "Anchor-12" 349 692 basechar 0
AnchorPoint: "Anchor-11" 492 0 basechar 0
AnchorPoint: "Anchor-10" 251 0 basechar 0
LayerCount: 2
Back
Fore
SplineSet
485 0 m 1xec
 366 -44 349 -89 349 -117 c 0
 349 -139 365 -151 394 -151 c 0
 414 -151 433 -148 456 -143 c 1
 436 -235 l 1
 415 -239 395 -242 370 -242 c 0
 293 -242 242 -201 242 -140 c 0
 242 -78 281 -19 394 24 c 1
 380 155 l 1
 164 155 l 1
 105 0 l 1
 -46 0 l 1
 260 692 l 1
 437 692 l 1
 549 0 l 1
 485 0 l 1xec
206 264 m 1
 368 264 l 1
 332 590 l 1xf4
 206 264 l 1
EndSplineSet
Substitution2: "'c2sc' Capitals to Small Capitals lookup 27 subtable" aogonek.sc
Substitution2: "'aalt' Access All Alternates lookup 0 subtable" aogonek.sc
Position2: "'cpsp' Capital Spacing lookup 0 subtable" dx=5 dy=0 dh=10 dv=0
EndChar

StartChar: aogonek
Encoding: 261 261 141
Width: 571
GlyphClass: 2
Flags: MW
HStem: -256 91<370.5 373.5> -16 106<225 237> 443 103<271.5 340.5>
VStem: 31 146<154.5 246.5 154.5 268> 233 107<-142 -121.5>
AnchorPoint: "Anchor-11" 0 0 basechar 0
AnchorPoint: "Anchor-10" 0 0 basechar 0
AnchorPoint: "Anchor-9" 339 530 basechar 0
AnchorPoint: "Anchor-8" 484 -14 basechar 0
LayerCount: 2
Fore
SplineSet
487 122 m 0
 487 97 497 86 516 79 c 1
 476 -14 l 1
 357 -58 340 -103 340 -131 c 0
 340 -153 356 -165 385 -165 c 0
 405 -165 424 -162 447 -157 c 1
 427 -249 l 1
 406 -253 386 -256 361 -256 c 0
 284 -256 233 -215 233 -154 c 0
 233 -89 275 -30 397 15 c 1
 379 29 366 48 360 74 c 1
 323 21 271 -16 203 -16 c 0
 90 -16 31 67 31 193 c 0
 31 343 110 546 330 546 c 0
 399 546 469 531 541 493 c 1
 489 145 l 2
 488 136 487 129 487 122 c 0
394 432 m 1
 371 440 354 443 327 443 c 0
 216 443 177 300 177 193 c 0
 177 116 204 90 246 90 c 0
 288 90 322 121 355 169 c 1
 394 432 l 1
EndSplineSet
Substitution2: "'smcp' Lowercase to Small Capitals lookup 24 subtable" aogonek.sc
Substitution2: "'aalt' Access All Alternates lookup 0 subtable" aogonek.sc
EndChar
StartChar: cacute
Encoding: 263 263 381
Width: 471
GlyphClass: 2
Flags: MW
HStem: -16 114<241.5 286> 436 110<267 342>
VStem: 33 147<164.5 251 164.5 279>
AnchorPoint: "Anchor-14" 0 0 basechar 0
AnchorPoint: "Anchor-13" 0 0 basechar 0
AnchorPoint: "Anchor-12" 353 827 basechar 0
AnchorPoint: "Anchor-11" 0 0 basechar 0
AnchorPoint: "Anchor-10" 240 0 basechar 0
LayerCount: 2
Back
Fore
SplineSet
443 827 m 1
 484 718 l 1
 245 626 l 1
 216 699 l 1
 443 827 l 1
323 546 m 0
 388 546 445 524 489 481 c 1
 419 398 l 1
 389 425 360 436 324 436 c 0
 210 436 180 298 180 204 c 0
 180 125 214 98 269 98 c 0
 309 98 338 111 378 136 c 1
 431 43 l 1
 378 6 320 -16 252 -16 c 0
 113 -16 33 71 33 210 c 0
 33 348 112 546 323 546 c 0
EndSplineSet
Substitution2: "'smcp' Lowercase to Small Capitals lookup 28 subtable" cacute.sc
Substitution2: "'locl' Localized Forms in Latin lookup 7 subtable" cacute.loclPLK
AlternateSubs2: "'aalt' Access All Alternates lookup 1 subtable" cacute.loclPLK cacute.sc
EndChar
StartChar: Ccircumflex
Encoding: 264 264 46
Width: 563
GlyphClass: 2
Flags: MW
HStem: -16 116<285 353 285 353> 597 111<320.5 421>
VStem: 44 151<208 332 208 363.5>
AnchorPoint: "Anchor-14" 0 0 basechar 0
AnchorPoint: "Anchor-13" 530 819 basechar 0
AnchorPoint: "Anchor-12" 436 940 basechar 0
AnchorPoint: "Anchor-11" 0 0 basechar 0
AnchorPoint: "Anchor-10" 301 0 basechar 0
LayerCount: 2
Back
Fore
SplineSet
544 756 m 1
 426 840 l 1
 285 756 l 1
 238 816 l 1
 393 940 l 1
 479 940 l 1
 600 816 l 1
 544 756 l 1
394 708 m 0
 482 708 547 679 595 628 c 1
 514 549 l 1
 480 581 444 597 398 597 c 0
 243 597 195 397 195 267 c 0
 195 149 246 100 324 100 c 0
 382 100 426 129 469 159 c 1
 526 69 l 1
 475 25 399 -16 307 -16 c 0
 146 -16 44 84 44 269 c 0
 44 458 139 708 394 708 c 0
EndSplineSet
Substitution2: "'c2sc' Capitals to Small Capitals lookup 27 subtable" ccircumflex.sc
Substitution2: "'aalt' Access All Alternates lookup 0 subtable" ccircumflex.sc
Position2: "'cpsp' Capital Spacing lookup 0 subtable" dx=5 dy=0 dh=10 dv=0
EndChar

StartChar: ccircumflex
Encoding: 265 265 151
Width: 470
GlyphClass: 2
Flags: MW
HStem: -16 114<241 285.5> 436 110<266 341>
VStem: 33 146<164.5 251 164.5 279>
AnchorPoint: "Anchor-11" 239 0 basechar 0
AnchorPoint: "Anchor-10" 0 0 basechar 0
AnchorPoint: "Anchor-9" 323 530 basechar 0
AnchorPoint: "Anchor-8" 0 0 basechar 0
LayerCount: 2
Fore
SplineSet
163 684 m 1
 319 815 l 1
 405 815 l 1
 525 684 l 1
 466 624 l 1
 350 713 l 1
 210 624 l 1
 163 684 l 1
322 546 m 0
 388 546 444 524 488 481 c 1
 418 398 l 1
 388 425 359 436 323 436 c 0
 209 436 179 298 179 204 c 0
 179 125 214 98 268 98 c 0
 308 98 338 111 377 136 c 1
 430 43 l 1
 377 6 319 -16 252 -16 c 0
 113 -16 33 71 33 210 c 0
 33 348 112 546 322 546 c 0
EndSplineSet
Substitution2: "'smcp' Lowercase to Small Capitals lookup 24 subtable" ccircumflex.sc
Substitution2: "'aalt' Access All Alternates lookup 0 subtable" ccircumflex.sc
EndChar

StartChar: Cdotaccent
Encoding: 266 266 19
Width: 563
GlyphClass: 2
Flags: MW
HStem: -16 116<285 353 285 353> 597 111<321 421.5> 763 166<413.5 444.5>
VStem: 44 151<208 332 208 363.5> 344 169
AnchorPoint: "Anchor-11" 301 0 basechar 0
AnchorPoint: "Anchor-10" 0 0 basechar 0
AnchorPoint: "Anchor-9" 407 692 basechar 0
AnchorPoint: "Anchor-8" 0 0 basechar 0
LayerCount: 2
Fore
SplineSet
438 929 m 0
 490 929 520 891 513 842 c 0
 507 797 469 763 420 763 c 0
 368 763 338 801 344 850 c 0
 350 895 389 929 438 929 c 0
394 708 m 0
 482 708 547 679 595 628 c 1
 514 549 l 1
 480 581 444 597 399 597 c 0
 243 597 195 397 195 267 c 0
 195 149 246 100 324 100 c 0
 382 100 426 129 469 159 c 1
 526 69 l 1
 475 25 399 -16 307 -16 c 0
 146 -16 44 84 44 269 c 0
 44 458 139 708 394 708 c 0
EndSplineSet
Substitution2: "'c2sc' Capitals to Small Capitals lookup 23 subtable" cdotaccent.sc
Substitution2: "'aalt' Access All Alternates lookup 0 subtable" cdotaccent.sc
Position2: "'cpsp' Capital Spacing lookup 0 subtable" dx=5 dy=0 dh=10 dv=0
EndChar
StartChar: cdotaccent
Encoding: 267 267 386
Width: 471
GlyphClass: 2
Flags: MW
HStem: -16 114<241.5 286> 436 110<267 342> 637 166<334.5 365.5>
VStem: 33 147<164.5 251 164.5 279> 265 169
AnchorPoint: "Anchor-14" 0 0 basechar 0
AnchorPoint: "Anchor-13" 0 0 basechar 0
AnchorPoint: "Anchor-12" 361 803 basechar 0
AnchorPoint: "Anchor-11" 0 0 basechar 0
AnchorPoint: "Anchor-10" 240 0 basechar 0
LayerCount: 2
Back
Fore
SplineSet
359 803 m 0
 411 803 441 765 434 716 c 0
 428 671 390 637 341 637 c 0
 289 637 259 675 265 724 c 0
 271 769 310 803 359 803 c 0
323 546 m 0
 388 546 445 524 489 481 c 1
 419 398 l 1
 389 425 360 436 324 436 c 0
 210 436 180 298 180 204 c 0
 180 125 214 98 269 98 c 0
 309 98 338 111 378 136 c 1
 431 43 l 1
 378 6 320 -16 252 -16 c 0
 113 -16 33 71 33 210 c 0
 33 348 112 546 323 546 c 0
EndSplineSet
Substitution2: "'smcp' Lowercase to Small Capitals lookup 28 subtable" cdotaccent.sc
Substitution2: "'aalt' Access All Alternates lookup 0 subtable" cdotaccent.sc
EndChar

StartChar: ccaron
Encoding: 269 269 149
Width: 470
GlyphClass: 2
Flags: MW
HStem: -16 114<241 285.5> 436 110<266 341> 726 20G<172 172 534 534>
VStem: 33 146<164.5 251 164.5 279>
AnchorPoint: "Anchor-11" 239 0 basechar 0
AnchorPoint: "Anchor-10" 0 0 basechar 0
AnchorPoint: "Anchor-9" 323 530 basechar 0
AnchorPoint: "Anchor-8" 0 0 basechar 0
LayerCount: 2
Fore
SplineSet
534 746 m 1
 379 615 l 1
 292 615 l 1
 172 746 l 1
 228 806 l 1
 344 717 l 1
 488 806 l 1
 534 746 l 1
322 546 m 0
 388 546 444 524 488 481 c 1
 418 398 l 1
 388 425 359 436 323 436 c 0
 209 436 179 298 179 204 c 0
 179 125 214 98 268 98 c 0
 308 98 338 111 377 136 c 1
 430 43 l 1
 377 6 319 -16 252 -16 c 0
 113 -16 33 71 33 210 c 0
 33 348 112 546 322 546 c 0
EndSplineSet
Substitution2: "'smcp' Lowercase to Small Capitals lookup 24 subtable" ccaron.sc
Substitution2: "'aalt' Access All Alternates lookup 0 subtable" ccaron.sc
EndChar

StartChar: Dcaron
Encoding: 270 270 22
Width: 642
GlyphClass: 2
Flags: MW
HStem: 0 108<196 232> 584 108<262 262 262 309 309 320>
VStem: 472 148<359 494.5>
AnchorPoint: "Anchor-11" 0 0 basechar 0
AnchorPoint: "Anchor-10" 0 0 basechar 0
AnchorPoint: "Anchor-9" 353 692 basechar 0
AnchorPoint: "Anchor-8" 0 0 basechar 0
LayerCount: 2
Fore
SplineSet
555 875 m 1
 401 751 l 1
 314 751 l 1
 193 875 l 1
 251 935 l 1
 368 852 l 1
 509 935 l 1
 555 875 l 1
309 692 m 2
 472 692 620 644 620 430 c 0
 620 205 523 0 232 0 c 2
 36 0 l 1
 133 692 l 1
 309 692 l 2
262 584 m 1
 196 108 l 1
 254 108 l 2
 426 108 472 288 472 430 c 0
 472 559 404 584 320 584 c 2
 262 584 l 1
EndSplineSet
Substitution2: "'c2sc' Capitals to Small Capitals lookup 23 subtable" dcaron.sc
Substitution2: "'aalt' Access All Alternates lookup 0 subtable" dcaron.sc
Position2: "'cpsp' Capital Spacing lookup 0 subtable" dx=5 dy=0 dh=10 dv=0
EndChar
StartChar: dcaron
Encoding: 271 271 393
Width: 645
GlyphClass: 2
Flags: MW
HStem: -16 106<226.5 237.5> 0 21G<359 483 359 359> 441 105<263.5 316.5 196.5 335> 521 20G<597 597> 721 20G<587 587 746 746> 734 20G<638 638> 736 20G<449 449>
VStem: 35 145<155 240.5 155 268.5>
AnchorPoint: "Anchor-14" 296 265 basechar 0
AnchorPoint: "Anchor-13" 599 741 basechar 0
AnchorPoint: "Anchor-12" 342 741 basechar 0
AnchorPoint: "Anchor-11" 0 0 basechar 0
AnchorPoint: "Anchor-10" 255 0 basechar 0
LayerCount: 2
Back
Fore
SplineSet
449 756 m 1x63
 587 741 l 1
 483 0 l 1
 359 0 l 1x69
 360 79 l 1
 325 26 273 -16 202 -16 c 0xa3
 90 -16 35 66 35 197 c 0
 35 340 102 546 291 546 c 0
 342 546 384 523 411 491 c 1
 449 756 l 1x63
638 754 m 1x55
 746 741 l 1xa9
 670 533 l 1
 597 541 l 1
 638 754 l 1x55
317 441 m 0
 210 441 180 287 180 194 c 0
 180 116 207 90 246 90 c 0
 296 90 334 136 370 193 c 1
 399 396 l 1
 377 426 353 441 317 441 c 0
EndSplineSet
Substitution2: "'smcp' Lowercase to Small Capitals lookup 28 subtable" dcaron.sc
Substitution2: "'aalt' Access All Alternates lookup 0 subtable" dcaron.sc
EndChar

StartChar: dcroat
Encoding: 273 273 156
Width: 600
GlyphClass: 2
Flags: MW
HStem: -16 106<229 239.5> 0 21G<361 485 361 361> 441 105<266 319 198.5 337.5> 598 87<296 429 296 441 581 634> 721 20G<589 589> 737 20G<451 451>
VStem: 37 146<155 240.5 155 268.5> 446 139
LayerCount: 2
Fore
SplineSet
646 685 m 1x77
 634 598 l 1
 569 598 l 1
 485 0 l 1
 361 0 l 1x77
 362 79 l 1
 328 26 275 -16 204 -16 c 0
 92 -16 37 66 37 197 c 0
 37 340 104 546 293 546 c 0
 345 546 386 523 414 491 c 1
 429 598 l 1
 296 598 l 1
 296 685 l 1
 441 685 l 1
 451 757 l 1xb7
 589 741 l 1x7b
 581 685 l 1
 646 685 l 1x77
401 396 m 1
 380 426 356 441 319 441 c 0
 213 441 183 287 183 194 c 0
 183 116 209 90 249 90 c 0xb7
 298 90 336 136 372 193 c 1
 401 396 l 1
EndSplineSet
Substitution2: "'smcp' Lowercase to Small Capitals lookup 24 subtable" dcroat.sc
Substitution2: "'aalt' Access All Alternates lookup 0 subtable" dcroat.sc
EndChar
StartChar: Emacron
Encoding: 274 274 83
Width: 521
GlyphClass: 2
Flags: MW
HStem: 0 108<196 445> 299 106<237 438 223 452> 585 107<263 509 263 263> 784 100<218 498 205 512>
VStem: 36 504
AnchorPoint: "Anchor-14" 0 0 basechar 0
AnchorPoint: "Anchor-13" 0 0 basechar 0
AnchorPoint: "Anchor-12" 360 884 basechar 0
AnchorPoint: "Anchor-11" 415 0 basechar 0
AnchorPoint: "Anchor-10" 241 0 basechar 0
LayerCount: 2
Back
Fore
SplineSet
498 784 m 1
 205 784 l 1
 218 884 l 1
 512 884 l 1
 498 784 l 1
540 692 m 1
 509 585 l 1
 263 585 l 1
 237 405 l 1
 452 405 l 1
 438 299 l 1
 223 299 l 1
 196 108 l 1
 460 108 l 1
 445 0 l 1
 36 0 l 1
 133 692 l 1
 540 692 l 1
EndSplineSet
Substitution2: "'c2sc' Capitals to Small Capitals lookup 27 subtable" emacron.sc
Substitution2: "'aalt' Access All Alternates lookup 0 subtable" emacron.sc
Position2: "'cpsp' Capital Spacing lookup 0 subtable" dx=5 dy=0 dh=10 dv=0
EndChar
StartChar: emacron
Encoding: 275 275 427
Width: 532
GlyphClass: 2
Flags: MW
HStem: -16 107<246 296.5> 449 97<274 338> 658 100<200 480 187 494>
VStem: 33 142 374 142<368 408>
AnchorPoint: "Anchor-14" 0 0 basechar 0
AnchorPoint: "Anchor-13" 0 0 basechar 0
AnchorPoint: "Anchor-12" 342 758 basechar 0
AnchorPoint: "Anchor-11" 385 8 basechar 0
AnchorPoint: "Anchor-10" 253 0 basechar 0
LayerCount: 2
Back
Fore
SplineSet
494 758 m 1
 480 658 l 1
 187 658 l 1
 200 758 l 1
 494 758 l 1
516 403 m 0
 516 255 346 211 175 194 c 1
 178 117 218 91 274 91 c 0
 320 91 362 107 411 140 c 1
 463 54 l 1
 405 12 336 -16 257 -16 c 0
 108 -16 33 72 33 206 c 0
 33 351 109 546 327 546 c 0
 452 546 516 481 516 403 c 0
182 283 m 1
 319 295 374 340 374 396 c 0
 374 420 361 449 315 449 c 0
 233 449 195 364 182 283 c 1
EndSplineSet
Substitution2: "'smcp' Lowercase to Small Capitals lookup 28 subtable" emacron.sc
Substitution2: "'aalt' Access All Alternates lookup 0 subtable" emacron.sc
EndChar
StartChar: Ebreve
Encoding: 276 276 67
Width: 521
GlyphClass: 2
Flags: MW
HStem: 0 108<196 445> 299 106<237 438 223 452> 585 107<263 509 263 263> 752 101<333 378.5 333 397>
VStem: 36 504
AnchorPoint: "Anchor-14" 0 0 basechar 0
AnchorPoint: "Anchor-13" 0 0 basechar 0
AnchorPoint: "Anchor-12" 370 921 basechar 0
AnchorPoint: "Anchor-11" 415 0 basechar 0
AnchorPoint: "Anchor-10" 241 0 basechar 0
LayerCount: 2
Back
Fore
SplineSet
349 752 m 0
 250 752 200 825 204 907 c 1
 282 918 l 1
 289 880 311 853 355 853 c 0
 402 853 435 883 452 921 c 1
 532 903 l 1
 514 821 445 752 349 752 c 0
540 692 m 1
 509 585 l 1
 263 585 l 1
 237 405 l 1
 452 405 l 1
 438 299 l 1
 223 299 l 1
 196 108 l 1
 460 108 l 1
 445 0 l 1
 36 0 l 1
 133 692 l 1
 540 692 l 1
EndSplineSet
Substitution2: "'c2sc' Capitals to Small Capitals lookup 27 subtable" ebreve.sc
Substitution2: "'aalt' Access All Alternates lookup 0 subtable" ebreve.sc
Position2: "'cpsp' Capital Spacing lookup 0 subtable" dx=5 dy=0 dh=10 dv=0
EndChar
StartChar: ebreve
Encoding: 277 277 411
Width: 532
GlyphClass: 2
Flags: MW
HStem: -16 107<246 296.5> 449 97<274 338> 635 100<311 356 311 373.5>
VStem: 33 142 181 81<800 811> 374 142<368 408>
AnchorPoint: "Anchor-14" 0 0 basechar 0
AnchorPoint: "Anchor-13" 0 0 basechar 0
AnchorPoint: "Anchor-12" 348 814 basechar 0
AnchorPoint: "Anchor-11" 385 8 basechar 0
AnchorPoint: "Anchor-10" 253 0 basechar 0
LayerCount: 2
Back
Fore
SplineSet
325 635 m 0
 226 635 176 707 181 800 c 1
 262 811 l 1
 267 762 289 735 333 735 c 0
 379 735 414 766 432 814 c 1
 510 796 l 1
 490 703 422 635 325 635 c 0
516 403 m 0
 516 255 346 211 175 194 c 1
 178 117 218 91 274 91 c 0
 320 91 362 107 411 140 c 1
 463 54 l 1
 405 12 336 -16 257 -16 c 0
 108 -16 33 72 33 206 c 0xf4
 33 351 109 546 327 546 c 0
 452 546 516 481 516 403 c 0
182 283 m 1
 319 295 374 340 374 396 c 0
 374 420 361 449 315 449 c 0
 233 449 195 364 182 283 c 1
EndSplineSet
Substitution2: "'smcp' Lowercase to Small Capitals lookup 28 subtable" ebreve.sc
Substitution2: "'aalt' Access All Alternates lookup 0 subtable" ebreve.sc
EndChar
StartChar: Edotaccent
Encoding: 278 278 78
Width: 521
GlyphClass: 2
Flags: MW
HStem: 0 108<196 445> 299 106<237 438 223 452> 585 107<263 509 263 263> 763 166<346.5 378>
VStem: 277 170
AnchorPoint: "Anchor-14" 0 0 basechar 0
AnchorPoint: "Anchor-13" 0 0 basechar 0
AnchorPoint: "Anchor-12" 370 929 basechar 0
AnchorPoint: "Anchor-11" 415 0 basechar 0
AnchorPoint: "Anchor-10" 241 0 basechar 0
LayerCount: 2
Back
Fore
SplineSet
371 929 m 0
 423 929 453 891 447 842 c 0
 440 797 403 763 353 763 c 0
 302 763 271 801 277 850 c 0
 284 895 322 929 371 929 c 0
540 692 m 1
 509 585 l 1
 263 585 l 1
 237 405 l 1
 452 405 l 1
 438 299 l 1
 223 299 l 1
 196 108 l 1
 460 108 l 1
 445 0 l 1
 36 0 l 1
 133 692 l 1
 540 692 l 1
EndSplineSet
Substitution2: "'c2sc' Capitals to Small Capitals lookup 27 subtable" edotaccent.sc
Substitution2: "'aalt' Access All Alternates lookup 0 subtable" edotaccent.sc
Position2: "'cpsp' Capital Spacing lookup 0 subtable" dx=5 dy=0 dh=10 dv=0
EndChar
StartChar: edotaccent
Encoding: 279 279 422
Width: 532
GlyphClass: 2
Flags: MW
HStem: -16 107<246 296.5> 449 97<274 338> 637 166<326.5 357.5>
VStem: 33 142 257 169 374 142<368 408>
AnchorPoint: "Anchor-14" 0 0 basechar 0
AnchorPoint: "Anchor-13" 0 0 basechar 0
AnchorPoint: "Anchor-12" 353 803 basechar 0
AnchorPoint: "Anchor-11" 385 8 basechar 0
AnchorPoint: "Anchor-10" 253 0 basechar 0
LayerCount: 2
Back
Fore
SplineSet
333 637 m 0xf8
 281 637 251 675 257 724 c 0
 263 769 302 803 351 803 c 0
 403 803 433 765 426 716 c 0
 420 671 382 637 333 637 c 0xf8
516 403 m 0xf4
 516 255 346 211 175 194 c 1
 178 117 218 91 274 91 c 0
 320 91 362 107 411 140 c 1
 463 54 l 1
 405 12 336 -16 257 -16 c 0
 108 -16 33 72 33 206 c 0
 33 351 109 546 327 546 c 0
 452 546 516 481 516 403 c 0xf4
182 283 m 1
 319 295 374 340 374 396 c 0
 374 420 361 449 315 449 c 0
 233 449 195 364 182 283 c 1
EndSplineSet
Substitution2: "'smcp' Lowercase to Small Capitals lookup 28 subtable" edotaccent.sc
Substitution2: "'aalt' Access All Alternates lookup 0 subtable" edotaccent.sc
EndChar

StartChar: Eogonek
Encoding: 280 280 33
Width: 520
GlyphClass: 2
Flags: MW
HStem: -242 91<301.5 304.5> 0 108<196 263 407 444 407 407> 299 106<237 438 223 451> 585 107<262 262 262 509>
VStem: 164 107<-128 -114.5>
AnchorPoint: "Anchor-11" 240 0 basechar 0
AnchorPoint: "Anchor-10" 3 534 basechar 0
AnchorPoint: "Anchor-9" 338 692 basechar 0
AnchorPoint: "Anchor-8" 414 0 basechar 0
LayerCount: 2
Fore
SplineSet
262 585 m 1
 237 405 l 1
 451 405 l 1
 438 299 l 1
 223 299 l 1
 196 108 l 1
 459 108 l 1
 444 0 l 1
 407 0 l 1
 288 -44 271 -89 271 -117 c 0
 271 -139 287 -151 316 -151 c 0
 336 -151 355 -148 378 -143 c 1
 358 -235 l 1
 337 -239 317 -242 292 -242 c 0
 215 -242 164 -201 164 -140 c 0
 164 -89 191 -40 263 0 c 1
 36 0 l 1
 133 692 l 1
 539 692 l 1
 509 585 l 1
 262 585 l 1
EndSplineSet
Substitution2: "'c2sc' Capitals to Small Capitals lookup 23 subtable" eogonek.sc
Substitution2: "'aalt' Access All Alternates lookup 0 subtable" eogonek.sc
Position2: "'cpsp' Capital Spacing lookup 0 subtable" dx=5 dy=0 dh=10 dv=0
EndChar

StartChar: eogonek
Encoding: 281 281 166
Width: 532
GlyphClass: 2
Flags: MW
HStem: -234 91<280.5 288> -14 21G 449 97<274 338>
VStem: 33 142 141 108 374 142<368 408>
AnchorPoint: "Anchor-11" 253 0 basechar 0
AnchorPoint: "Anchor-10" 0 0 basechar 0
AnchorPoint: "Anchor-9" 315 530 basechar 0
AnchorPoint: "Anchor-8" 385 8 basechar 0
LayerCount: 2
Fore
SplineSet
516 403 m 0xf4
 516 254 345 211 175 194 c 1
 179 117 218 91 274 91 c 0xf4
 320 91 362 107 411 140 c 1
 463 54 l 1
 428 29 389 8 346 -4 c 1
 270 -37 251 -70 249 -98 c 0
 247 -128 262 -143 299 -143 c 0
 319 -143 338 -141 361 -136 c 1
 344 -227 l 1
 323 -231 301 -234 275 -234 c 0
 192 -234 136 -189 141 -120 c 0xec
 145 -74 175 -39 221 -14 c 1
 96 -1 33 83 33 206 c 0
 33 351 109 546 327 546 c 0
 452 546 516 481 516 403 c 0xf4
182 283 m 1
 319 295 374 340 374 396 c 0
 374 420 361 449 315 449 c 0
 233 449 195 364 182 283 c 1
EndSplineSet
Substitution2: "'smcp' Lowercase to Small Capitals lookup 24 subtable" eogonek.sc
Substitution2: "'aalt' Access All Alternates lookup 0 subtable" eogonek.sc
EndChar
StartChar: Ecaron
Encoding: 282 282 68
Width: 521
GlyphClass: 2
Flags: MW
HStem: 0 108<196 445> 299 106<237 438 223 452> 585 107<263 509 263 263>
VStem: 36 505
AnchorPoint: "Anchor-14" 0 0 basechar 0
AnchorPoint: "Anchor-13" 0 0 basechar 0
AnchorPoint: "Anchor-12" 362 935 basechar 0
AnchorPoint: "Anchor-11" 415 0 basechar 0
AnchorPoint: "Anchor-10" 241 0 basechar 0
LayerCount: 2
Back
Fore
SplineSet
495 935 m 1
 541 875 l 1
 387 751 l 1
 300 751 l 1
 179 875 l 1
 237 935 l 1
 354 852 l 1
 495 935 l 1
540 692 m 1
 509 585 l 1
 263 585 l 1
 237 405 l 1
 452 405 l 1
 438 299 l 1
 223 299 l 1
 196 108 l 1
 460 108 l 1
 445 0 l 1
 36 0 l 1
 133 692 l 1
 540 692 l 1
EndSplineSet
Substitution2: "'c2sc' Capitals to Small Capitals lookup 27 subtable" ecaron.sc
Substitution2: "'aalt' Access All Alternates lookup 0 subtable" ecaron.sc
Position2: "'cpsp' Capital Spacing lookup 0 subtable" dx=5 dy=0 dh=10 dv=0
EndChar
StartChar: ecaron
Encoding: 283 283 412
Width: 532
GlyphClass: 2
Flags: MW
HStem: -16 107<246 296.5> 449 97<274 338> 726 20G<161 161 523 523>
VStem: 33 142 374 142<368 408>
AnchorPoint: "Anchor-14" 0 0 basechar 0
AnchorPoint: "Anchor-13" 0 0 basechar 0
AnchorPoint: "Anchor-12" 344 806 basechar 0
AnchorPoint: "Anchor-11" 385 8 basechar 0
AnchorPoint: "Anchor-10" 253 0 basechar 0
LayerCount: 2
Back
Fore
SplineSet
368 615 m 1
 281 615 l 1
 161 746 l 1
 217 806 l 1
 333 717 l 1
 477 806 l 1
 523 746 l 1
 368 615 l 1
327 546 m 0
 452 546 516 481 516 403 c 0
 516 255 346 211 175 194 c 1
 178 117 218 91 274 91 c 0
 320 91 362 107 411 140 c 1
 463 54 l 1
 405 12 336 -16 257 -16 c 0
 108 -16 33 72 33 206 c 0
 33 351 109 546 327 546 c 0
182 283 m 1
 319 295 374 340 374 396 c 0
 374 420 361 449 315 449 c 0
 233 449 195 364 182 283 c 1
EndSplineSet
Substitution2: "'smcp' Lowercase to Small Capitals lookup 28 subtable" ecaron.sc
Substitution2: "'aalt' Access All Alternates lookup 0 subtable" ecaron.sc
EndChar

StartChar: gcircumflex
Encoding: 285 285 170
Width: 575
GlyphClass: 2
Flags: MW
HStem: -221 110<179 233.5 179 284.5> 0 106<226 232.5> 443 103<274 344>
VStem: 31 145<169 258 169 279>
AnchorPoint: "Anchor-11" 0 0 basechar 0
AnchorPoint: "Anchor-10" 0 0 basechar 0
AnchorPoint: "Anchor-9" 330 530 basechar 0
AnchorPoint: "Anchor-8" 0 0 basechar 0
LayerCount: 2
Fore
SplineSet
170 684 m 1
 326 815 l 1
 412 815 l 1
 532 684 l 1
 473 624 l 1
 357 713 l 1
 217 624 l 1
 170 684 l 1
333 546 m 0
 402 546 472 531 544 493 c 1
 476 34 l 1
 450 -149 363 -221 206 -221 c 0
 141 -221 66 -199 11 -165 c 1
 59 -69 l 1
 104 -94 155 -111 203 -111 c 0
 264 -111 323 -93 338 17 c 2
 346 72 l 1
 310 30 261 0 204 0 c 0
 91 0 31 82 31 204 c 0
 31 354 111 546 333 546 c 0
331 443 m 0
 217 443 176 309 176 207 c 0
 176 131 207 106 245 106 c 0
 289 106 326 140 359 186 c 1
 397 432 l 1
 374 440 357 443 331 443 c 0
EndSplineSet
Substitution2: "'smcp' Lowercase to Small Capitals lookup 24 subtable" gcircumflex.sc
Substitution2: "'aalt' Access All Alternates lookup 0 subtable" gcircumflex.sc
EndChar
StartChar: Gbreve
Encoding: 286 286 99
Width: 632
GlyphClass: 2
Flags: MW
HStem: -16 110<276.5 335 276.5 351> 288 107<351 446 350 602> 599 109<329 440.5> 752 101<402 447.5 402 466>
VStem: 43 150<190.5 321.5 190.5 361.5>
AnchorPoint: "Anchor-14" 0 0 basechar 0
AnchorPoint: "Anchor-13" 0 0 basechar 0
AnchorPoint: "Anchor-12" 439 921 basechar 0
AnchorPoint: "Anchor-11" 0 0 basechar 0
AnchorPoint: "Anchor-10" 304 0 basechar 0
LayerCount: 2
Back
Fore
SplineSet
418 752 m 0
 319 752 269 825 273 907 c 1
 351 918 l 1
 358 880 380 853 424 853 c 0
 471 853 504 883 521 921 c 1
 601 903 l 1
 583 821 514 752 418 752 c 0
414 708 m 0
 511 708 580 673 629 622 c 1
 543 545 l 1
 503 583 468 599 413 599 c 0
 245 599 193 398 193 245 c 0
 193 136 236 94 317 94 c 0
 353 94 388 102 421 120 c 1
 446 288 l 1
 350 288 l 1
 351 395 l 1
 602 395 l 1
 555 56 l 1
 482 10 396 -16 306 -16 c 0
 135 -16 43 79 43 259 c 0
 43 464 148 708 414 708 c 0
EndSplineSet
Substitution2: "'c2sc' Capitals to Small Capitals lookup 27 subtable" gbreve.sc
Substitution2: "'aalt' Access All Alternates lookup 0 subtable" gbreve.sc
Position2: "'cpsp' Capital Spacing lookup 0 subtable" dx=5 dy=0 dh=10 dv=0
EndChar

StartChar: gbreve
Encoding: 287 287 169
Width: 575
GlyphClass: 2
Flags: MW
HStem: -221 110<179 233.5 179 284.5> 0 106<226 232.5> 443 103<274 344> 635 100<333 378 333 395.5>
VStem: 31 145<169 258 169 279> 203 81<800 811>
AnchorPoint: "Anchor-11" 0 0 basechar 0
AnchorPoint: "Anchor-10" 0 0 basechar 0
AnchorPoint: "Anchor-9" 330 530 basechar 0
AnchorPoint: "Anchor-8" 0 0 basechar 0
LayerCount: 2
Fore
SplineSet
347 635 m 0
 248 635 198 707 203 800 c 1
 284 811 l 1
 289 762 311 735 355 735 c 0
 401 735 436 766 454 814 c 1
 532 796 l 1
 512 703 444 635 347 635 c 0
333 546 m 0
 402 546 472 531 544 493 c 1
 476 34 l 1
 450 -149 363 -221 206 -221 c 0
 141 -221 66 -199 11 -165 c 1
 59 -69 l 1
 104 -94 155 -111 203 -111 c 0
 264 -111 323 -93 338 17 c 2
 346 72 l 1
 310 30 261 0 204 0 c 0
 91 0 31 82 31 204 c 0xf8
 31 354 111 546 333 546 c 0
331 443 m 0xf8
 217 443 176 309 176 207 c 0
 176 131 207 106 245 106 c 0
 289 106 326 140 359 186 c 1
 397 432 l 1
 374 440 357 443 331 443 c 0xf8
EndSplineSet
Substitution2: "'smcp' Lowercase to Small Capitals lookup 24 subtable" gbreve.sc
Substitution2: "'aalt' Access All Alternates lookup 0 subtable" gbreve.sc
EndChar
StartChar: Gdotaccent
Encoding: 288 288 103
Width: 632
GlyphClass: 2
Flags: MW
HStem: -16 110<276.5 335 276.5 351> 288 107<351 446 350 602> 599 109<329 440.5> 763 166<416.5 448>
VStem: 43 150<190.5 321.5 190.5 361.5> 347 170
AnchorPoint: "Anchor-14" 0 0 basechar 0
AnchorPoint: "Anchor-13" 0 0 basechar 0
AnchorPoint: "Anchor-12" 440 929 basechar 0
AnchorPoint: "Anchor-11" 0 0 basechar 0
AnchorPoint: "Anchor-10" 304 0 basechar 0
LayerCount: 2
Back
Fore
SplineSet
441 929 m 0
 493 929 523 891 517 842 c 0
 510 797 473 763 423 763 c 0
 372 763 341 801 347 850 c 0
 354 895 392 929 441 929 c 0
414 708 m 0
 511 708 580 673 629 622 c 1
 543 545 l 1
 503 583 468 599 413 599 c 0
 245 599 193 398 193 245 c 0
 193 136 236 94 317 94 c 0
 353 94 388 102 421 120 c 1
 446 288 l 1
 350 288 l 1
 351 395 l 1
 602 395 l 1
 555 56 l 1
 482 10 396 -16 306 -16 c 0
 135 -16 43 79 43 259 c 0
 43 464 148 708 414 708 c 0
EndSplineSet
Substitution2: "'c2sc' Capitals to Small Capitals lookup 27 subtable" gdotaccent.sc
Substitution2: "'aalt' Access All Alternates lookup 0 subtable" gdotaccent.sc
Position2: "'cpsp' Capital Spacing lookup 0 subtable" dx=5 dy=0 dh=10 dv=0
EndChar

StartChar: gdotaccent
Encoding: 289 289 172
Width: 575
GlyphClass: 2
Flags: MW
HStem: -221 110<179 233.5 179 284.5> 0 106<226 232.5> 443 103<274 344> 637 166<341.5 372.5>
VStem: 31 145<169 258 169 279> 272 169
AnchorPoint: "Anchor-11" 0 0 basechar 0
AnchorPoint: "Anchor-10" 0 0 basechar 0
AnchorPoint: "Anchor-9" 330 530 basechar 0
AnchorPoint: "Anchor-8" 0 0 basechar 0
LayerCount: 2
Fore
SplineSet
366 803 m 0
 418 803 448 765 441 716 c 0
 435 671 397 637 348 637 c 0
 296 637 266 675 272 724 c 0
 278 769 317 803 366 803 c 0
333 546 m 0
 402 546 472 531 544 493 c 1
 476 34 l 1
 450 -149 363 -221 206 -221 c 0
 141 -221 66 -199 11 -165 c 1
 59 -69 l 1
 104 -94 155 -111 203 -111 c 0
 264 -111 323 -93 338 17 c 2
 346 72 l 1
 310 30 261 0 204 0 c 0
 91 0 31 82 31 204 c 0
 31 354 111 546 333 546 c 0
331 443 m 0
 217 443 176 309 176 207 c 0
 176 131 207 106 245 106 c 0
 289 106 326 140 359 186 c 1
 397 432 l 1
 374 440 357 443 331 443 c 0
EndSplineSet
Substitution2: "'smcp' Lowercase to Small Capitals lookup 24 subtable" gdotaccent.sc
Substitution2: "'aalt' Access All Alternates lookup 0 subtable" gdotaccent.sc
EndChar

StartChar: gcommaaccent
Encoding: 291 291 171
Width: 575
GlyphClass: 2
Flags: MW
HStem: -221 110<179 233.5 179 284.5> 0 106<226 232.5> 443 103<274 344>
VStem: 31 145<169 258 169 279> 277 145<656 680>
AnchorPoint: "Anchor-11" 0 0 basechar 0
AnchorPoint: "Anchor-10" 0 0 basechar 0
AnchorPoint: "Anchor-9" 330 530 basechar 0
AnchorPoint: "Anchor-8" 0 0 basechar 0
LayerCount: 2
Fore
SplineSet
342 600 m 0
 301 600 277 630 277 665 c 0
 277 695 288 717 314 758 c 2
 371 848 l 1
 443 848 l 1
 397 731 l 1
 412 719 422 702 422 680 c 0
 422 632 385 600 342 600 c 0
333 546 m 0
 402 546 472 531 544 493 c 1
 476 34 l 1
 450 -149 363 -221 206 -221 c 0
 141 -221 66 -199 11 -165 c 1
 59 -69 l 1
 104 -94 155 -111 203 -111 c 0
 264 -111 323 -93 338 17 c 2
 346 72 l 1
 310 30 261 0 204 0 c 0
 91 0 31 82 31 204 c 0
 31 354 111 546 333 546 c 0
331 443 m 0
 217 443 176 309 176 207 c 0
 176 131 207 106 245 106 c 0
 289 106 326 140 359 186 c 1
 397 432 l 1
 374 440 357 443 331 443 c 0
EndSplineSet
Substitution2: "'smcp' Lowercase to Small Capitals lookup 24 subtable" gcommaaccent.sc
Substitution2: "'aalt' Access All Alternates lookup 0 subtable" gcommaaccent.sc
EndChar

StartChar: Hcircumflex
Encoding: 292 292 42
Width: 660
GlyphClass: 2
Flags: MW
HStem: 0 21G<36 181 36 36 406 406 406 551> 303 116<239 447 223 464> 672 20G<133 278 278 278 503 648 648 648>
VStem: 36 612
AnchorPoint: "Anchor-11" 0 0 basechar 0
AnchorPoint: "Anchor-10" 2 534 basechar 0
AnchorPoint: "Anchor-9" 390 692 basechar 0
AnchorPoint: "Anchor-8" 0 0 basechar 0
LayerCount: 2
Fore
SplineSet
419 840 m 1
 278 756 l 1
 231 816 l 1
 386 940 l 1
 472 940 l 1
 593 816 l 1
 537 756 l 1
 419 840 l 1
447 303 m 1
 223 303 l 1
 181 0 l 1
 36 0 l 1
 133 692 l 1
 278 692 l 1
 239 419 l 1
 464 419 l 1
 503 692 l 1
 648 692 l 1
 551 0 l 1
 406 0 l 1
 447 303 l 1
EndSplineSet
Substitution2: "'c2sc' Capitals to Small Capitals lookup 23 subtable" hcircumflex.sc
Substitution2: "'aalt' Access All Alternates lookup 0 subtable" hcircumflex.sc
Position2: "'cpsp' Capital Spacing lookup 0 subtable" dx=5 dy=0 dh=10 dv=0
EndChar
StartChar: hcircumflex
Encoding: 293 293 471
Width: 571
GlyphClass: 2
Flags: MW
HStem: 0 21G<32 171 32 32 330 469 330 330> 429 117<320 446> 736 20G<277 277>
VStem: 32 512 380 145.42
AnchorPoint: "Anchor-14" 284 265 basechar 0
AnchorPoint: "Anchor-13" 474 868 basechar 0
AnchorPoint: "Anchor-12" 380 989 basechar 0
AnchorPoint: "Anchor-11" 0 0 basechar 0
AnchorPoint: "Anchor-10" 251 0 basechar 0
LayerCount: 2
Back
Fore
SplineSet
488 805 m 1xf0
 370 889 l 1
 229 805 l 1
 182 865 l 1
 337 989 l 1
 423 989 l 1
 544 865 l 1
 488 805 l 1xf0
402 546 m 0xe8
 490 546 537 484 523 382 c 2
 469 0 l 1
 330 0 l 1
 380 355 l 2
 388 414 370 429 344 429 c 0
 296 429 251 373 213 298 c 1
 171 0 l 1
 32 0 l 1
 136 741 l 1
 277 756 l 1
 232 439 l 1
 271 502 333 546 402 546 c 0xe8
EndSplineSet
Substitution2: "'smcp' Lowercase to Small Capitals lookup 28 subtable" hcircumflex.sc
Substitution2: "'aalt' Access All Alternates lookup 0 subtable" hcircumflex.sc
EndChar
StartChar: Hbar
Encoding: 294 294 108
Width: 676
GlyphClass: 2
Flags: MW
HStem: 0 21G<42 187 42 42 412 557 412 412> 303 116<245 454 229 470> 502 86<66 112 53 124 269 482 639 687> 502 190<53 284 53 284 257 257 257 284 139 482 627 654 627 627>
VStem: 42 657<0 588>
AnchorPoint: "Anchor-14" 348 346 basechar 0
AnchorPoint: "Anchor-13" 0 0 basechar 0
AnchorPoint: "Anchor-12" 397 692 basechar 0
AnchorPoint: "Anchor-11" 0 0 basechar 0
AnchorPoint: "Anchor-10" 303 0 basechar 0
LayerCount: 2
Back
Fore
SplineSet
699 588 m 1xe8
 687 502 l 1
 627 502 l 1
 557 0 l 1
 412 0 l 1
 454 303 l 1
 229 303 l 1
 187 0 l 1
 42 0 l 1
 112 502 l 1
 53 502 l 1xd8
 66 588 l 1
 124 588 l 1xe8
 139 692 l 1
 284 692 l 1xd8
 269 588 l 1
 494 588 l 1xe8
 509 692 l 1
 654 692 l 1xd8
 639 588 l 1
 699 588 l 1xe8
470 419 m 1
 482 502 l 1
 257 502 l 1
 245 419 l 1
 470 419 l 1
EndSplineSet
Substitution2: "'c2sc' Capitals to Small Capitals lookup 27 subtable" hbar.sc
Substitution2: "'aalt' Access All Alternates lookup 0 subtable" hbar.sc
Position2: "'cpsp' Capital Spacing lookup 0 subtable" dx=5 dy=0 dh=10 dv=0
EndChar

StartChar: hbar
Encoding: 295 295 174
Width: 580
GlyphClass: 2
Flags: MW
HStem: 0 21G<41 181 41 41 339 479 339 339> 429 117<328 455> 598 87<72 125 60 137 276 393> 721 20G<145 145> 736 20G<286 286>
VStem: 141 140 393.04 141.38
AnchorPoint: "Anchor-11" 257 0 basechar 0
AnchorPoint: "Anchor-10" 0 0 basechar 0
AnchorPoint: "Anchor-9" 361 741 basechar 0
AnchorPoint: "Anchor-8" 0 0 basechar 0
LayerCount: 2
Fore
SplineSet
411 546 m 0xee
 499 546 546 484 532 383 c 2
 479 0 l 1
 339 0 l 1
 391 355 l 2
 400 417 380 429 349 429 c 0
 307 429 261 373 222 298 c 1
 181 0 l 1
 41 0 l 1
 125 598 l 1
 60 598 l 1
 72 685 l 1
 137 685 l 1
 145 741 l 1xf6
 286 756 l 1
 276 685 l 1
 418 685 l 1
 393 598 l 1
 263 598 l 1
 240 437 l 1
 281 502 347 546 411 546 c 0xee
EndSplineSet
Substitution2: "'smcp' Lowercase to Small Capitals lookup 24 subtable" hbar.sc
Substitution2: "'aalt' Access All Alternates lookup 0 subtable" hbar.sc
EndChar

StartChar: Itilde
Encoding: 296 296 53
Width: 291
GlyphClass: 2
Flags: MW
HStem: 0 21G<36 182 36 36> 672 20G<133 279 279 279> 766 102<268.5 295 268.5 304.5> 812 102<157.5 185>
VStem: 36 376
AnchorPoint: "Anchor-11" 0 0 basechar 0
AnchorPoint: "Anchor-10" 3 534 basechar 0
AnchorPoint: "Anchor-9" 206 692 basechar 0
AnchorPoint: "Anchor-8" 170 0 basechar 0
LayerCount: 2
Fore
SplineSet
279 766 m 0xe8
 226 766 200 812 170 812 c 0
 145 812 129 795 109 765 c 1
 41 805 l 1
 73 865 120 914 176 914 c 0xd8
 233 914 253 868 284 868 c 0
 306 868 323 884 344 913 c 1
 412 874 l 1
 378 809 330 766 279 766 c 0xe8
182 0 m 1xd8
 36 0 l 1
 133 692 l 1
 279 692 l 1
 182 0 l 1xd8
EndSplineSet
Substitution2: "'c2sc' Capitals to Small Capitals lookup 23 subtable" itilde.sc
Substitution2: "'aalt' Access All Alternates lookup 0 subtable" itilde.sc
Position2: "'cpsp' Capital Spacing lookup 0 subtable" dx=5 dy=0 dh=10 dv=0
EndChar
StartChar: itilde
Encoding: 297 297 496
Width: 278
GlyphClass: 2
Flags: MW
HStem: 0 21G<32 172 32 32> 510 20G<106 246 246 246> 640 102<243.5 270 243.5 279.5> 686 102<132.5 160> 728 20G<387 387>
VStem: 16 371<679 748>
AnchorPoint: "Anchor-14" 0 0 basechar 0
AnchorPoint: "Anchor-13" 0 0 basechar 0
AnchorPoint: "Anchor-12" 204 788 basechar 0
AnchorPoint: "Anchor-11" 147 0 basechar 0
AnchorPoint: "Anchor-10" 102 0 basechar 0
LayerCount: 2
Back
Fore
SplineSet
254 640 m 0xe4
 201 640 175 686 145 686 c 0
 120 686 104 669 84 639 c 1
 16 679 l 1xd4
 48 739 95 788 151 788 c 0
 208 788 228 742 259 742 c 0
 281 742 298 758 319 787 c 1xe4
 387 748 l 1xcc
 353 683 305 640 254 640 c 0xe4
246 530 m 1xcc
 172 0 l 1
 32 0 l 1
 106 530 l 1
 246 530 l 1xcc
EndSplineSet
Substitution2: "'smcp' Lowercase to Small Capitals lookup 28 subtable" itilde.sc
Substitution2: "'aalt' Access All Alternates lookup 0 subtable" itilde.sc
EndChar
StartChar: Imacron
Encoding: 298 298 129
Width: 290
GlyphClass: 2
Flags: MW
HStem: 0 21G<36 181 36 36> 672 20G<133 278 278 278> 784 100<85 365 72 379>
VStem: 36 343
AnchorPoint: "Anchor-14" 0 0 basechar 0
AnchorPoint: "Anchor-13" 0 0 basechar 0
AnchorPoint: "Anchor-12" 227 884 basechar 0
AnchorPoint: "Anchor-11" 158 0 basechar 0
AnchorPoint: "Anchor-10" 108 0 basechar 0
LayerCount: 2
Back
Fore
SplineSet
365 784 m 1
 72 784 l 1
 85 884 l 1
 379 884 l 1
 365 784 l 1
278 692 m 1
 181 0 l 1
 36 0 l 1
 133 692 l 1
 278 692 l 1
EndSplineSet
Substitution2: "'c2sc' Capitals to Small Capitals lookup 27 subtable" imacron.sc
Substitution2: "'aalt' Access All Alternates lookup 0 subtable" imacron.sc
Position2: "'cpsp' Capital Spacing lookup 0 subtable" dx=5 dy=0 dh=10 dv=0
EndChar

StartChar: imacron
Encoding: 299 299 185
Width: 278
GlyphClass: 2
Flags: MW
HStem: 0 21G<32 172 32 32> 510 20G<106 246 246 246> 658 100<47 354 60 340>
VStem: 32 322
AnchorPoint: "Anchor-11" 0 0 basechar 0
AnchorPoint: "Anchor-10" 0 0 basechar 0
AnchorPoint: "Anchor-9" 176 530 basechar 0
AnchorPoint: "Anchor-8" 163 0 basechar 0
LayerCount: 2
Fore
SplineSet
47 658 m 1
 60 758 l 1
 354 758 l 1
 340 658 l 1
 47 658 l 1
172 0 m 1
 32 0 l 1
 106 530 l 1
 246 530 l 1
 172 0 l 1
EndSplineSet
Substitution2: "'smcp' Lowercase to Small Capitals lookup 24 subtable" imacron.sc
Substitution2: "'aalt' Access All Alternates lookup 0 subtable" imacron.sc
EndChar
StartChar: Ibreve
Encoding: 300 300 118
Width: 290
GlyphClass: 2
Flags: MW
HStem: 0 21G<36 181 36 36> 672 20G<133 278 278 278> 752 101<199 244.5 199 263>
VStem: 36 362
AnchorPoint: "Anchor-14" 0 0 basechar 0
AnchorPoint: "Anchor-13" 0 0 basechar 0
AnchorPoint: "Anchor-12" 236 921 basechar 0
AnchorPoint: "Anchor-11" 158 0 basechar 0
AnchorPoint: "Anchor-10" 108 0 basechar 0
LayerCount: 2
Back
Fore
SplineSet
215 752 m 0
 116 752 66 825 70 907 c 1
 148 918 l 1
 155 880 177 853 221 853 c 0
 268 853 301 883 318 921 c 1
 398 903 l 1
 380 821 311 752 215 752 c 0
278 692 m 1
 181 0 l 1
 36 0 l 1
 133 692 l 1
 278 692 l 1
EndSplineSet
Substitution2: "'c2sc' Capitals to Small Capitals lookup 27 subtable" ibreve.sc
Substitution2: "'aalt' Access All Alternates lookup 0 subtable" ibreve.sc
Position2: "'cpsp' Capital Spacing lookup 0 subtable" dx=5 dy=0 dh=10 dv=0
EndChar
StartChar: ibreve
Encoding: 301 301 480
Width: 278
GlyphClass: 2
Flags: MW
HStem: 0 21G<32 172 32 32> 510 20G<106 246 246 246> 635 100<171 216 171 233.5>
VStem: 41 81<800 811>
AnchorPoint: "Anchor-14" 0 0 basechar 0
AnchorPoint: "Anchor-13" 0 0 basechar 0
AnchorPoint: "Anchor-12" 208 814 basechar 0
AnchorPoint: "Anchor-11" 147 0 basechar 0
AnchorPoint: "Anchor-10" 102 0 basechar 0
LayerCount: 2
Back
Fore
SplineSet
185 635 m 0
 86 635 36 707 41 800 c 1
 122 811 l 1
 127 762 149 735 193 735 c 0
 239 735 274 766 292 814 c 1
 370 796 l 1
 350 703 282 635 185 635 c 0
246 530 m 1
 172 0 l 1
 32 0 l 1
 106 530 l 1
 246 530 l 1
EndSplineSet
Substitution2: "'smcp' Lowercase to Small Capitals lookup 28 subtable" ibreve.sc
Substitution2: "'aalt' Access All Alternates lookup 0 subtable" ibreve.sc
EndChar

StartChar: Iogonek
Encoding: 302 302 52
Width: 291
GlyphClass: 2
Flags: MW
HStem: -242 91<56.5 59.5> 0 21G<162 182 162 162> 672 20G<133 279 279 279>
VStem: -81 107<-128 -112>
AnchorPoint: "Anchor-11" 0 0 basechar 0
AnchorPoint: "Anchor-10" 3 534 basechar 0
AnchorPoint: "Anchor-9" 206 692 basechar 0
AnchorPoint: "Anchor-8" 170 0 basechar 0
LayerCount: 2
Fore
SplineSet
279 692 m 1
 182 0 l 1
 162 0 l 1
 43 -44 26 -89 26 -117 c 0
 26 -139 42 -151 71 -151 c 0
 91 -151 110 -148 133 -143 c 1
 113 -235 l 1
 92 -239 72 -242 47 -242 c 0
 -30 -242 -81 -201 -81 -140 c 0
 -81 -84 -50 -32 37 10 c 1
 133 692 l 1
 279 692 l 1
EndSplineSet
Substitution2: "'c2sc' Capitals to Small Capitals lookup 23 subtable" iogonek.sc
Substitution2: "'aalt' Access All Alternates lookup 0 subtable" iogonek.sc
Position2: "'cpsp' Capital Spacing lookup 0 subtable" dx=5 dy=0 dh=10 dv=0
EndChar
StartChar: iogonek
Encoding: 303 303 493
Width: 278
GlyphClass: 2
Flags: MW
HStem: -242 91<33.5 36.5> 0 21G<139 172 139 139> 510 20G<106 246 246 246> 637 166<187.5 218.5>
VStem: -104 107<-128 -110> 118 169
AnchorPoint: "Anchor-14" 0 0 basechar 0
AnchorPoint: "Anchor-13" 0 0 basechar 0
AnchorPoint: "Anchor-12" 214 803 basechar 0
AnchorPoint: "Anchor-11" 147 0 basechar 0
AnchorPoint: "Anchor-10" 102 0 basechar 0
LayerCount: 2
Back
Fore
SplineSet
212 803 m 0
 264 803 294 765 287 716 c 0
 281 671 243 637 194 637 c 0
 142 637 112 675 118 724 c 0
 124 769 163 803 212 803 c 0
35 19 m 1
 106 530 l 1
 246 530 l 1
 172 0 l 1
 139 0 l 1
 20 -44 3 -89 3 -117 c 0
 3 -139 19 -151 48 -151 c 0
 68 -151 87 -148 110 -143 c 1
 90 -235 l 1
 69 -239 49 -242 24 -242 c 0
 -53 -242 -104 -201 -104 -140 c 0
 -104 -80 -68 -24 35 19 c 1
EndSplineSet
Substitution2: "'smcp' Lowercase to Small Capitals lookup 28 subtable" iogonek.sc
Substitution2: "'aalt' Access All Alternates lookup 0 subtable" iogonek.sc
EndChar

StartChar: Idotaccent
Encoding: 304 304 49
Width: 291
GlyphClass: 2
Flags: MW
HStem: 0 21G<36 182 36 36> 672 20G<133 279 279 279> 763 166<212.5 243.5>
VStem: 143 169
AnchorPoint: "Anchor-11" 0 0 basechar 0
AnchorPoint: "Anchor-10" 3 534 basechar 0
AnchorPoint: "Anchor-9" 206 692 basechar 0
AnchorPoint: "Anchor-8" 170 0 basechar 0
LayerCount: 2
Fore
SplineSet
237 929 m 0
 289 929 319 891 312 842 c 0
 306 797 268 763 219 763 c 0
 167 763 137 801 143 850 c 0
 149 895 188 929 237 929 c 0
182 0 m 1
 36 0 l 1
 133 692 l 1
 279 692 l 1
 182 0 l 1
EndSplineSet
Substitution2: "'c2sc' Capitals to Small Capitals lookup 23 subtable" i.sc.loclTRK
Substitution2: "'aalt' Access All Alternates lookup 0 subtable" i.sc.loclTRK
Position2: "'cpsp' Capital Spacing lookup 0 subtable" dx=5 dy=0 dh=10 dv=0
EndChar

StartChar: dotlessi
Encoding: 305 305 177
Width: 278
GlyphClass: 2
Flags: MW
HStem: 0 21G<32 172 32 32> 510 20G<106 246 246 246>
VStem: 32 214
AnchorPoint: "Anchor-11" 0 0 basechar 0
AnchorPoint: "Anchor-10" 0 0 basechar 0
AnchorPoint: "Anchor-9" 176 530 basechar 0
AnchorPoint: "Anchor-8" 163 0 basechar 0
LayerCount: 2
Fore
SplineSet
172 0 m 1
 32 0 l 1
 106 530 l 1
 246 530 l 1
 172 0 l 1
EndSplineSet
Substitution2: "'smcp' Lowercase to Small Capitals lookup 24 subtable" dotlessi.sc
Substitution2: "'aalt' Access All Alternates lookup 0 subtable" dotlessi.sc
EndChar
StartChar: IJ
Encoding: 306 306 116
Width: 598
GlyphClass: 2
Flags: MW
HStem: 0 21G<36 181 36 36> 672 20G<133 278 278 278 444 589 589 589>
VStem: 36 553
AnchorPoint: "Anchor-14" 0 0 basechar 0
AnchorPoint: "Anchor-13" 0 0 basechar 0
AnchorPoint: "Anchor-12" 516 692 basechar 0
AnchorPoint: "Anchor-11" 158 0 basechar 0
AnchorPoint: "Anchor-10" 108 0 basechar 0
LayerCount: 2
Back
Fore
SplineSet
278 692 m 1
 181 0 l 1
 36 0 l 1
 133 692 l 1
 278 692 l 1
589 692 m 1
 506 101 l 2
 482 -67 380 -125 261 -162 c 1
 234 -56 l 1
 328 -21 350 26 362 111 c 2
 444 692 l 1
 589 692 l 1
EndSplineSet
Substitution2: "'c2sc' Capitals to Small Capitals lookup 27 subtable" ij.sc
Substitution2: "'aalt' Access All Alternates lookup 0 subtable" ij.sc
Position2: "'cpsp' Capital Spacing lookup 0 subtable" dx=5 dy=0 dh=10 dv=0
EndChar

StartChar: ij
Encoding: 307 307 184
Width: 551
GlyphClass: 2
Flags: MW
HStem: -220 21G<217 217> 0 21G<32 172 32 32> 510 20G<106 246 246 246 380 520 520 520> 637 166<187.5 218.5 461.5 492.5>
VStem: 118 169 392 169
AnchorPoint: "Anchor-11" 0 0 basechar 0
AnchorPoint: "Anchor-10" 0 0 basechar 0
AnchorPoint: "Anchor-9" 450 530 basechar 0
AnchorPoint: "Anchor-8" 163 0 basechar 0
LayerCount: 2
Fore
SplineSet
212 803 m 0
 264 803 294 765 287 716 c 0
 281 671 243 637 194 637 c 0
 142 637 112 675 118 724 c 0
 124 769 163 803 212 803 c 0
486 803 m 0
 538 803 568 765 561 716 c 0
 555 671 517 637 468 637 c 0
 416 637 386 675 392 724 c 0
 398 769 437 803 486 803 c 0
172 0 m 1
 32 0 l 1
 106 530 l 1
 246 530 l 1
 172 0 l 1
452 51 m 2
 429 -116 343 -173 217 -220 c 1
 181 -117 l 1
 256 -87 298 -54 312 46 c 2
 380 530 l 1
 520 530 l 1
 452 51 l 2
EndSplineSet
Substitution2: "'smcp' Lowercase to Small Capitals lookup 24 subtable" ij.sc
Substitution2: "'aalt' Access All Alternates lookup 0 subtable" ij.sc
EndChar

StartChar: Jcircumflex
Encoding: 308 308 55
Width: 308
GlyphClass: 2
Flags: MW
HStem: 672 20G<154 299 299 299>
VStem: -56 485
AnchorPoint: "Anchor-11" 0 0 basechar 0
AnchorPoint: "Anchor-10" 0 0 basechar 0
AnchorPoint: "Anchor-9" 226 692 basechar 0
AnchorPoint: "Anchor-8" 0 0 basechar 0
LayerCount: 2
Fore
SplineSet
255 840 m 1
 114 756 l 1
 67 816 l 1
 222 940 l 1
 308 940 l 1
 429 816 l 1
 373 756 l 1
 255 840 l 1
216 101 m 2
 192 -67 90 -125 -29 -162 c 1
 -56 -56 l 1
 38 -21 60 26 72 111 c 2
 154 692 l 1
 299 692 l 1
 216 101 l 2
EndSplineSet
Substitution2: "'c2sc' Capitals to Small Capitals lookup 23 subtable" jcircumflex.sc
Substitution2: "'aalt' Access All Alternates lookup 0 subtable" jcircumflex.sc
Position2: "'cpsp' Capital Spacing lookup 0 subtable" dx=5 dy=0 dh=10 dv=0
EndChar

StartChar: jcircumflex
Encoding: 309 309 190
Width: 273
GlyphClass: 2
Flags: MW
HStem: -220 21G<-61 -61> 510 20G<102 242 242 242>
VStem: -97 472
AnchorPoint: "Anchor-11" 0 0 basechar 0
AnchorPoint: "Anchor-10" 0 0 basechar 0
AnchorPoint: "Anchor-9" 172 530 basechar 0
AnchorPoint: "Anchor-8" 0 0 basechar 0
LayerCount: 2
Fore
SplineSet
13 684 m 1
 169 815 l 1
 255 815 l 1
 375 684 l 1
 316 624 l 1
 200 713 l 1
 60 624 l 1
 13 684 l 1
174 51 m 2
 151 -116 65 -173 -61 -220 c 1
 -97 -117 l 1
 -22 -87 20 -54 34 46 c 2
 102 530 l 1
 242 530 l 1
 174 51 l 2
EndSplineSet
Substitution2: "'smcp' Lowercase to Small Capitals lookup 24 subtable" jcircumflex.sc
Substitution2: "'aalt' Access All Alternates lookup 0 subtable" jcircumflex.sc
EndChar
StartChar: Kcommaaccent
Encoding: 310 310 139
Width: 613
GlyphClass: 2
Flags: MW
HStem: 0 21G<36 181 36 36 419 419 419 586> 672 20G<133 278 278 278 507 665 665 665>
VStem: 36 629 190 145<-150 -126>
AnchorPoint: "Anchor-14" 0 0 basechar 0
AnchorPoint: "Anchor-13" 0 0 basechar 0
AnchorPoint: "Anchor-12" 385 692 basechar 0
AnchorPoint: "Anchor-11" 0 0 basechar 0
AnchorPoint: "Anchor-10" 281 0 basechar 0
LayerCount: 2
Back
Fore
SplineSet
278 692 m 1xe0
 181 0 l 1
 36 0 l 1
 133 692 l 1
 278 692 l 1xe0
665 692 m 1
 391 371 l 1
 586 0 l 1
 419 0 l 1
 238 369 l 1
 507 692 l 1
 665 692 l 1
268 -70 m 0xd0
 309 -70 335 -99 335 -135 c 0
 335 -165 324 -187 298 -228 c 2
 241 -318 l 1
 169 -318 l 1
 215 -201 l 1
 200 -189 190 -172 190 -150 c 0
 190 -102 225 -70 268 -70 c 0xd0
EndSplineSet
Substitution2: "'c2sc' Capitals to Small Capitals lookup 27 subtable" kcommaaccent.sc
Substitution2: "'aalt' Access All Alternates lookup 0 subtable" kcommaaccent.sc
Position2: "'cpsp' Capital Spacing lookup 0 subtable" dx=5 dy=0 dh=10 dv=0
EndChar
StartChar: kcommaaccent
Encoding: 311 311 507
Width: 561
GlyphClass: 2
Flags: MW
HStem: 0 21G<32 172 32 32 352 506 352 352> 445 101<336.5 454.5> 737 20G<277 277>
VStem: 166 145<-150 -126> 407 144<379.5 413.5>
AnchorPoint: "Anchor-14" 0 0 basechar 0
AnchorPoint: "Anchor-13" 0 0 basechar 0
AnchorPoint: "Anchor-12" 368 741 basechar 0
AnchorPoint: "Anchor-11" 0 0 basechar 0
AnchorPoint: "Anchor-10" 257 0 basechar 0
LayerCount: 2
Back
Fore
SplineSet
277 757 m 1
 235 455 l 1
 287 519 347 546 412 546 c 0
 497 546 551 495 551 421 c 0
 551 338 503 274 402 235 c 1
 506 0 l 1
 352 0 l 1
 248 257 l 1
 367 293 407 338 407 398 c 0
 407 429 390 445 359 445 c 0
 314 445 261 409 217 326 c 1
 172 0 l 1
 32 0 l 1
 136 741 l 1
 277 757 l 1
244 -70 m 0
 285 -70 311 -99 311 -135 c 0
 311 -165 300 -187 274 -228 c 2
 217 -318 l 1
 145 -318 l 1
 191 -201 l 1
 176 -189 166 -172 166 -150 c 0
 166 -102 201 -70 244 -70 c 0
EndSplineSet
Substitution2: "'smcp' Lowercase to Small Capitals lookup 28 subtable" kcommaaccent.sc
Substitution2: "'aalt' Access All Alternates lookup 0 subtable" kcommaaccent.sc
EndChar
StartChar: kgreenlandic
Encoding: 312 312 508
Width: 533
GlyphClass: 2
Flags: MW
HStem: 0 21G<32 172 32 32 348 348 348 502> 510 20G<106 246 246 246 408 562 562 562>
VStem: 32 530
LayerCount: 2
Back
Fore
SplineSet
246 530 m 1
 172 0 l 1
 32 0 l 1
 106 530 l 1
 246 530 l 1
562 530 m 1
 362 281 l 1
 502 0 l 1
 348 0 l 1
 214 280 l 1
 408 530 l 1
 562 530 l 1
EndSplineSet
Substitution2: "'smcp' Lowercase to Small Capitals lookup 28 subtable" kgreenlandic.sc
Substitution2: "'aalt' Access All Alternates lookup 0 subtable" kgreenlandic.sc
EndChar
StartChar: Lacute
Encoding: 313 313 143
Width: 502
GlyphClass: 2
Flags: MW
HStem: 0 118<197 435> 672 20G<133 278 278 278>
VStem: 36 430<0 118>
AnchorPoint: "Anchor-14" 409 397 basechar 0
AnchorPoint: "Anchor-13" 300 692 basechar 0
AnchorPoint: "Anchor-12" 229 946 basechar 0
AnchorPoint: "Anchor-11" 0 0 basechar 0
AnchorPoint: "Anchor-10" 236 0 basechar 0
LayerCount: 2
Back
Fore
SplineSet
312 946 m 1
 362 837 l 1
 126 749 l 1
 92 821 l 1
 312 946 l 1
278 692 m 1
 197 118 l 1
 466 118 l 1
 435 0 l 1
 36 0 l 1
 133 692 l 1
 278 692 l 1
EndSplineSet
Substitution2: "'c2sc' Capitals to Small Capitals lookup 27 subtable" lacute.sc
Substitution2: "'aalt' Access All Alternates lookup 0 subtable" lacute.sc
Position2: "'cpsp' Capital Spacing lookup 0 subtable" dx=5 dy=0 dh=10 dv=0
EndChar
StartChar: lacute
Encoding: 314 314 512
Width: 288
GlyphClass: 2
Flags: MW
HStem: -16 21G<118 176> -16 113<118 211> 737 20G<272 272>
VStem: 42.75 142.25
AnchorPoint: "Anchor-14" 351 377 basechar 0
AnchorPoint: "Anchor-13" 284 741 basechar 0
AnchorPoint: "Anchor-12" 224 995 basechar 0
AnchorPoint: "Anchor-11" 0 0 basechar 0
AnchorPoint: "Anchor-10" 152 0 basechar 0
LayerCount: 2
Back
Fore
SplineSet
307 995 m 1xb0
 357 886 l 1
 121 798 l 1
 87 870 l 1
 307 995 l 1xb0
272 757 m 1
 185 135 l 2
 181 107 189 97 207 97 c 0
 215 97 225 100 235 104 c 1x70
 254 3 l 1
 225 -9 192 -16 160 -16 c 0
 76 -16 32 36 45 134 c 2
 131 741 l 1
 272 757 l 1
EndSplineSet
Substitution2: "'smcp' Lowercase to Small Capitals lookup 28 subtable" lacute.sc
Substitution2: "'aalt' Access All Alternates lookup 0 subtable" lacute.sc
EndChar
StartChar: Lcommaaccent
Encoding: 315 315 147
Width: 502
GlyphClass: 2
Flags: MW
HStem: 0 118<197 435> 672 20G<133 278 278 278>
VStem: 36 430<0 118> 145 145<-150 -126>
AnchorPoint: "Anchor-14" 409 397 basechar 0
AnchorPoint: "Anchor-13" 300 692 basechar 0
AnchorPoint: "Anchor-12" 205 692 basechar 0
AnchorPoint: "Anchor-11" 0 0 basechar 0
AnchorPoint: "Anchor-10" 236 0 basechar 0
LayerCount: 2
Back
Fore
SplineSet
278 692 m 1xe0
 197 118 l 1
 466 118 l 1
 435 0 l 1
 36 0 l 1
 133 692 l 1
 278 692 l 1xe0
223 -70 m 0xd0
 264 -70 290 -99 290 -135 c 0
 290 -165 279 -187 253 -228 c 2
 196 -318 l 1
 124 -318 l 1
 170 -201 l 1
 155 -189 145 -172 145 -150 c 0
 145 -102 180 -70 223 -70 c 0xd0
EndSplineSet
Substitution2: "'c2sc' Capitals to Small Capitals lookup 27 subtable" lcommaaccent.sc
Substitution2: "'aalt' Access All Alternates lookup 0 subtable" lcommaaccent.sc
Position2: "'cpsp' Capital Spacing lookup 0 subtable" dx=5 dy=0 dh=10 dv=0
EndChar
StartChar: lcommaaccent
Encoding: 316 316 518
Width: 288
GlyphClass: 2
Flags: MW
HStem: -16 21G<118 176> -16 113<118 211> 737 20G<272 272>
VStem: 42.75 142.25 60 145<-150 -126>
AnchorPoint: "Anchor-14" 351 377 basechar 0
AnchorPoint: "Anchor-13" 284 741 basechar 0
AnchorPoint: "Anchor-12" 201 741 basechar 0
AnchorPoint: "Anchor-11" 0 0 basechar 0
AnchorPoint: "Anchor-10" 152 0 basechar 0
LayerCount: 2
Back
Fore
SplineSet
272 757 m 1xb0
 185 135 l 2
 181 107 189 97 207 97 c 0
 215 97 225 100 235 104 c 1x70
 254 3 l 1
 225 -9 192 -16 160 -16 c 0
 76 -16 32 36 45 134 c 2
 131 741 l 1
 272 757 l 1xb0
138 -70 m 0xa8
 179 -70 205 -99 205 -135 c 0
 205 -165 194 -187 168 -228 c 2
 111 -318 l 1
 39 -318 l 1
 85 -201 l 1
 70 -189 60 -172 60 -150 c 0
 60 -102 95 -70 138 -70 c 0xa8
EndSplineSet
Substitution2: "'smcp' Lowercase to Small Capitals lookup 28 subtable" lcommaaccent.sc
Substitution2: "'aalt' Access All Alternates lookup 0 subtable" lcommaaccent.sc
EndChar
StartChar: Lcaron
Encoding: 317 317 145
Width: 502
GlyphClass: 2
Flags: MW
HStem: 0 118<197 435> 672 20G<133 278 278 278 447 447> 685 20G<339 339>
VStem: 36 430<0 118>
AnchorPoint: "Anchor-14" 409 397 basechar 0
AnchorPoint: "Anchor-13" 300 692 basechar 0
AnchorPoint: "Anchor-12" 205 692 basechar 0
AnchorPoint: "Anchor-11" 0 0 basechar 0
AnchorPoint: "Anchor-10" 236 0 basechar 0
LayerCount: 2
Back
Fore
SplineSet
339 705 m 1xb0
 447 692 l 1xd0
 371 484 l 1
 298 492 l 1
 339 705 l 1xb0
278 692 m 1
 197 118 l 1
 466 118 l 1
 435 0 l 1
 36 0 l 1
 133 692 l 1
 278 692 l 1
EndSplineSet
Substitution2: "'c2sc' Capitals to Small Capitals lookup 27 subtable" lcaron.sc
Substitution2: "'aalt' Access All Alternates lookup 0 subtable" lcaron.sc
Position2: "'cpsp' Capital Spacing lookup 0 subtable" dx=5 dy=0 dh=10 dv=0
EndChar
StartChar: lcaron
Encoding: 318 318 516
Width: 338
GlyphClass: 2
Flags: MW
HStem: -16 21G<118 176> -16 113<118 211> 521 20G<283 283> 721 20G<131 131 432 432> 734 20G<324 324> 737 20G<272 272>
VStem: 42.75 142.25
AnchorPoint: "Anchor-14" 351 377 basechar 0
AnchorPoint: "Anchor-13" 284 741 basechar 0
AnchorPoint: "Anchor-12" 201 741 basechar 0
AnchorPoint: "Anchor-11" 0 0 basechar 0
AnchorPoint: "Anchor-10" 152 0 basechar 0
LayerCount: 2
Back
Fore
SplineSet
272 757 m 1xa6
 185 135 l 2
 181 107 189 97 207 97 c 0
 215 97 225 100 235 104 c 1x6a
 254 3 l 1
 225 -9 192 -16 160 -16 c 0
 76 -16 32 36 45 134 c 2
 131 741 l 1
 272 757 l 1xa6
324 754 m 1
 432 741 l 1xb2
 356 533 l 1
 283 541 l 1
 324 754 l 1
EndSplineSet
Substitution2: "'smcp' Lowercase to Small Capitals lookup 28 subtable" lcaron.sc
Substitution2: "'aalt' Access All Alternates lookup 0 subtable" lcaron.sc
EndChar
StartChar: Ldot
Encoding: 319 319 148
Width: 502
GlyphClass: 2
Flags: MW
HStem: 0 118<197 435> 312 166<392.5 423.5> 672 20G<133 278 278 278>
VStem: 36 456.91 323 169
AnchorPoint: "Anchor-14" 409 397 basechar 0
AnchorPoint: "Anchor-13" 300 692 basechar 0
AnchorPoint: "Anchor-12" 419 478 basechar 0
AnchorPoint: "Anchor-11" 0 0 basechar 0
AnchorPoint: "Anchor-10" 236 0 basechar 0
LayerCount: 2
Back
Fore
SplineSet
278 692 m 1xf0
 197 118 l 1
 466 118 l 1
 435 0 l 1
 36 0 l 1
 133 692 l 1
 278 692 l 1xf0
417 478 m 0xe8
 469 478 499 440 492 391 c 0
 486 346 448 312 399 312 c 0
 347 312 317 350 323 399 c 0
 329 444 368 478 417 478 c 0xe8
EndSplineSet
Ligature2: "Ligature Substitution lookup 40 subtable" L periodcentered
Substitution2: "'c2sc' Capitals to Small Capitals lookup 27 subtable" ldot.sc
Substitution2: "'aalt' Access All Alternates lookup 0 subtable" ldot.sc
Position2: "'cpsp' Capital Spacing lookup 0 subtable" dx=5 dy=0 dh=10 dv=0
EndChar
StartChar: ldot
Encoding: 320 320 520
Width: 407
GlyphClass: 2
Flags: MW
HStem: -16 21G<118 176> -16 113<118 211> 292 166<333.5 364.5> 737 20G<272 272>
VStem: 42.75 142.25 264 169
AnchorPoint: "Anchor-14" 351 377 basechar 0
AnchorPoint: "Anchor-13" 284 741 basechar 0
AnchorPoint: "Anchor-12" 360 458 basechar 0
AnchorPoint: "Anchor-11" 0 0 basechar 0
AnchorPoint: "Anchor-10" 152 0 basechar 0
LayerCount: 2
Back
Fore
SplineSet
272 757 m 1xbc
 185 135 l 2
 181 107 189 97 207 97 c 0
 215 97 225 100 235 104 c 1x7c
 254 3 l 1
 225 -9 192 -16 160 -16 c 0
 76 -16 32 36 45 134 c 2
 131 741 l 1
 272 757 l 1xbc
358 458 m 0
 410 458 440 420 433 371 c 0
 427 326 389 292 340 292 c 0
 288 292 258 330 264 379 c 0
 270 424 309 458 358 458 c 0
EndSplineSet
Ligature2: "Ligature Substitution lookup 40 subtable" l periodcentered
Substitution2: "'smcp' Lowercase to Small Capitals lookup 28 subtable" ldot.sc
Substitution2: "'aalt' Access All Alternates lookup 0 subtable" ldot.sc
EndChar
StartChar: Lslash
Encoding: 321 321 151
Width: 530
GlyphClass: 2
Flags: MW
HStem: 0 118<225 463> 672 20G<161 305 305 305>
VStem: 12 482<118 284>
LayerCount: 2
Back
Fore
SplineSet
494 118 m 1
 463 0 l 1
 64 0 l 1
 96 231 l 1
 50 204 l 1
 12 284 l 1
 112 342 l 1
 161 692 l 1
 305 692 l 1
 269 434 l 1
 416 518 l 1
 455 438 l 1
 253 322 l 1
 225 118 l 1
 494 118 l 1
EndSplineSet
Substitution2: "'c2sc' Capitals to Small Capitals lookup 27 subtable" lslash.sc
Substitution2: "'aalt' Access All Alternates lookup 0 subtable" lslash.sc
Position2: "'cpsp' Capital Spacing lookup 0 subtable" dx=5 dy=0 dh=10 dv=0
EndChar

StartChar: lslash
Encoding: 322 322 199
Width: 326
GlyphClass: 2
Flags: MW
HStem: -16 113<135 227.5> 737 20G<289 289>
VStem: 59.47 142.53
AnchorPoint: "Anchor-11" 148 0 basechar 0
AnchorPoint: "Anchor-10" 0 0 basechar 0
AnchorPoint: "Anchor-9" 218 741 basechar 0
AnchorPoint: "Anchor-8" 0 0 basechar 0
LayerCount: 2
Fore
SplineSet
223 97 m 0
 232 97 242 100 252 104 c 1
 270 3 l 1
 242 -9 209 -16 177 -16 c 0
 93 -16 48 36 62 134 c 2
 83 279 l 1
 36 252 l 1
 11 342 l 1
 99 393 l 1
 148 741 l 1
 289 757 l 1
 250 480 l 1
 321 521 l 1
 344 430 l 1
 234 367 l 1
 202 135 l 2
 198 107 206 97 223 97 c 0
EndSplineSet
Substitution2: "'smcp' Lowercase to Small Capitals lookup 24 subtable" lslash.sc
Substitution2: "'aalt' Access All Alternates lookup 0 subtable" lslash.sc
EndChar

StartChar: nacute
Encoding: 324 324 202
Width: 571
GlyphClass: 2
Flags: MW
HStem: 0 21G<32 172 32 32 330 470 330 330> 429 117<319 446> 510 20G<106 227 227 227>
VStem: 384.04 142.34
AnchorPoint: "Anchor-11" 248 0 basechar 0
AnchorPoint: "Anchor-10" 97 530 basechar 0
AnchorPoint: "Anchor-9" 327 530 basechar 0
AnchorPoint: "Anchor-8" 0 0 basechar 0
LayerCount: 2
Fore
SplineSet
477 718 m 1xb0
 238 626 l 1
 209 699 l 1
 436 827 l 1
 477 718 l 1xb0
402 546 m 0xd0
 490 546 538 484 524 383 c 2
 470 0 l 1
 330 0 l 1
 382 355 l 2
 391 417 371 429 340 429 c 0xd0
 298 429 252 373 213 298 c 1
 172 0 l 1
 32 0 l 1
 106 530 l 1
 227 530 l 1xb0
 223 434 l 1
 269 501 338 546 402 546 c 0xd0
EndSplineSet
Substitution2: "'smcp' Lowercase to Small Capitals lookup 24 subtable" nacute.sc
Substitution2: "'locl' Localized Forms in Latin lookup 7 subtable" nacute.loclPLK
AlternateSubs2: "'aalt' Access All Alternates lookup 1 subtable" nacute.loclPLK nacute.sc
EndChar

StartChar: Ncommaaccent
Encoding: 325 325 68
Width: 659
GlyphClass: 2
Flags: MW
HStem: 0 21G<36 166 36 36 365 549 365 365> 0 123<463 463 463 549 365 463> 569 123<221 221> 672 20G<133 316 316 316 516 646 646 646>
VStem: 36 610 203 145<-150 -126>
AnchorPoint: "Anchor-11" 294 0 basechar 0
AnchorPoint: "Anchor-10" 0 0 basechar 0
AnchorPoint: "Anchor-9" 396 692 basechar 0
AnchorPoint: "Anchor-8" 0 0 basechar 0
LayerCount: 2
Fore
SplineSet
549 0 m 1x98
 365 0 l 1
 221 569 l 1xa8
 222 484 221 395 203 262 c 2
 166 0 l 1
 36 0 l 1
 133 692 l 1
 316 692 l 1
 463 123 l 1x58
 459 217 460 287 474 395 c 1
 516 692 l 1
 646 692 l 1
 549 0 l 1x98
283 -70 m 0x94
 324 -70 348 -100 348 -135 c 0
 348 -165 337 -187 311 -228 c 2
 254 -318 l 1
 182 -318 l 1
 228 -201 l 1
 213 -189 203 -172 203 -150 c 0
 203 -102 240 -70 283 -70 c 0x94
EndSplineSet
Substitution2: "'c2sc' Capitals to Small Capitals lookup 23 subtable" ncommaaccent.sc
Substitution2: "'aalt' Access All Alternates lookup 0 subtable" ncommaaccent.sc
Position2: "'cpsp' Capital Spacing lookup 0 subtable" dx=5 dy=0 dh=10 dv=0
EndChar

StartChar: ncommaaccent
Encoding: 326 326 205
Width: 571
GlyphClass: 2
Flags: MW
HStem: 0 21G<32 172 32 32 330 470 330 330> 429 117<319 446> 510 20G<106 227 227 227>
VStem: 157 145<-150 -126> 384.04 142.34
AnchorPoint: "Anchor-11" 248 0 basechar 0
AnchorPoint: "Anchor-10" 97 530 basechar 0
AnchorPoint: "Anchor-9" 327 530 basechar 0
AnchorPoint: "Anchor-8" 0 0 basechar 0
LayerCount: 2
Fore
SplineSet
402 546 m 0xc8
 490 546 538 484 524 383 c 2
 470 0 l 1
 330 0 l 1
 382 355 l 2
 391 417 371 429 340 429 c 0xc8
 298 429 252 373 213 298 c 1
 172 0 l 1
 32 0 l 1
 106 530 l 1
 227 530 l 1xa8
 223 434 l 1
 269 501 338 546 402 546 c 0xc8
237 -70 m 0xb8
 278 -70 302 -100 302 -135 c 0
 302 -165 291 -187 265 -228 c 2
 208 -318 l 1
 136 -318 l 1
 182 -201 l 1
 167 -189 157 -172 157 -150 c 0
 157 -102 194 -70 237 -70 c 0xb8
EndSplineSet
Substitution2: "'smcp' Lowercase to Small Capitals lookup 24 subtable" ncommaaccent.sc
Substitution2: "'aalt' Access All Alternates lookup 0 subtable" ncommaaccent.sc
EndChar

StartChar: Ncaron
Encoding: 327 327 67
Width: 659
GlyphClass: 2
Flags: MW
HStem: 0 21G<36 166 36 36 365 549 365 365> 0 123<463 463 463 549 365 463> 569 123<221 221> 672 20G<133 316 316 316 516 646 646 646>
VStem: 36 610
AnchorPoint: "Anchor-11" 294 0 basechar 0
AnchorPoint: "Anchor-10" 0 0 basechar 0
AnchorPoint: "Anchor-9" 396 692 basechar 0
AnchorPoint: "Anchor-8" 0 0 basechar 0
LayerCount: 2
Fore
SplineSet
598 875 m 1x98
 444 751 l 1
 357 751 l 1
 236 875 l 1
 294 935 l 1
 411 852 l 1
 552 935 l 1
 598 875 l 1x98
549 0 m 1
 365 0 l 1
 221 569 l 1xa8
 222 484 221 395 203 262 c 2
 166 0 l 1
 36 0 l 1
 133 692 l 1
 316 692 l 1
 463 123 l 1x58
 459 217 460 287 474 395 c 1
 516 692 l 1
 646 692 l 1
 549 0 l 1
EndSplineSet
Substitution2: "'c2sc' Capitals to Small Capitals lookup 23 subtable" ncaron.sc
Substitution2: "'aalt' Access All Alternates lookup 0 subtable" ncaron.sc
Position2: "'cpsp' Capital Spacing lookup 0 subtable" dx=5 dy=0 dh=10 dv=0
EndChar
StartChar: ncaron
Encoding: 328 328 538
Width: 571
GlyphClass: 2
Flags: MW
HStem: 0 21G<32 172 32 32 330 470 330 330> 429 117<319.5 447> 510 20G<106 227 227 227> 726 20G<171 171 533 533>
VStem: 32 501 380 145.71
AnchorPoint: "Anchor-14" 0 0 basechar 0
AnchorPoint: "Anchor-13" 0 0 basechar 0
AnchorPoint: "Anchor-12" 354 806 basechar 0
AnchorPoint: "Anchor-11" 0 0 basechar 0
AnchorPoint: "Anchor-10" 251 0 basechar 0
LayerCount: 2
Back
Fore
SplineSet
487 806 m 1xb8
 533 746 l 1
 378 615 l 1
 291 615 l 1
 171 746 l 1
 227 806 l 1
 343 717 l 1
 487 806 l 1xb8
404 546 m 0xd4
 490 546 538 484 523 381 c 2
 470 0 l 1
 330 0 l 1
 380 355 l 2
 388 414 370 429 343 429 c 0xd4
 296 429 252 373 213 298 c 1
 172 0 l 1
 32 0 l 1
 106 530 l 1
 227 530 l 1xb8
 223 434 l 1
 269 501 332 546 404 546 c 0xd4
EndSplineSet
Substitution2: "'smcp' Lowercase to Small Capitals lookup 28 subtable" ncaron.sc
Substitution2: "'aalt' Access All Alternates lookup 0 subtable" ncaron.sc
EndChar

StartChar: napostrophe
Encoding: 329 329 203
Width: 674
GlyphClass: 2
Flags: MW
HStem: 0 21G<32 172 32 32 330 470 330 330> 429 117<319 446> 510 20G<106 227 227 227> 737 20G<185 222.5>
VStem: 132 130 384.04 142.34
AnchorPoint: "Anchor-11" 248 0 basechar 0
AnchorPoint: "Anchor-10" 97 530 basechar 0
AnchorPoint: "Anchor-9" 327 530 basechar 0
AnchorPoint: "Anchor-8" 0 0 basechar 0
LayerCount: 2
Fore
SplineSet
203 757 m 0xbc
 242 757 268 727 262 688 c 1
 260 668 252 652 229 615 c 2
 177 533 l 1
 111 533 l 1
 153 639 l 1
 139 652 129 670 132 696 c 0
 137 730 167 757 203 757 c 0xbc
402 546 m 0xdc
 490 546 538 484 524 383 c 2
 470 0 l 1
 330 0 l 1
 382 355 l 2
 391 417 371 429 340 429 c 0xdc
 298 429 252 373 213 298 c 1
 172 0 l 1
 32 0 l 1
 106 530 l 1
 227 530 l 1xbc
 223 434 l 1
 269 501 338 546 402 546 c 0xdc
EndSplineSet
Substitution2: "'smcp' Lowercase to Small Capitals lookup 24 subtable" napostrophe.sc
Substitution2: "'aalt' Access All Alternates lookup 0 subtable" napostrophe.sc
EndChar
StartChar: Eng
Encoding: 330 330 165
Width: 659
GlyphClass: 2
Flags: MW
HStem: -220 109<316 348.5 316 391> 0 21G<36 166 36 36 365 405 365 365 549 549> 569 123<221 221> 672 20G<133 316 316 316 516 646 646 646>
VStem: 36 610
AnchorPoint: "Anchor-14" 0 0 basechar 0
AnchorPoint: "Anchor-13" 0 0 basechar 0
AnchorPoint: "Anchor-12" 396 692 basechar 0
AnchorPoint: "Anchor-11" 0 0 basechar 0
AnchorPoint: "Anchor-10" 294 0 basechar 0
LayerCount: 2
Back
Fore
SplineSet
516 692 m 1xd8
 646 692 l 1
 549 0 l 1
 544 -40 l 2
 525 -162 446 -220 336 -220 c 0
 273 -220 234 -199 206 -177 c 1
 265 -90 l 1
 286 -104 302 -111 330 -111 c 0
 367 -111 391 -89 398 -45 c 2
 405 0 l 1
 365 0 l 1
 221 569 l 1xe8
 222 484 221 395 203 262 c 2
 166 0 l 1
 36 0 l 1
 133 692 l 1
 316 692 l 1
 463 123 l 1
 459 217 460 287 474 395 c 2
 516 692 l 1xd8
EndSplineSet
Substitution2: "'ss01' Style Set 1 lookup 34 subtable" Eng.ss01
Substitution2: "'salt' Stylistic Alternatives lookup 33 subtable" Eng.ss01
Substitution2: "'c2sc' Capitals to Small Capitals lookup 27 subtable" eng.sc
AlternateSubs2: "'aalt' Access All Alternates lookup 1 subtable" eng.sc Eng.ss01
Position2: "'cpsp' Capital Spacing lookup 0 subtable" dx=5 dy=0 dh=10 dv=0
EndChar

StartChar: eng
Encoding: 331 331 206
Width: 570
GlyphClass: 2
Flags: MW
HStem: -220 21G<241 241> 0 21G<32 172 32 32> 429 117<319 446> 510 20G<106 227 227 227>
VStem: 384.04 142.34
LayerCount: 2
Fore
SplineSet
402 546 m 0xe8
 490 546 538 485 524 383 c 2
 476 51 l 1
 453 -116 367 -173 241 -220 c 1
 205 -117 l 1
 283 -87 323 -54 337 46 c 2
 382 355 l 2
 391 417 371 429 340 429 c 0xe8
 298 429 252 373 213 298 c 1
 172 0 l 1
 32 0 l 1
 106 530 l 1
 227 530 l 1xd8
 223 431 l 1
 267 498 338 546 402 546 c 0xe8
EndSplineSet
Substitution2: "'smcp' Lowercase to Small Capitals lookup 24 subtable" eng.sc
Substitution2: "'aalt' Access All Alternates lookup 0 subtable" eng.sc
EndChar
StartChar: Omacron
Encoding: 332 332 199
Width: 682
GlyphClass: 2
Flags: MW
HStem: -16 110<276 394.5 276 440.5> 598 110<311.5 430> 784 100<283 563 270 577>
VStem: 44 150<198 317 198 357.5> 511 150<376 494.5>
AnchorPoint: "Anchor-14" 0 0 basechar 0
AnchorPoint: "Anchor-13" 622 692 basechar 0
AnchorPoint: "Anchor-12" 425 884 basechar 0
AnchorPoint: "Anchor-11" 0 0 basechar 0
AnchorPoint: "Anchor-10" 303 0 basechar 0
LayerCount: 2
Back
Fore
SplineSet
563 784 m 1
 270 784 l 1
 283 884 l 1
 577 884 l 1
 563 784 l 1
401 708 m 0
 565 708 661 606 661 425 c 0
 661 240 576 -16 305 -16 c 0
 141 -16 44 87 44 266 c 0
 44 449 130 708 401 708 c 0
391 598 m 0
 232 598 194 377 194 257 c 0
 194 139 238 94 314 94 c 0
 475 94 511 315 511 437 c 0
 511 552 469 598 391 598 c 0
EndSplineSet
Substitution2: "'c2sc' Capitals to Small Capitals lookup 27 subtable" omacron.sc
Substitution2: "'aalt' Access All Alternates lookup 0 subtable" omacron.sc
Position2: "'cpsp' Capital Spacing lookup 0 subtable" dx=5 dy=0 dh=10 dv=0
EndChar

StartChar: Obreve
Encoding: 334 334 73
Width: 682
GlyphClass: 2
Flags: MW
HStem: -16 110<276 394.5 276 440.5> 598 110<311.5 430> 752 101<389 434.5 389 452.5>
VStem: 44 150<195 314 195 357.5> 511 150<380 498.5>
AnchorPoint: "Anchor-11" 0 0 basechar 0
AnchorPoint: "Anchor-10" 29 534 basechar 0
AnchorPoint: "Anchor-9" 403 692 basechar 0
AnchorPoint: "Anchor-8" 0 0 basechar 0
LayerCount: 2
Fore
SplineSet
404 752 m 0
 305 752 255 825 259 907 c 1
 338 918 l 1
 344 880 367 853 411 853 c 0
 458 853 491 883 508 921 c 1
 588 903 l 1
 569 821 501 752 404 752 c 0
401 708 m 0
 565 708 661 606 661 425 c 0
 661 240 576 -16 305 -16 c 0
 141 -16 44 87 44 266 c 0
 44 449 130 708 401 708 c 0
391 598 m 0
 232 598 194 377 194 251 c 0
 194 139 238 94 314 94 c 0
 475 94 511 315 511 445 c 0
 511 552 469 598 391 598 c 0
EndSplineSet
Substitution2: "'c2sc' Capitals to Small Capitals lookup 23 subtable" obreve.sc
Substitution2: "'aalt' Access All Alternates lookup 0 subtable" obreve.sc
Position2: "'cpsp' Capital Spacing lookup 0 subtable" dx=5 dy=0 dh=10 dv=0
EndChar

StartChar: obreve
Encoding: 335 335 210
Width: 575
GlyphClass: 2
Flags: MW
HStem: -16 106<232.5 316 232.5 360.5> 440 106<258.5 342> 635 100<323 368 323 385.5>
VStem: 34 144<160.5 241 160.5 280> 193 81<800 811> 397 144<289 322 251 369.5>
AnchorPoint: "Anchor-11" 0 0 basechar 0
AnchorPoint: "Anchor-10" 0 0 basechar 0
AnchorPoint: "Anchor-9" 320 530 basechar 0
AnchorPoint: "Anchor-8" 0 0 basechar 0
LayerCount: 2
Fore
SplineSet
337 635 m 0
 238 635 188 707 193 800 c 1
 274 811 l 1
 279 762 301 735 345 735 c 0
 391 735 426 766 444 814 c 1
 522 796 l 1
 502 703 434 635 337 635 c 0
324 546 m 0
 463 546 542 460 541 322 c 1
 541 180 470 -16 251 -16 c 0
 112 -16 34 69 34 208 c 0xf4
 34 352 105 546 324 546 c 0
315 440 m 0xf4
 202 440 178 284 178 198 c 0
 178 123 205 90 260 90 c 0
 372 90 397 246 397 332 c 0
 397 407 369 440 315 440 c 0xf4
EndSplineSet
Substitution2: "'smcp' Lowercase to Small Capitals lookup 24 subtable" obreve.sc
Substitution2: "'aalt' Access All Alternates lookup 0 subtable" obreve.sc
EndChar

StartChar: ohungarumlaut
Encoding: 337 337 214
Width: 575
GlyphClass: 2
Flags: MW
HStem: -16 106<232.5 316 232.5 360.5> 440 106<258.5 342>
VStem: 34 144<160.5 241 160.5 280> 397 144<289 322 251 369.5>
AnchorPoint: "Anchor-11" 0 0 basechar 0
AnchorPoint: "Anchor-10" 0 0 basechar 0
AnchorPoint: "Anchor-9" 320 530 basechar 0
AnchorPoint: "Anchor-8" 0 0 basechar 0
LayerCount: 2
Fore
SplineSet
415 805 m 1
 284 632 l 1
 212 664 l 1
 322 853 l 1
 415 805 l 1
581 803 m 1
 441 627 l 1
 370 662 l 1
 489 853 l 1
 581 803 l 1
324 546 m 0
 463 546 542 460 541 322 c 1
 541 180 470 -16 251 -16 c 0
 112 -16 34 69 34 208 c 0
 34 352 105 546 324 546 c 0
315 440 m 0
 202 440 178 284 178 198 c 0
 178 123 205 90 260 90 c 0
 372 90 397 246 397 332 c 0
 397 407 369 440 315 440 c 0
EndSplineSet
Substitution2: "'smcp' Lowercase to Small Capitals lookup 24 subtable" ohungarumlaut.sc
Substitution2: "'aalt' Access All Alternates lookup 0 subtable" ohungarumlaut.sc
EndChar
StartChar: OE
Encoding: 338 338 210
Width: 896
GlyphClass: 2
Flags: MW
HStem: -16 110<269.5 305> 0 94<269.5 814 269.5 381> 0 108<533 814> 299 106<638 807 627 821> 585 107<595 878 595 595> 598 110<307 401.5 259 415>
VStem: 44 149<194 321 194 355.5> 491 147<405 411 405 500.5>
LayerCount: 2
Back
Fore
SplineSet
908 692 m 1x3b
 878 585 l 1
 595 585 l 1
 624 539 638 479 638 411 c 2
 638 405 l 1
 821 405 l 1
 807 299 l 1
 627 299 l 1
 613 231 585 163 533 108 c 1
 829 108 l 1
 814 0 l 1
 381 0 l 1x3b
 352 -11 321 -16 289 -16 c 0
 138 -16 44 85 44 265 c 0
 44 446 133 708 385 708 c 0x97
 418 708 448 703 474 692 c 1
 908 692 l 1x3b
193 250 m 0x57
 193 138 236 94 303 94 c 0
 450 94 491 298 491 447 c 0
 491 554 450 598 380 598 c 0
 234 598 193 392 193 250 c 0x57
EndSplineSet
Substitution2: "'c2sc' Capitals to Small Capitals lookup 27 subtable" oe.sc
Substitution2: "'aalt' Access All Alternates lookup 0 subtable" oe.sc
Position2: "'cpsp' Capital Spacing lookup 0 subtable" dx=5 dy=0 dh=10 dv=0
EndChar
StartChar: oe
Encoding: 339 339 592
Width: 888
GlyphClass: 2
Flags: MW
HStem: -16 106<233.5 296.5> 440 106<259.5 343> 449 97<638.5 694.5>
VStem: 34 144<160.5 241 160.5 280> 730 142<368 408>
AnchorPoint: "Anchor-14" 0 0 basechar 0
AnchorPoint: "Anchor-13" 0 0 basechar 0
AnchorPoint: "Anchor-12" 482 530 basechar 0
AnchorPoint: "Anchor-11" 0 0 basechar 0
AnchorPoint: "Anchor-10" 434 0 basechar 0
LayerCount: 2
Back
Fore
SplineSet
872 403 m 0xd8
 872 255 702 211 531 194 c 1
 535 117 574 91 630 91 c 0
 677 91 718 107 767 140 c 1
 819 54 l 1
 761 12 692 -16 613 -16 c 0
 527 -16 472 18 437 69 c 1
 398 19 341 -16 252 -16 c 0
 113 -16 34 69 34 208 c 0
 34 352 106 546 320 546 c 0
 401 546 456 507 489 458 c 1
 532 510 594 546 683 546 c 0
 808 546 872 481 872 403 c 0xd8
538 283 m 1
 675 295 730 340 730 396 c 0
 730 420 717 449 672 449 c 0xb8
 589 449 552 364 538 283 c 1
261 90 m 0
 373 90 398 246 399 332 c 0
 399 407 370 440 316 440 c 0
 203 440 178 284 178 198 c 0
 178 123 206 90 261 90 c 0
EndSplineSet
Substitution2: "'smcp' Lowercase to Small Capitals lookup 28 subtable" oe.sc
Substitution2: "'aalt' Access All Alternates lookup 0 subtable" oe.sc
EndChar
StartChar: Racute
Encoding: 340 340 219
Width: 605
GlyphClass: 2
Flags: MW
HStem: 0 21G<36 181 36 36 406 564 406 406> 271 104<233 295 218 311> 587 105<262 262 262 330>
VStem: 443 151<478 535>
AnchorPoint: "Anchor-14" 0 0 basechar 0
AnchorPoint: "Anchor-13" 0 0 basechar 0
AnchorPoint: "Anchor-12" 385 946 basechar 0
AnchorPoint: "Anchor-11" 0 0 basechar 0
AnchorPoint: "Anchor-10" 269 0 basechar 0
LayerCount: 2
Back
Fore
SplineSet
518 837 m 1
 282 749 l 1
 248 821 l 1
 468 946 l 1
 518 837 l 1
594 515 m 0
 594 429 560 345 432 295 c 1
 564 0 l 1
 406 0 l 1
 295 271 l 1
 218 271 l 1
 181 0 l 1
 36 0 l 1
 133 692 l 1
 344 692 l 2
 510 692 594 635 594 515 c 0
262 587 m 1
 233 375 l 1
 311 375 l 2
 416 375 443 449 443 507 c 0
 443 563 407 587 330 587 c 2
 262 587 l 1
EndSplineSet
Substitution2: "'c2sc' Capitals to Small Capitals lookup 27 subtable" racute.sc
Substitution2: "'aalt' Access All Alternates lookup 0 subtable" racute.sc
Position2: "'cpsp' Capital Spacing lookup 0 subtable" dx=5 dy=0 dh=10 dv=0
EndChar
StartChar: Rcommaaccent
Encoding: 342 342 221
Width: 605
GlyphClass: 2
Flags: MW
HStem: 0 21G<36 181 36 36 406 564 406 406> 271 104<233 295 218 311> 587 105<262 262 262 330>
VStem: 179 145<-150 -126> 443 151<478 535>
AnchorPoint: "Anchor-14" 0 0 basechar 0
AnchorPoint: "Anchor-13" 0 0 basechar 0
AnchorPoint: "Anchor-12" 361 692 basechar 0
AnchorPoint: "Anchor-11" 0 0 basechar 0
AnchorPoint: "Anchor-10" 269 0 basechar 0
LayerCount: 2
Back
Fore
SplineSet
594 515 m 0
 594 429 560 345 432 295 c 1
 564 0 l 1
 406 0 l 1
 295 271 l 1
 218 271 l 1
 181 0 l 1
 36 0 l 1
 133 692 l 1
 344 692 l 2
 510 692 594 635 594 515 c 0
262 587 m 1
 233 375 l 1
 311 375 l 2
 416 375 443 449 443 507 c 0
 443 563 407 587 330 587 c 2
 262 587 l 1
257 -70 m 0
 298 -70 324 -99 324 -135 c 0
 324 -165 313 -187 287 -228 c 2
 230 -318 l 1
 158 -318 l 1
 204 -201 l 1
 189 -189 179 -172 179 -150 c 0
 179 -102 214 -70 257 -70 c 0
EndSplineSet
Substitution2: "'c2sc' Capitals to Small Capitals lookup 27 subtable" rcommaaccent.sc
Substitution2: "'aalt' Access All Alternates lookup 0 subtable" rcommaaccent.sc
Position2: "'cpsp' Capital Spacing lookup 0 subtable" dx=5 dy=0 dh=10 dv=0
EndChar

StartChar: rcommaaccent
Encoding: 343 343 226
Width: 389
GlyphClass: 2
Flags: MW
HStem: 0 21G<32 172 32 32> 406 139<347 351.5> 510 20G<106 227 227 227> 517 20G<428 428>
VStem: -11 439 10 145<-150 -126>
AnchorPoint: "Anchor-11" 102 0 basechar 0
AnchorPoint: "Anchor-10" 0 0 basechar 0
AnchorPoint: "Anchor-9" 268 530 basechar 0
AnchorPoint: "Anchor-8" 0 0 basechar 0
LayerCount: 2
Fore
SplineSet
375 545 m 0xc8
 395 545 411 542 428 537 c 1x98
 388 400 l 1
 372 404 360 406 343 406 c 0xc8
 277 406 239 343 207 254 c 1
 172 0 l 1
 32 0 l 1
 106 530 l 1
 227 530 l 1xa8
 224 429 l 1
 261 504 319 545 375 545 c 0xc8
90 -70 m 0x94
 131 -70 155 -100 155 -135 c 0
 155 -165 144 -187 118 -228 c 2
 61 -318 l 1
 -11 -318 l 1
 35 -201 l 1
 20 -189 10 -172 10 -150 c 0
 10 -102 47 -70 90 -70 c 0x94
EndSplineSet
Substitution2: "'smcp' Lowercase to Small Capitals lookup 24 subtable" rcommaaccent.sc
Substitution2: "'aalt' Access All Alternates lookup 0 subtable" rcommaaccent.sc
EndChar
StartChar: Rcaron
Encoding: 344 344 220
Width: 605
GlyphClass: 2
Flags: MW
HStem: 0 21G<36 181 36 36 406 564 406 406> 271 104<233 295 218 311> 587 105<262 262 262 330>
VStem: 443 151<478 535>
AnchorPoint: "Anchor-14" 0 0 basechar 0
AnchorPoint: "Anchor-13" 0 0 basechar 0
AnchorPoint: "Anchor-12" 384 935 basechar 0
AnchorPoint: "Anchor-11" 0 0 basechar 0
AnchorPoint: "Anchor-10" 269 0 basechar 0
LayerCount: 2
Back
Fore
SplineSet
409 751 m 1
 322 751 l 1
 201 875 l 1
 259 935 l 1
 376 852 l 1
 517 935 l 1
 563 875 l 1
 409 751 l 1
594 515 m 0
 594 429 560 345 432 295 c 1
 564 0 l 1
 406 0 l 1
 295 271 l 1
 218 271 l 1
 181 0 l 1
 36 0 l 1
 133 692 l 1
 344 692 l 2
 510 692 594 635 594 515 c 0
262 587 m 1
 233 375 l 1
 311 375 l 2
 416 375 443 449 443 507 c 0
 443 563 407 587 330 587 c 2
 262 587 l 1
EndSplineSet
Substitution2: "'c2sc' Capitals to Small Capitals lookup 27 subtable" rcaron.sc
Substitution2: "'aalt' Access All Alternates lookup 0 subtable" rcaron.sc
Position2: "'cpsp' Capital Spacing lookup 0 subtable" dx=5 dy=0 dh=10 dv=0
EndChar
StartChar: rcaron
Encoding: 345 345 606
Width: 389
GlyphClass: 2
Flags: MW
HStem: 0 21G<32 172 32 32> 406 139<347 351.5> 510 20G<106 227 227 227> 517 20G<428 428> 726 20G<115 115 477 477>
VStem: 32 445
AnchorPoint: "Anchor-14" 0 0 basechar 0
AnchorPoint: "Anchor-13" 0 0 basechar 0
AnchorPoint: "Anchor-12" 298 806 basechar 0
AnchorPoint: "Anchor-11" 0 0 basechar 0
AnchorPoint: "Anchor-10" 102 0 basechar 0
LayerCount: 2
Back
Fore
SplineSet
431 806 m 1x9c
 477 746 l 1
 322 615 l 1
 235 615 l 1
 115 746 l 1
 171 806 l 1
 287 717 l 1
 431 806 l 1x9c
375 545 m 0xcc
 395 545 411 542 428 537 c 1x9c
 388 400 l 1
 372 404 360 406 343 406 c 0xcc
 277 406 239 343 207 254 c 1
 172 0 l 1
 32 0 l 1
 106 530 l 1
 227 530 l 1xac
 224 429 l 1
 261 504 319 545 375 545 c 0xcc
EndSplineSet
Substitution2: "'smcp' Lowercase to Small Capitals lookup 28 subtable" rcaron.sc
Substitution2: "'aalt' Access All Alternates lookup 0 subtable" rcaron.sc
EndChar

StartChar: Scircumflex
Encoding: 348 348 94
Width: 556
GlyphClass: 2
Flags: MW
HStem: -16 114<199.5 272 199.5 342.5> 598 110<306.5 365.5>
VStem: 73 152<490.5 539 490.5 546> 369 153<172 225.5>
AnchorPoint: "Anchor-11" 238 0 basechar 0
AnchorPoint: "Anchor-10" 0 0 basechar 0
AnchorPoint: "Anchor-9" 346 692 basechar 0
AnchorPoint: "Anchor-8" 0 0 basechar 0
LayerCount: 2
Fore
SplineSet
375 840 m 1
 234 756 l 1
 187 816 l 1
 342 940 l 1
 428 940 l 1
 549 816 l 1
 493 756 l 1
 375 840 l 1
337 708 m 0
 434 708 505 676 559 619 c 1
 479 540 l 1
 437 581 392 598 339 598 c 0
 274 598 225 566 225 512 c 0
 225 469 252 450 344 418 c 1
 451 383 522 332 522 223 c 0
 522 121 453 -16 232 -16 c 0
 118 -16 39 27 -12 83 c 1
 73 167 l 1
 115 123 166 98 233 98 c 0
 311 98 369 136 369 201 c 0
 369 250 342 276 256 306 c 1
 129 346 73 404 73 498 c 0
 73 594 150 708 337 708 c 0
EndSplineSet
Substitution2: "'c2sc' Capitals to Small Capitals lookup 23 subtable" scircumflex.sc
Substitution2: "'aalt' Access All Alternates lookup 0 subtable" scircumflex.sc
Position2: "'cpsp' Capital Spacing lookup 0 subtable" dx=5 dy=0 dh=10 dv=0
EndChar

StartChar: scircumflex
Encoding: 349 349 231
Width: 470
GlyphClass: 2
Flags: MW
HStem: -16 104<172.5 234 172.5 276.5> 443 103<244.5 291.5>
VStem: 50 140<377 408.5 377 423.5> 293 141<134 168.5>
AnchorPoint: "Anchor-11" 199 0 basechar 0
AnchorPoint: "Anchor-10" 0 0 basechar 0
AnchorPoint: "Anchor-9" 278 530 basechar 0
AnchorPoint: "Anchor-8" 0 0 basechar 0
LayerCount: 2
Fore
SplineSet
119 684 m 1
 275 815 l 1
 361 815 l 1
 481 684 l 1
 422 624 l 1
 306 713 l 1
 166 624 l 1
 119 684 l 1
271 546 m 0
 343 546 413 520 458 479 c 1
 394 398 l 1
 360 428 312 443 271 443 c 0
 218 443 190 424 190 393 c 0
 190 361 215 350 293 325 c 0
 385 296 434 250 434 164 c 0
 434 62 352 -16 201 -16 c 0
 107 -16 31 21 -14 69 c 1
 61 146 l 1
 95 112 144 88 201 88 c 0
 267 88 293 119 293 149 c 0
 293 188 271 200 187 228 c 0
 96 259 50 307 50 381 c 0
 50 466 124 546 271 546 c 0
EndSplineSet
Substitution2: "'smcp' Lowercase to Small Capitals lookup 24 subtable" scircumflex.sc
Substitution2: "'aalt' Access All Alternates lookup 0 subtable" scircumflex.sc
EndChar
StartChar: Scedilla
Encoding: 350 350 231
Width: 556
GlyphClass: 2
Flags: MW
HStem: -257 80<191.5 220 191.5 263> -14 21G<196 196 278 278> -14 112<196 272 199.5 278> 598 110<306.5 365.5>
VStem: 73 152<490.5 539 490.5 546> 258 103 369 153<175.5 225.5>
AnchorPoint: "Anchor-14" 0 0 basechar 0
AnchorPoint: "Anchor-13" 0 0 basechar 0
AnchorPoint: "Anchor-12" 346 692 basechar 0
AnchorPoint: "Anchor-11" 0 0 basechar 0
AnchorPoint: "Anchor-10" 233 -257 basechar 0
LayerCount: 2
Back
Fore
SplineSet
344 418 m 0xda
 451 383 522 332 522 223 c 0xda
 522 128 462 4 278 -14 c 1
 272 -50 l 1
 333 -56 361 -90 361 -137 c 0
 361 -190 319 -257 207 -257 c 0
 162 -257 126 -243 104 -226 c 1
 145 -161 l 1
 162 -171 179 -177 204 -177 c 0
 236 -177 257 -166 258 -142 c 0
 259 -117 236 -109 173 -109 c 1
 196 -14 l 1xde
 101 -6 33 33 -12 83 c 1
 73 167 l 1
 115 123 166 98 233 98 c 0xba
 311 98 369 136 369 201 c 0
 369 250 342 276 256 306 c 0
 129 346 73 404 73 498 c 0
 73 594 150 708 337 708 c 0
 434 708 505 676 559 619 c 1
 479 540 l 1
 437 581 392 598 339 598 c 0
 274 598 225 566 225 512 c 0
 225 469 252 450 344 418 c 0xda
EndSplineSet
Substitution2: "'c2sc' Capitals to Small Capitals lookup 27 subtable" scedilla.sc
Substitution2: "'locl' Localized Forms in Latin lookup 5 subtable" Scommaaccent
Substitution2: "'locl' Localized Forms in Latin lookup 4 subtable" Scommaaccent
AlternateSubs2: "'aalt' Access All Alternates lookup 1 subtable" Scommaaccent scedilla.sc
Position2: "'cpsp' Capital Spacing lookup 0 subtable" dx=5 dy=0 dh=10 dv=0
EndChar

StartChar: scedilla
Encoding: 351 351 230
Width: 470
GlyphClass: 2
Flags: MW
HStem: -257 80<146.5 172.5 146.5 219> -15 21G<234 234> -13 21G<152 152> 443 103<244.5 291.5>
VStem: 50 140<377 408.5 377 423.5> 213 104 293 141<134 168.5>
AnchorPoint: "Anchor-11" 199 0 basechar 0
AnchorPoint: "Anchor-10" 0 0 basechar 0
AnchorPoint: "Anchor-9" 278 530 basechar 0
AnchorPoint: "Anchor-8" 0 0 basechar 0
LayerCount: 2
Fore
SplineSet
293 325 m 0xba
 385 296 434 250 434 164 c 0xda
 434 70 364 -4 234 -15 c 1
 228 -50 l 1xdc
 289 -56 317 -90 317 -135 c 0
 317 -189 276 -257 162 -257 c 0
 117 -257 81 -243 59 -226 c 1
 101 -161 l 1
 117 -171 135 -177 158 -177 c 0
 187 -177 212 -166 213 -142 c 0
 214 -117 192 -109 128 -109 c 1
 152 -13 l 1xbc
 81 -2 23 30 -14 69 c 1
 61 146 l 1
 95 112 144 88 201 88 c 0
 267 88 293 119 293 149 c 0
 293 188 271 200 187 228 c 0
 96 259 50 307 50 381 c 0
 50 466 124 546 271 546 c 0
 343 546 413 520 458 479 c 1
 394 398 l 1
 360 428 312 443 271 443 c 0
 218 443 190 424 190 393 c 0
 190 361 215 350 293 325 c 0xba
EndSplineSet
Substitution2: "'smcp' Lowercase to Small Capitals lookup 24 subtable" scedilla.sc
Substitution2: "'locl' Localized Forms in Latin lookup 5 subtable" scommaaccent
Substitution2: "'locl' Localized Forms in Latin lookup 4 subtable" scommaaccent
AlternateSubs2: "'aalt' Access All Alternates lookup 1 subtable" scommaaccent scedilla.sc
EndChar
StartChar: scaron
Encoding: 353 353 622
Width: 470
GlyphClass: 2
Flags: MW
HStem: -16 104<173 235 173 276> 443 103<243.5 290.5> 726 20G<125 125 487 487>
VStem: 50 140<377 408 377 423> 293 141<134 168.5>
AnchorPoint: "Anchor-14" 0 0 basechar 0
AnchorPoint: "Anchor-13" 0 0 basechar 0
AnchorPoint: "Anchor-12" 308 806 basechar 0
AnchorPoint: "Anchor-11" 0 0 basechar 0
AnchorPoint: "Anchor-10" 199 0 basechar 0
LayerCount: 2
Back
Fore
SplineSet
441 806 m 1
 487 746 l 1
 332 615 l 1
 245 615 l 1
 125 746 l 1
 181 806 l 1
 297 717 l 1
 441 806 l 1
269 546 m 0
 346 546 410 519 458 479 c 1
 395 401 l 1
 357 428 312 443 269 443 c 0
 218 443 190 423 190 393 c 0
 190 361 215 351 293 325 c 0
 385 296 434 248 434 165 c 0
 434 62 351 -16 201 -16 c 0
 107 -16 31 21 -14 69 c 1
 59 144 l 1
 95 112 143 88 203 88 c 0
 267 88 293 119 293 149 c 0
 293 188 271 200 187 228 c 0
 93 259 50 303 50 380 c 0
 50 466 124 546 269 546 c 0
EndSplineSet
Substitution2: "'smcp' Lowercase to Small Capitals lookup 28 subtable" scaron.sc
Substitution2: "'aalt' Access All Alternates lookup 0 subtable" scaron.sc
EndChar

StartChar: Tcedilla
Encoding: 354 354 99
Width: 526
GlyphClass: 2
Flags: MW
HStem: -257 80<208.5 234.5 208.5 281> 0 21G<153 217 153 153 298 299 298 298> 577 115<69 234 53 584 379 552 379 379>
VStem: 275 104
AnchorPoint: "Anchor-11" 226 0 basechar 0
AnchorPoint: "Anchor-10" 0 0 basechar 0
AnchorPoint: "Anchor-9" 323 692 basechar 0
AnchorPoint: "Anchor-8" 0 0 basechar 0
LayerCount: 2
Fore
SplineSet
584 692 m 1
 552 577 l 1
 379 577 l 1
 299 0 l 1
 298 0 l 1
 291 -50 l 1
 351 -56 379 -90 379 -136 c 0
 379 -188 338 -257 224 -257 c 0
 179 -257 143 -243 121 -226 c 1
 163 -161 l 1
 179 -171 197 -177 220 -177 c 0
 249 -177 274 -166 275 -142 c 0
 276 -117 254 -109 190 -109 c 1
 217 0 l 1
 153 0 l 1
 234 577 l 1
 53 577 l 1
 69 692 l 1
 584 692 l 1
EndSplineSet
Substitution2: "'c2sc' Capitals to Small Capitals lookup 23 subtable" tcedilla.sc
Substitution2: "'locl' Localized Forms in Latin lookup 5 subtable" uni021A
Substitution2: "'locl' Localized Forms in Latin lookup 4 subtable" uni021A
AlternateSubs2: "'aalt' Access All Alternates lookup 1 subtable" uni021A tcedilla.sc
Position2: "'cpsp' Capital Spacing lookup 0 subtable" dx=5 dy=0 dh=10 dv=0
EndChar
StartChar: uni0162
Encoding: 354 354 241
Width: 526
GlyphClass: 2
Flags: MW
HStem: -257 80<208.5 234.5 208.5 281> 0 21G<153 217 153 153 298 298> 577 115<69 234 53 584 379 379 379 552>
VStem: 275 104
AnchorPoint: "Anchor-14" 275 346 basechar 0
AnchorPoint: "Anchor-13" 0 0 basechar 0
AnchorPoint: "Anchor-12" 322 692 basechar 0
AnchorPoint: "Anchor-11" 0 0 basechar 0
AnchorPoint: "Anchor-10" 226 0 basechar 0
LayerCount: 2
Back
Fore
SplineSet
298 0 m 1
 291 -50 l 1
 351 -56 379 -90 379 -136 c 0
 379 -188 338 -257 224 -257 c 0
 179 -257 143 -243 121 -226 c 1
 163 -161 l 1
 179 -171 197 -177 220 -177 c 0
 249 -177 274 -166 275 -142 c 0
 276 -117 254 -109 190 -109 c 1
 217 0 l 1
 153 0 l 1
 234 577 l 1
 53 577 l 1
 69 692 l 1
 584 692 l 1
 552 577 l 1
 379 577 l 1
 298 0 l 1
EndSplineSet
Substitution2: "'c2sc' Capitals to Small Capitals lookup 27 subtable" uni0163.sc
Substitution2: "'locl' Localized Forms in Latin lookup 5 subtable" uni021A
Substitution2: "'locl' Localized Forms in Latin lookup 4 subtable" uni021A
AlternateSubs2: "'aalt' Access All Alternates lookup 1 subtable" uni021A uni0163.sc
Position2: "'cpsp' Capital Spacing lookup 0 subtable" dx=5 dy=0 dh=10 dv=0
EndChar

StartChar: tcedilla
Encoding: 355 355 237
Width: 371
GlyphClass: 2
Flags: MW
HStem: -257 80<140.5 166.5 140.5 213> -15 21G<228 228> -15 113<228 255> -7 21G<147 147> 430 100<39 103 26 123 256 349>
VStem: 62.99 143 207 104
AnchorPoint: "Anchor-11" 192 0 basechar 0
AnchorPoint: "Anchor-10" 0 0 basechar 0
AnchorPoint: "Anchor-9" 0 0 basechar 0
AnchorPoint: "Anchor-8" 0 0 basechar 0
LayerCount: 2
Fore
SplineSet
206 167 m 2xac
 199 115 211 98 245 98 c 0xac
 265 98 285 104 309 117 c 1xaa
 347 23 l 1
 310 1 268 -12 228 -15 c 1
 222 -50 l 1
 283 -56 311 -90 311 -135 c 0
 311 -189 270 -257 156 -257 c 0
 111 -257 75 -243 53 -226 c 1
 95 -161 l 1
 111 -171 129 -177 152 -177 c 0
 181 -177 206 -166 207 -142 c 0
 208 -117 186 -109 122 -109 c 1xca
 147 -7 l 1x9c
 80 14 53 74 66 168 c 2
 103 430 l 1
 26 430 l 1
 39 530 l 1
 123 530 l 1
 156 649 l 1
 275 663 l 1
 256 530 l 1
 378 530 l 1
 349 430 l 1
 243 430 l 1
 206 167 l 2xac
EndSplineSet
Substitution2: "'smcp' Lowercase to Small Capitals lookup 24 subtable" tcedilla.sc
Substitution2: "'locl' Localized Forms in Latin lookup 5 subtable" uni021B
Substitution2: "'locl' Localized Forms in Latin lookup 4 subtable" uni021B
AlternateSubs2: "'aalt' Access All Alternates lookup 1 subtable" uni021B tcedilla.sc
EndChar
StartChar: uni0163
Encoding: 355 355 638
Width: 371
GlyphClass: 2
Flags: MW
HStem: -257 80<141 169 141 212> -15 21G<228 228> -15 113<228 255> -7 21G<147 147> 430 100<39 103 26 123 257 349>
VStem: 63.03 142.97 207 104
AnchorPoint: "Anchor-14" 184 265 basechar 0
AnchorPoint: "Anchor-13" 304 775 basechar 0
AnchorPoint: "Anchor-12" 214 649 basechar 0
AnchorPoint: "Anchor-11" 0 0 basechar 0
AnchorPoint: "Anchor-10" 177 -257 basechar 0
LayerCount: 2
Back
Fore
SplineSet
243 430 m 1x9c
 206 167 l 2
 199 115 211 98 245 98 c 0xac
 265 98 285 104 309 117 c 1xaa
 347 23 l 1
 311 0 268 -12 228 -15 c 1
 222 -50 l 1
 283 -56 311 -90 311 -137 c 0
 311 -190 268 -257 156 -257 c 0
 111 -257 76 -243 53 -226 c 1
 95 -161 l 1
 111 -171 129 -177 153 -177 c 0
 185 -177 206 -166 207 -142 c 0
 208 -117 186 -109 122 -109 c 1xca
 147 -7 l 1
 81 14 53 74 66 168 c 2
 103 430 l 1
 26 430 l 1
 39 530 l 1
 123 530 l 1
 156 649 l 1
 275 663 l 1
 257 530 l 1
 378 530 l 1
 349 430 l 1
 243 430 l 1x9c
EndSplineSet
Substitution2: "'smcp' Lowercase to Small Capitals lookup 28 subtable" uni0163.sc
Substitution2: "'locl' Localized Forms in Latin lookup 5 subtable" uni021B
Substitution2: "'locl' Localized Forms in Latin lookup 4 subtable" uni021B
AlternateSubs2: "'aalt' Access All Alternates lookup 1 subtable" uni021B uni0163.sc
EndChar

StartChar: Tcaron
Encoding: 356 356 98
Width: 526
GlyphClass: 2
Flags: MW
HStem: 0 21G<153 299 153 153> 577 115<69 234 53 584 379 552 379 379>
VStem: 53 531<577 692>
AnchorPoint: "Anchor-11" 226 0 basechar 0
AnchorPoint: "Anchor-10" 0 0 basechar 0
AnchorPoint: "Anchor-9" 323 692 basechar 0
AnchorPoint: "Anchor-8" 0 0 basechar 0
LayerCount: 2
Fore
SplineSet
525 875 m 1
 371 751 l 1
 284 751 l 1
 163 875 l 1
 221 935 l 1
 338 852 l 1
 479 935 l 1
 525 875 l 1
552 577 m 1
 379 577 l 1
 299 0 l 1
 153 0 l 1
 234 577 l 1
 53 577 l 1
 69 692 l 1
 584 692 l 1
 552 577 l 1
EndSplineSet
Substitution2: "'c2sc' Capitals to Small Capitals lookup 23 subtable" tcaron.sc
Substitution2: "'aalt' Access All Alternates lookup 0 subtable" tcaron.sc
Position2: "'cpsp' Capital Spacing lookup 0 subtable" dx=5 dy=0 dh=10 dv=0
EndChar

StartChar: tcaron
Encoding: 357 357 236
Width: 371
GlyphClass: 2
Flags: MW
HStem: -16 114<228 230.5> 430 100<39 103 26 123 256 349> 555 20G<305 305>
VStem: 62.94 143.06
AnchorPoint: "Anchor-11" 192 0 basechar 0
AnchorPoint: "Anchor-10" 0 0 basechar 0
AnchorPoint: "Anchor-9" 0 0 basechar 0
AnchorPoint: "Anchor-8" 0 0 basechar 0
LayerCount: 2
Fore
SplineSet
454 775 m 1
 378 567 l 1
 305 575 l 1
 346 788 l 1
 454 775 l 1
256 530 m 1
 378 530 l 1
 349 430 l 1
 243 430 l 1
 206 167 l 2
 199 115 211 98 245 98 c 0
 265 98 285 104 309 117 c 1
 347 23 l 1
 304 -3 253 -16 208 -16 c 0
 97 -15 50 50 66 168 c 2
 103 430 l 1
 26 430 l 1
 39 530 l 1
 123 530 l 1
 156 649 l 1
 275 663 l 1
 256 530 l 1
EndSplineSet
Substitution2: "'smcp' Lowercase to Small Capitals lookup 24 subtable" tcaron.sc
Substitution2: "'aalt' Access All Alternates lookup 0 subtable" tcaron.sc
EndChar
StartChar: Tbar
Encoding: 358 358 239
Width: 527
GlyphClass: 2
Flags: MW
HStem: 0 21G<153 299 153 153> 303 87<92 196 81 207 353 457> 577 115<69 234 53 584 379 552 379 379>
VStem: 53 531<577 692>
LayerCount: 2
Back
Fore
SplineSet
379 577 m 1
 353 390 l 1
 468 390 l 1
 457 303 l 1
 341 303 l 1
 299 0 l 1
 153 0 l 1
 196 303 l 1
 81 303 l 1
 92 390 l 1
 207 390 l 1
 234 577 l 1
 53 577 l 1
 69 692 l 1
 584 692 l 1
 552 577 l 1
 379 577 l 1
EndSplineSet
Substitution2: "'c2sc' Capitals to Small Capitals lookup 27 subtable" tbar.sc
Substitution2: "'aalt' Access All Alternates lookup 0 subtable" tbar.sc
Position2: "'cpsp' Capital Spacing lookup 0 subtable" dx=5 dy=0 dh=10 dv=0
EndChar

StartChar: tbar
Encoding: 359 359 235
Width: 374
GlyphClass: 2
Flags: MW
HStem: -16 114<228 230.5> 264 96<27 80 14 93 233 314> 430 100<39 103 26 123 256 349>
VStem: 62.94 143.06 98 140
AnchorPoint: "Anchor-11" 192 0 basechar 0
AnchorPoint: "Anchor-10" 0 0 basechar 0
AnchorPoint: "Anchor-9" 0 0 basechar 0
AnchorPoint: "Anchor-8" 0 0 basechar 0
LayerCount: 2
Fore
SplineSet
243 430 m 1xe8
 233 360 l 1
 342 360 l 1
 314 264 l 1
 219 264 l 1xe8
 206 167 l 2
 199 115 211 98 245 98 c 0
 265 98 285 104 309 117 c 1
 347 23 l 1
 304 -3 253 -16 208 -16 c 0xf0
 97 -15 50 50 66 168 c 1
 80 264 l 1
 14 264 l 1
 27 360 l 1
 93 360 l 1
 103 430 l 1
 26 430 l 1
 39 530 l 1
 123 530 l 1
 156 649 l 1
 275 663 l 1
 256 530 l 1
 378 530 l 1
 349 430 l 1
 243 430 l 1xe8
EndSplineSet
Substitution2: "'smcp' Lowercase to Small Capitals lookup 24 subtable" tbar.sc
Substitution2: "'aalt' Access All Alternates lookup 0 subtable" tbar.sc
EndChar

StartChar: Utilde
Encoding: 360 360 111
Width: 645
GlyphClass: 2
Flags: MW
HStem: -16 112<256.5 335.5 256.5 370.5> 672 20G<123 268 268 268 497 642 642 642> 766 102<445.5 472 445.5 481.5> 812 102<334.5 362>
VStem: 54.87 145.18
AnchorPoint: "Anchor-11" 0 0 basechar 0
AnchorPoint: "Anchor-10" 0 0 basechar 0
AnchorPoint: "Anchor-9" 382 692 basechar 0
AnchorPoint: "Anchor-8" 400 0 basechar 0
LayerCount: 2
Fore
SplineSet
456 766 m 0xe8
 403 766 377 812 347 812 c 0
 322 812 306 795 286 765 c 1
 218 805 l 1
 250 865 297 914 353 914 c 0xd8
 410 914 430 868 461 868 c 0
 483 868 500 884 521 913 c 1
 589 874 l 1
 555 809 507 766 456 766 c 0xe8
577 226 m 2xd8
 557 87 456 -16 285 -16 c 0
 111 -16 38 86 58 230 c 2
 123 692 l 1
 268 692 l 1
 203 233 l 2
 190 140 218 96 295 96 c 0
 376 96 419 144 432 237 c 2
 497 692 l 1
 642 692 l 1
 577 226 l 2xd8
EndSplineSet
Substitution2: "'c2sc' Capitals to Small Capitals lookup 23 subtable" utilde.sc
Substitution2: "'aalt' Access All Alternates lookup 0 subtable" utilde.sc
Position2: "'cpsp' Capital Spacing lookup 0 subtable" dx=5 dy=0 dh=10 dv=0
EndChar
